<svg id="Layer_1" data-name="Layer 1" xmlns="http://www.w3.org/2000/svg" viewBox="0 0 983.88 982.96"><title>black_LOGO</title><path d="M11.07,446.76c.3-2.7.36-5.43.51-8.14,2.5-46.49,15.71-89.86,38.06-130.56,1.53-2.81,3.17-5.56,4.72-8.36,7.19-13,16.79-24.11,27.57-34.24,1-1,2-2.08,3.65-2.36a26.73,26.73,0,0,1,0,3.81q-2.85,19.21-5.8,38.42a27.37,27.37,0,0,1-3.38,9.92C59.77,343.42,49.52,373.84,44.24,406a384.12,384.12,0,0,0-4.3,85.61c2.3,37.82,12.27,73.66,29,107.65,6.87,14,15.09,27.1,23.39,40.21a21.09,21.09,0,0,0,5.9,6.22c3.47,2.39,10.28,10.36,10.28,10.36s2,34.65,1.34,34.34a41.69,41.69,0,0,1-4.19-2.32,127.07,127.07,0,0,1-33.76-30.28C59.23,641.77,49.55,624,41.53,605.23c-8.13-19-14-38.78-19-58.79a389,389,0,0,1-9.41-50.9c-.84-7.3-1.4-14.65-1.71-22C11.13,468.41,10.87,448.59,11.07,446.76Z" transform="translate(-11 -15.29)"/><path d="M994.88,506.52c-1,2.6-.71,5.34-1,8s-.56,5.4-1,8.07c-.27,1.71-.79,3.38-1.43,6a28.43,28.43,0,0,1-1.43-3.82c-1.57-8.16-3.25-16.3-4.56-24.5-4.72-29.59-12.39-58.42-21.29-87s-18.28-57.23-29.77-85c-3.11-7.52-6.41-15-10.1-22.25-6.33-12.46-14.6-23.64-23.71-34.21a281.44,281.44,0,0,0-38.86-37c-28.79-22.85-94.6-29-94.6-29S744,166.74,744,166c.82-.24,106.79,29.63,129.13,44.62a193,193,0,0,1,29.75,24.89,361.4,361.4,0,0,1,39.33,47.68c11.39,16.38,19.79,34.29,26.68,52.95,6.44,17.41,11.22,35.31,15.38,53.39,3.34,14.48,6.3,29,8.33,43.78.68,4.89.91,9.85,1.41,14.78.22,2.2.57,4.39.87,6.59Z" transform="translate(-11 -15.29)"/><path d="M446.74,998.11a215.67,215.67,0,0,1-37.2-6.8C374,981.21,343.89,962.53,320,934.12c-1.33-1.59-2.5-3.32-3.7-5-.15-.21-.06-.61-.11-1.19a9.18,9.18,0,0,1,2.14-.53c7-.06,26.64.54,26.64.54s31.44,19.36,40.45,24.57c14.07,8.15,28.94,14.19,45,17.18a115.52,115.52,0,0,0,34.86,1.22c11-1.29,22-1.81,33-2.64,6.52-.5,13.05-1.23,19.51-2.27a76.46,76.46,0,0,0,23.82-8.5,371,371,0,0,0,37.17-22.8c2.62-1.82,5.28-3.61,8-5.27a19.94,19.94,0,0,1,13.34-2.77c6.18.83,12.36,1.66,18.52,2.55a26.93,26.93,0,0,1,3.49,1c.08,2-1.25,2.8-2.17,3.83a173.3,173.3,0,0,1-31.27,27.47,210.44,210.44,0,0,1-73,31.75A264.52,264.52,0,0,1,485,998.13C483.57,998.28,448.77,998.32,446.74,998.11Z" transform="translate(-11 -15.29)"/><path d="M589.5,45.65C588.75,47.06,553,53,553,53S445,15,378,109.75c-.32.34-.69.64-1.31,1.22-10.25-.77-20.8-.49-31.71-1.78a11.32,11.32,0,0,1,.92-2.29c.85-1.16,1.83-2.22,2.76-3.31,8-9.36,16.12-18.61,24-28.09C467-16,555.12,16.4,589.5,45.65Z" transform="translate(-11 -15.29)"/><path d="M857.06,771.85a51.49,51.49,0,0,0-4.78,3.18c-30.46,23.16-64.15,40.17-100.12,52.86-12.25,4.32-24.73,7.62-37.79,8.44-7,.45-25.37-1.33-25.37-1.33l-12,27s14.57,1,17.44,1.32c7.5.76,15,1.1,22.5-.08a261.26,261.26,0,0,0,36.82-8.71c25.73-8,50.21-19,74.4-30.67a37.88,37.88,0,0,0,15.77-14.38,78.9,78.9,0,0,0,6-11.47c3.31-8,6.28-16.08,9.36-24.15a2.13,2.13,0,0,0-.14-2.49A6.71,6.71,0,0,0,857.06,771.85Z" transform="translate(-11 -15.29)"/><path d="M617,812.14l-4.48-3.36-2.36-2.06a182.54,182.54,0,0,0-19.48-15.11c-1-.66-2-1.27-3-2-4.1-2.83-30.37,7.77-39.11,8.1a21.33,21.33,0,0,0-6,1.63c-.54,1.48.55,2,1.35,2.56l21.59,16.12C569.41,821,579.39,827,583.32,830,584.35,830.73,605,817,617,812.14Z" transform="translate(-11 -15.29)"/><path d="M862.93,316.77s-8.28-2.16-10.5-3a113,113,0,0,0-27.86-6.88,83.17,83.17,0,0,1-20-5c-10.27-4-20.58-7.93-30.87-11.88a135,135,0,0,0-27.67-7.68,86.31,86.31,0,0,0-28.19,0,79.73,79.73,0,0,0-35.19,15.53c-1.91,1.45-3.84,2.88-5.84,4.2a32,32,0,0,1-11.92,4.82,48.12,48.12,0,0,1-18.14,0,41.81,41.81,0,0,1-16.71-6.88c-4.6-3.33-6.56-7.69-5.79-13.3.14-.95.29-1.89.5-2.83a50.54,50.54,0,0,1,15.79-26.86,199.38,199.38,0,0,1,29.12-21.87A75.75,75.75,0,0,1,696,225c7.69-1.42,15.37-3,23-4.52,1.55-.31,3.08-.77,5-1.25-.7-1.7-1.18-3.2-1.9-4.58q-9.42-18.08-18.94-36.11a23.17,23.17,0,0,0-2-3.23c-2.06-2.74-4.81-4.3-8.28-3.89a39.52,39.52,0,0,0-7.46,1.61c-12,3.89-24.11,7.49-36.38,10.48a28.3,28.3,0,0,1-19.2-1.64,34.56,34.56,0,0,1-10-7.38q-18.44-18.56-37-37Q566.54,121.21,550,105.17a45.27,45.27,0,0,0-6-4.81c-3.55-2.46-7-2.34-10.6.32-8,5.9-16.12,11.56-24.17,17.34-1,.72-1.89,1.62-3,2.63,1.18,1.38,2.16,2.6,3.23,3.73,15,15.79,29.88,31.64,45,47.31a232,232,0,0,1,26.81,33.78c.59.89,1,1.89,1.73,3.19l-3.34,2.92Q567,222.52,554.46,233.45c-1.07.92-2.88,2.33-4,3.13-5,3.38-6.69,3.35-10.57-1.1a114.89,114.89,0,0,1-7-9.12c-8.83-12.37-17.57-24.8-26.4-37.17-3.81-5.35-30.6-36.57-31.44-37.19l-18,22s22.76,33.44,28,41c8.41,12.13,8.53,31.75,14.61,45.19a17.61,17.61,0,0,1,1.78,8.35,7.65,7.65,0,0,1-3.16,6.16c-4.25,3.13-8.51,6.28-13.4,8.36a52.38,52.38,0,0,1-9,3.08,20.35,20.35,0,0,1-7.61.36c-11.57-1.94-21-7.39-27.37-17.55A43.42,43.42,0,0,1,434.46,250c-2-19.75,7.54-53,14.54-74,6.53-19.58,66-80,107.92-88.67,20.91-4.33,41.4-9.62,62.74-10.64a175.42,175.42,0,0,1,32.55,1.44,195.18,195.18,0,0,1,31.68,7.53,327.92,327.92,0,0,1,101.48,53.09,104.54,104.54,0,0,1,15.77,14.7c8.05,9.32,16.26,18.5,24.23,27.89a23.66,23.66,0,0,0,10.49,7.28c1.51.5,3,1.19,4.44,1.79l20.43,8.32c1,.41,2,1,3.32.05.51-2.05-.5-3.9-1.43-5.71-3.89-7.53-7.67-15.12-11.82-22.51a158.84,158.84,0,0,0-29.68-38.08,276.82,276.82,0,0,0-46.8-35c-21.39-13-44-23.48-67.14-32.8a215.61,215.61,0,0,0-70.4-15.39A220.25,220.25,0,0,0,575.36,55a283,283,0,0,0-95.89,42.53,193.47,193.47,0,0,0-37.34,32.91,250,250,0,0,0-40.24,64.48,97.43,97.43,0,0,0-8.25,39.17c0,5.76.06,11.51.1,17.27,0,2.08.11,4.16.08,6.24,0,1.55.48,3.44-1.34,4.28s-3-.64-4.29-1.5c-1.74-1.14-3.4-2.39-5.12-3.56a20.85,20.85,0,0,1-7.4-8.93,123.42,123.42,0,0,1-7.32-21c-2.85-12-3.71-24-1.48-36.17,2-11.17,4.14-22.32,6.23-33.48.32-1.71,1-3.39.13-5.37a26.64,26.64,0,0,0-3.09-.66q-13.84-1.4-27.69-2.72c-1.43-.14-2.88-.12-4.32-.14-3.47-.06-5.74,1.7-7,4.82a39.75,39.75,0,0,0-1.44,4.57q-3.87,14.34-7.71,28.71c-.37,1.37-.6,2.8-2.11,3.86-.91-.41-1.92-.83-2.91-1.31-3-1.47-6-3-9-4.43-20.48-9.31-38.95-8.4-59.4.13-3.6,1.51-16,36.16-14.27,35.42,9-3.72,19.89-8.49,28.87-12.13a36.78,36.78,0,0,1,14.41-2.8c11.25.18,21,4.23,29.88,10.93a18.82,18.82,0,0,1,7.75,13.25c.44,3.65.77,7.32,1.06,11,.48,6.22.84,12.46,2.22,18.57a15.33,15.33,0,0,1-4.31,15c-10.63,10.67-23.2,17.06-38.72,16.76-4.78-.09-9.55.14-14.32.42-12.55.74-25.09,1.6-37.63,2.45q-5.75.39-11.48,1c-4.91.54-8.38,2.91-9.64,7.95-.54,2.17-1.17,4.32-1.81,6.46q-4.2,14.26-8.43,28.52c-.49,1.65-1.35,3.29-.43,5.1,1.82.94,3.76.56,5.65.48q8.64-.34,17.26-.8c7.83-.39,15.67-.73,23.48-1.27,10.86-.75,21.71-1.35,32.6-.62,16.75,1.13,32.36,5.74,46.63,14.68,5,3.14,10,6.28,15.08,9.36,12.42,7.57,24.83,15.19,37.33,22.63a28.64,28.64,0,0,1,13.62,17.79c.46,1.7.95,3.39,1.44,5.08q11.46,39.86,22.94,79.73a62.23,62.23,0,0,1-1.12,39.13c-1.83,5.11-3.42,10.31-5.22,15.44-1.43,4.07-2.93,8.12-4.54,12.12a58.4,58.4,0,0,1-17.28,23.26c-1.72,1.43-3.55,2.74-5.3,4.13-4.75,3.79-9.62,7.44-14.2,11.43-15.08,13.17-28,28.07-36.62,46.36a15.69,15.69,0,0,1-10.69,8.88c-3.86,1-7.68,2.18-11.56,3.15a235,235,0,0,0-27.92,8.59c-20.43,7.89-60.49,23.23-61.6,25,.45,1.16,18.64,48.11,22.33,48.24a43,43,0,0,0,5.79-.13c8.55-1.13,17.1-2.33,25.65-3.54q5.24-.74,10.46-1.61A9.87,9.87,0,0,1,286,734.74c.48.83,1,1.65,1.48,2.47q19.27,31.51,38.56,63c1.25,2,2.66,4,3.91,6a8.73,8.73,0,0,0,8.05,4.28c13.91,0,27.83.1,41.75.11a14.42,14.42,0,0,0,2.91-.65,19.84,19.84,0,0,0-.73-3c-.92-2.22-1.94-4.39-2.94-6.57-8.55-18.59-16.54-37.43-24.37-56.34-2-4.75-2.86-9.54-1.85-14.52a50.74,50.74,0,0,1,3-9.07,20,20,0,0,1,8.12-9.23c3.1-1.94,6.57-3.32,9.46-5.47,8.65-6.45,18.06-11.93,28.42-14.91,2.68-.77,5-2.43,7.53-3.53,3.94-1.71,6.28-.91,8.26,3,.94,1.84,1.58,3.84,2.39,5.75a41.08,41.08,0,0,1,1.37,28.14c-3.32,11.52-6.31,23.13-7.69,35.1a67.67,67.67,0,0,0,2.1,26.6c2.83,9.92,8.3,18.28,15.16,25.83q15,16.5,30,33,8.71,9.59,17.39,19.22c1.13,1.25,36.4-11.91,35.68-12-2.07-.36-29.77-21.3-43.34-32.5a29.5,29.5,0,0,1-3-2.84,15.6,15.6,0,0,1-3-16.18,33.28,33.28,0,0,1,2.6-5.12c4.34-7.09,8.66-14.19,12.29-21.69a21.21,21.21,0,0,1,3-4.31,4.91,4.91,0,0,1,5.67-1.41,13.17,13.17,0,0,1,2.62,1.19c4.63,2.71,9.79,3.83,14.92,5a9.27,9.27,0,0,0,7.32-1.21c10.66-6.48,21.4-12.82,32.09-19.23,2.47-1.48,4.9-3,7.32-4.59a24.67,24.67,0,0,0,2.21-1.92c-.93-1.73-1.63-3.15-2.44-4.51-1.3-2.2-2.67-4.36-4-6.55-10.68-17.47-10.57-35.38-2.06-53.58a55,55,0,0,1,7.22-11.3,21.9,21.9,0,0,1,15-8.57c4.61-.52,9.22-1,13.84-1.38,7.17-.56,14.35-1,21.53-1.49a19.77,19.77,0,0,1,2.88,0c4.86.42,7.49,3.15,7.78,8.06a9.89,9.89,0,0,1,0,1.44c-.82,10.67-1,21.4-2.6,32C610,713.8,604.38,724,594.53,731.86a64.63,64.63,0,0,1-19.14,10.78,101.67,101.67,0,0,0-19.8,9.6c-12.82,7.85-25.68,15.62-38.5,23.47a135.37,135.37,0,0,1-30.37,14.07c-3.19,1-6.29,2.33-9.41,3.56-6.08,2.39-10.71,9-7.76,17.81a26.66,26.66,0,0,0,2.38,5.14,9.25,9.25,0,0,0,9.61,4.3,34.37,34.37,0,0,0,6.24-1.93c10.27-4,20.47-8.2,30.76-12.15q21.48-8.25,43.06-16.22a115.71,115.71,0,0,1,16.6-4.64c13.51-2.84,25.56-8.92,36.83-16.78,10-7,20.09-13.67,30.17-20.47,1-.7,2.19-1.21,3.32-1.83a29,29,0,0,1,5.76,6c4.17,5.66,8.24,11.39,12.54,17a74.9,74.9,0,0,0,5.5,6.43c2.81,2.92,3.47,2.83,7.25.68,4.87-2.76,9.67-5.64,14.44-8.56,2.86-1.75,5.59-3.72,8.44-5.49a9.88,9.88,0,0,0,4.47-6.35c.35-1.41.68-2.84,1.17-4.21a176.36,176.36,0,0,1,7.4-17.28,28.93,28.93,0,0,1,2.92-4.37,12.75,12.75,0,0,1,7.41-5c3.1-.77,6.14-1.75,9.24-2.55a24.86,24.86,0,0,1,3.39-.4c1.43,4.55.61,8.78-.34,13-1.22,5.39-4.39,9.47-8.84,12.69-20.89,15.1-42.4,29.2-65.41,40.91-14.1,7.18-69.4,44.13-84.4,46.52a12.22,12.22,0,0,1-1.22.47c-18.24,5.9-36.2,12.58-54.19,19.21-1.58.58-96,28.8-96,28.8l26,19c.92-1,135.39-43.72,151.85-50.77,2.79-1.2,5.57-2.42,8.37-3.58,3.19-1.33,31-21.42,37.46-23.91-.11-.09,37.88-21.32,55.93-29.2a131.4,131.4,0,0,0,26.59-15.23c17.36-13,28.48-30,32.49-51.47.68-3.61,1.46-7.2,2.22-10.8a10.42,10.42,0,0,1,7.31-8.16c2.11-.71,4.31-1.2,6.4-2a20.28,20.28,0,0,1,16.29.88q5.87,2.73,11.77,5.39c.83.38,16.76-51.95,15.34-52.08-6.68-.61-13.38-1.15-20.06-1.85a93.18,93.18,0,0,1-36.73-11.73c-5.14-2.92-10.43-5.59-15.76-8.15a56.06,56.06,0,0,0-18.4-5.24,59.29,59.29,0,0,1-29.87-12c-6.55-5-12.88-10.61-17.18-17.6A48.53,48.53,0,0,0,670.08,588c-5.67-3.07-10-7.1-12.66-12.43-9-18-18.2-36-26.8-54.17a404.34,404.34,0,0,1-27-74.74,33.38,33.38,0,0,1-.81-4.31c-.84-7.68,1.32-14.27,7.48-19.12a37.29,37.29,0,0,1,6.44-4.13c3.43-1.71,7-3.23,10.54-4.6q37.83-14.51,75-30.76a168.76,168.76,0,0,0,21.34-10.91c10.57-6.58,19.83-14.59,26.85-25a18.11,18.11,0,0,1,10.27-7.42c4.91-1.45,9.76-3.09,14.68-4.45,7.1-2,14.3-5.5,21.66-6,9.67-.7,19.14-.61,28.44,2.19,11.78,3.55,23.6,10,35.41,13.42a29.86,29.86,0,0,0,3.4.6C865.58,339.35,862.93,316.77,862.93,316.77Z" transform="translate(-11 -15.29)"/><path d="M515,890s14.75,8.73,19.41,11.18c19.68,10.37,40.66,16.94,62.47,21a315.27,315.27,0,0,0,31.36,4.22c10.37.89,20.73,1.79,31.14,1.63,8.42-.12,26.62-1,26.62-1s40.6-34.66,41-35.47c-.8-.09-42.59,7.1-60.16,8.32-19.68,1.36-39.31.9-58.83-2.49a205,205,0,0,1-54.12-17.42c-1.27-.61-2.43-1.42-3.92-2.3Z" transform="translate(-11 -15.29)"/><path d="M189.24,733.19q-13.86-3.84-27.67-7.85a76.18,76.18,0,0,1-7.23-2.5,8.61,8.61,0,0,1-5.78-8.07c-.22-3.83-.65-7.65-.91-11.48q-.72-10.53-1.33-21.07a35.09,35.09,0,0,1,.19-3.72c1.86-.52,3.36.06,4.89.49l17.1,4.69C169.26,683.88,191.89,733.92,189.24,733.19Z" transform="translate(-11 -15.29)"/><path d="M211.32,765.72c10.07,18.54,20,37.18,30.3,55.59,12.12,21.64,25.83,42.3,39.11,63.23.42.68.91,1.32,1.37,2a9.65,9.65,0,0,0,7.62,4.32c8.93.62,17.85,1.41,26.78,2.08a8.79,8.79,0,0,0,2.32-.51c-.12-2.48-1.4-4.11-2.62-5.75-2.76-3.73-5.57-7.42-8.29-11.17A870.62,870.62,0,0,1,214.57,712.1c-17.6-40.28-34.25-81-51.17-121.54A474.26,474.26,0,0,1,138,510.19c-4.42-20-8.53-40-12.91-60a379.53,379.53,0,0,1-6.42-38.78c-1.12-9.85-2.07-19.71-3.14-29.57-.15-1.42-.81-4.19-.81-4.19L91.38,402.36s.69,13.36,1,16.54c1.37,15,3.37,29.87,6.11,44.66A637.75,637.75,0,0,0,129.8,576.12c10.25,26.71,20.83,53.29,31.28,79.93C164.29,664.23,207.12,758,211.32,765.72Z" transform="translate(-11 -15.29)"/><path d="M137,485c-3.18-14.73-3.33-21.49-.15-36.24,5.79-26.88,11.36-53.8,17.14-80.67,11.27-52.42,25.42-104,44.14-154.3,11.34-30.45,24.28-60.18,40.16-88.57,3.9-7,7.92-13.9,12.18-20.66,15-23.81,35.33-41.51,61.35-52.46a120.15,120.15,0,0,1,43.81-9.41c11.91-.3,42.15,2.88,42.15,2.88L368.67,70.25s-10.23,0-15.33.3c-28.35,1.9-51.9,13.68-70.87,34.76a139.26,139.26,0,0,0-19.06,27.55c-7,13-13.2,26.28-19.22,39.71C226,213.2,211.33,255.11,199,297.86c-8.24,28.58-14.94,57.54-21,86.64-7,33.17-13,66.51-19,99.86-2.78,15.42-5.35,30.87-8,46.3a27.76,27.76,0,0,1-1.05,4.67C149.61,536.06,140,498.74,137,485Z" transform="translate(-11 -15.29)"/><path d="M899.74,768.57a21.73,21.73,0,0,1,.5-3.21c3.59-11.93,7.17-23.87,10.88-35.77a177.37,177.37,0,0,1,16.89-37,250.6,250.6,0,0,0,20.4-43.85,231.3,231.3,0,0,0,11.65-47.9,290.77,290.77,0,0,0,1.46-63.18A475.42,475.42,0,0,0,948.77,464a207.29,207.29,0,0,0-22.14-54.46,164.75,164.75,0,0,0-16-22.68c-2.07-2.44-4.08-4.94-5.9-7.57-2.15-3.12-3.78-39.32-3.7-40.27,1.39-.56,19.74,17.49,28.06,26.63,21.52,23.62,35.22,51.16,41.88,82.36,4.9,23,9.35,46,13.11,69.24a363,363,0,0,1,4.75,51.07,252.62,252.62,0,0,1-10.24,75.28,272.8,272.8,0,0,1-47.7,93.91,215.24,215.24,0,0,1-27.26,29C902.57,767.39,901.78,768.81,899.74,768.57Z" transform="translate(-11 -15.29)"/><path d="M16,542.18c1.66,1.56,2,3.52,2.55,5.31q12.54,38,25,76C47,634,50.22,644.56,54,654.93c12.12,33.76,31,63.35,55.62,89.35a128.76,128.76,0,0,0,24.17,19.6,229.34,229.34,0,0,0,47.87,23c9.64,3.41,19.44,6.35,29.15,9.54,2.73.89,5.47,1.79,8.12,2.88a23.94,23.94,0,0,1,12.51,11.39c3.16,6.1,6.1,12.32,9.11,18.5a8.69,8.69,0,0,1,.36,1.67,8.37,8.37,0,0,1-2.19.55,61.46,61.46,0,0,1-12.79-1.83c-29.61-6.8-57.69-17.69-84.65-31.6-4-2.05-7.88-4.23-11.89-6.22a150.3,150.3,0,0,1-48.7-38.28C60.87,730,44.29,704.38,32.42,676c-7.3-17.49-12-35.72-15-54.42-3.85-24-4.29-48.07-3.66-72.24a26.18,26.18,0,0,1,.8-5.19C14.76,543.43,15.45,542.88,16,542.18Z" transform="translate(-11 -15.29)"/><path d="M806.05,294.73a28.2,28.2,0,0,1-4.15-.5c-14.07-4.25-28.12-8.56-42.19-12.81a11.75,11.75,0,0,1-7.52-6.89c-2.05-4.51-4.08-9-6-13.58-8.57-19.81-17.19-39.59-25.64-59.45a132.35,132.35,0,0,0-22.8-35.87,259.33,259.33,0,0,0-35.82-33.27c-16.8-13-33.89-25.7-50.86-38.53-3.7-2.8-7.42-5.57-11.07-8.42a12.9,12.9,0,0,1-1.75-2.19,6,6,0,0,1,1.54-.74c9.24-.71,18.47-1.72,27.77-1.31a47.68,47.68,0,0,1,29.09,11C673,105.7,689.22,119.48,704.82,134a329.17,329.17,0,0,1,34.39,37.41,425.38,425.38,0,0,1,34.32,50.86,257.62,257.62,0,0,1,16.17,34.22c4.23,10.7,9,21.18,13.53,31.76Z" transform="translate(-11 -15.29)"/><path d="M412.67,916.39c-3.28.69-5.75,1.27-8.25,1.74a291.32,291.32,0,0,1-45.71,5.17c-10.07.3-20.15.78-30.22.63-37.43-.53-73.78-6.87-108.63-20.91-8.6-3.46-17-7.39-25.25-11.63-27-13.9-46.06-35.08-58-62.89-3.33-7.81-8.46-31.88-8.46-31.88l28,14.12s23.54,38.37,36.69,47.38a184.17,184.17,0,0,0,25.52,14.26A263.36,263.36,0,0,0,284.73,894a238.71,238.71,0,0,0,57.8,3.56c8.64-.56,17.19-1.66,25.76-2.68,4.88-.59,21-.47,21-.47s17.33,15.31,21.31,19.49C411.17,914.48,411.62,915.11,412.67,916.39Z" transform="translate(-11 -15.29)"/><path d="M895.27,625.64a469.33,469.33,0,0,0-12.21-76.21c-9-35.75-21.63-70.22-36.48-103.91-13.87-31.44-29-62.3-44.06-93.18Q799.25,345.67,796,339a19.62,19.62,0,0,1-.76-2.07c.94-1.33,2.15-1,3.18-.93,7.65.56,15.3,1.2,22.95,1.82a7.2,7.2,0,0,1,6.21,3.87c.53,1,1.1,2,1.6,3,18.43,36.55,35.85,73.55,50.91,111.63,13.17,33.34,24.4,67.29,32.6,102.21,1.5,6.37,2.75,12.81,4.17,19.2.73,3.28,1.44,6.56,2.4,9.77a29.48,29.48,0,0,1,.92,14C919.39,605.87,895.45,628.15,895.27,625.64Z" transform="translate(-11 -15.29)"/><path d="M863.29,500.54c2.52,1.88,3.34,4.23,4,6.67,2.28,8.49,4.58,17,6.8,25.46,1.38,5.26,2.79,10.51,3.88,15.82a87.24,87.24,0,0,1,.19,33.85c-2.11,11.14-4.56,22.22-7.12,33.27-5.33,23-10.55,46.09-16.36,69A672.5,672.5,0,0,1,823,779.53a53,53,0,0,1-6.18,11.33,30.15,30.15,0,0,1-10.86,9.24c-7,3.48-14.09,6.82-21.13,10.23-2,1-3.88,1.59-5.6-.34-.41-1.69.67-2.83,1.3-4.06q10.56-20.73,19.59-42.16c13.5-32.18,24-65.36,32.56-99.16q11.11-43.93,18.43-88.66c3-18.13,5.72-36.3,8.56-54.45,1-6.16,1.89-12.32,2.87-18.48A21.57,21.57,0,0,1,863.29,500.54Z" transform="translate(-11 -15.29)"/><path d="M772.88,888s13.53-8.22,14.79-8.85c25.47-12.79,44.82-31.17,57.67-55.36,3.09-5.82,5.85-11.81,8.33-17.87a768,768,0,0,0,26.48-75.81c1.12-3.84,2.53-7.63,4-11.36C885.87,714.56,895,681,895,681s25-22.91,26-21c-3.67,39.67-28.12,117.19-37.36,140.09-2.62,7.89-5.89,15.6-8.85,23.4-9.7,25.52-26.42,46.27-49.16,62.91a198.16,198.16,0,0,1-46.4,24.88c-7,2.69-24.14,9.2-31.2,11.8C746.41,923.68,772.88,888,772.88,888Z" transform="translate(-11 -15.29)"/><path d="M120.84,248.7a208.45,208.45,0,0,1,46-68.4A152.75,152.75,0,0,1,182.55,167a127.59,127.59,0,0,1,34.07-18.33c3.94-1.43,7.08-3.58,9.09-7.33,3.62-6.76,7.31-13.49,10.92-20.26a24.82,24.82,0,0,0,1.19-3.35c-3.22-1.14-5.73-.21-8.22.09a112.23,112.23,0,0,0-45.91,15.65,224,224,0,0,0-29.46,21.4c-32.26,27.85-53.51,62.34-62.91,104a372.41,372.41,0,0,0-6.78,43.56A196,196,0,0,0,85,346.92c.25,2,.4,4.06,1.56,5.76a4.83,4.83,0,0,0,1.17-.3c5.78-4.29,18.6-16,24.3-20.38C112,332,112.77,268.19,120.84,248.7Z" transform="translate(-11 -15.29)"/><path d="M791.58,846.32a11.73,11.73,0,0,1-.51,2.64c-16.72,29.87-35.75,58-61,81.51a194.07,194.07,0,0,1-89,47.83,154.83,154.83,0,0,1-45.72,3.77,181.53,181.53,0,0,1-21.81-2.55c-.58-1.06.08-1.58.7-2.07,6.53-5.15,13-10.34,19.63-15.4s14.2-7.17,22.29-8c40.37-4,74.28-21.23,102.66-49.86a221.36,221.36,0,0,0,23.89-28.76c2.76-3.92,5.76-7.68,8.76-11.41A26.77,26.77,0,0,1,765,855.26c7.17-2.21,14.25-4.74,21.36-7.14C787.82,847.62,789.3,847.11,791.58,846.32Z" transform="translate(-11 -15.29)"/><path d="M850.83,233.74a5.93,5.93,0,0,1,1.53.28c8.37,5.62,16.64,11.39,23.59,18.77a47.32,47.32,0,0,1,12.58,24.88c.59,3.47,1.21,6.93,1.63,10.42,1.23,10.31,2.44,20.63,3.52,31,.53,5.09.75,10.2,1.09,15.31,1.85,27.45,2.82,54.93,1.55,82.44-.49,10.7-.73,21.41-1.3,32.11-.35,6.54-1.1,13.06-1.71,19.58-.13,1.42-.14,2.92-1.67,4.15a6.29,6.29,0,0,1-1.53-1.33,20.54,20.54,0,0,1-1.32-3.08c-5.53-13.79-11-27.62-16.61-41.37a33.43,33.43,0,0,1-2.49-13.54c.2-12.15.26-24.3.35-36.45a487.88,487.88,0,0,0-2.6-50.27,443.57,443.57,0,0,0-8-52.58c-2.19-10-4.92-19.84-7.36-29.77-.64-2.63-1.17-5.3-1.63-8A9.42,9.42,0,0,1,850.83,233.74Z" transform="translate(-11 -15.29)"/><path d="M548.39,948.91a5.13,5.13,0,0,0-1.88-1.37c-1.5-.56-3.06-.94-4.6-1.36a355.48,355.48,0,0,1-48-16.32c-23.8-10.26-45.75-23.47-65.2-40.68a207.39,207.39,0,0,1-34.29-38.65c-2.87-4.21-6.51-6.26-11.67-6.08-6.07.21-12.15,0-18.22.07-1.56,0-3.11.15-5.13.25a13.28,13.28,0,0,0,.55,2.11c.85,1.71,1.7,3.44,2.66,5.09a169.35,169.35,0,0,0,25.06,32.63c6.89,7.12,14,14.06,20.87,21.18a196.49,196.49,0,0,0,38.95,30.93c17.65,10.82,36.5,19.06,56,26a14.83,14.83,0,0,0,9.84.12C523.91,959.45,549.21,949.78,548.39,948.91Z" transform="translate(-11 -15.29)"/><path d="M146.2,765.81a10.56,10.56,0,0,1-2.36-.87Q133.4,757.7,123,750.35a11,11,0,0,1-4.74-8.5c-.22-2.71-.46-5.42-.59-8.13-1.11-22.2-2-44.41-3.34-66.59q-1.42-24.21-.67-48.43a364.59,364.59,0,0,1,3.85-45.84c.6-3.75,1.13-7.55,2.68-11,1.26-.15,1.46.74,1.78,1.37a18.71,18.71,0,0,1,.83,2.24c2.89,7.79,5.74,15.59,8.66,23.37a144.15,144.15,0,0,1,8.19,34.9c1.26,11.31,1,22.68,1.47,34q1.36,30.42,2.85,60.85c.26,5.43.59,10.85.88,16.28q.74,13.89,1.46,27.78C146.38,763.57,146.26,764.5,146.2,765.81Z" transform="translate(-11 -15.29)"/><path d="M437.21,130.34c-1,1.47-1.63,2.56-2.4,3.55-3.44,4.42-7,8.75-10.36,13.22-3.13,4.16-7,5.34-12.18,4.66-15.21-2-30.47-3.64-45.72-5.36-15.74-1.78-31.54-2.91-47.36-3.24-15.35-.32-30.71-.09-46.06-.08-2.56,0-5.11.12-7.67.13-.92,0-1.84-.15-2.57-.21a1.92,1.92,0,0,1,.13-2.46q6.71-10.8,13.44-21.57c2-3.17,4.87-4.36,8.53-4.29,8.8.15,17.59.12,26.39.27,15.83.28,31.66.53,47.49,1,9.27.28,18.52,1,27.79,1.43a87.24,87.24,0,0,1,19.79,3.46c9.53,2.71,19,5.62,28.48,8.46A19.31,19.31,0,0,1,437.21,130.34Z" transform="translate(-11 -15.29)"/><path d="M153.11,347.21s-12.9,6-15.35,7.54A263.71,263.71,0,0,0,102.81,380,167,167,0,0,0,78,406.65C68,420,61,434.86,56,450.66c-3.29,10.36-6.39,20.78-9.6,31.17a38.64,38.64,0,0,1-1.67,4.47c-.21.45-.9.67-1.25.91-1.24-.59-1.06-1.49-1.05-2.21.08-3,.2-6.08.39-9.11q1.35-20.83,2.76-41.66c.63-9.25,1.32-9.51,2-18.76.28-3.94,40.42-69.47,102-98.41,2.74-1.3,10.53-4.5,13.33-5.68C163.73,311,153.11,347.21,153.11,347.21Z" transform="translate(-11 -15.29)"/><path d="M288.54,837.32s-3.62-2.5-4.91-4.48c-4.55-7-8.91-14-13.31-21.07a3.49,3.49,0,0,1-.23-1.3c.92-1.15,2.09-.79,3.13-.72,7.34.47,14.68.9,22,1.51,11.78,1,23.54,2.38,35.33,3.07,9.89.58,19.81.57,29.72.55a427.76,427.76,0,0,0,45-2.83c3.81-.4,7.64-.66,11.46-1a15.09,15.09,0,0,1,5.66.51c2.26.65,24.14,23.37,24.14,23.37C449.5,841.06,302,845.18,288.54,837.32Z" transform="translate(-11 -15.29)"/><path d="M956.85,556.55a6.7,6.7,0,0,1,.64,1.56c1.76,16.2,1.42,32.24-3.52,47.94a76.6,76.6,0,0,1-23.81,35.87Q918,652.36,905.78,662.85c-2.9,2.51-5.68,5.16-8.49,7.77-8.11,7.49-43.2,45.55-44.29,45.38.12-1.13,11.22-46.38,12.73-52.43.87-3.46,47.2-39.7,63-62.06A421.38,421.38,0,0,0,953.44,561c.68-1.26,1.44-2.48,2.21-3.69C955.8,557.08,956.16,557,956.85,556.55Z" transform="translate(-11 -15.29)"/><path d="M121.25,261.67a9.69,9.69,0,0,1,.17-2.24c2.11-6.69,4.08-13.45,7.23-19.75a64.5,64.5,0,0,1,5.07-8.66,35.37,35.37,0,0,1,19-13.81c13.14-3.91,26.31-7.76,39.46-11.64,1.23-.36,2.5-.87,3.57.25s1,2.58.47,4c-2.61,6.69-5.17,13.4-7.84,20.06a12.69,12.69,0,0,1-6.11,6.5c-.84.45-1.72.85-2.6,1.22Q153.1,249,126.48,260.43C124.94,261.09,123.43,262.19,121.25,261.67Z" transform="translate(-11 -15.29)"/><path d="M442.8,62.48s10.92,3.38,13.29,4.3q16.31,6.28,32.54,12.74a33.65,33.65,0,0,1,3.51,1.91,27.33,27.33,0,0,1-2.37,2.18c-6.13,4.33-12.33,8.56-18.41,13-3.3,2.41-6.65,2.64-10.39,1.28C448.68,93.38,436.35,89,424,84.58c-3-1.08-6-2.15-9-3.25C414.15,81,442.8,62.48,442.8,62.48Z" transform="translate(-11 -15.29)"/><path d="M-21,466" transform="translate(-11 -15.29)"/><path d="M666,819l28-13c-12.45,35.18-33.23,84.16-45,91l-27-2C632.58,887.6,654.46,849.2,666,819Z" transform="translate(-11 -15.29)"/><path d="M497,908" transform="translate(-11 -15.29)"/><path d="M616,852c7,1,29,4,29,4s12-22,13-25c.31-.93-10,1-10,1Z" transform="translate(-11 -15.29)"/><path d="M452,208" transform="translate(-11 -15.29)"/><path d="M899,340" transform="translate(-11 -15.29)"/><path d="M590,818" transform="translate(-11 -15.29)"/></svg>