<?xml version="1.0" standalone="no"?>
<!DOCTYPE svg PUBLIC "-//W3C//DTD SVG 20010904//EN"
 "http://www.w3.org/TR/2001/REC-SVG-20010904/DTD/svg10.dtd">
<svg version="1.0" xmlns="http://www.w3.org/2000/svg"
 width="4107.000000pt" height="4107.000000pt" viewBox="0 0 4107.000000 4107.000000"
 preserveAspectRatio="xMidYMid meet">
<metadata>
Created by potrace 1.11, written by Peter Selinger 2001-2013
</metadata>
<g transform="translate(0.000000,4107.000000) scale(0.100000,-0.100000)"
fill="#000000" stroke="none">
<path d="M20274 40991 c-10 -1 -26 -9 -34 -16 -10 -9 -59 -16 -145 -19 -71 -4
-146 -8 -165 -11 -19 -2 -69 -7 -110 -9 -42 -3 -91 -8 -110 -10 -19 -3 -61 -8
-94 -11 -32 -4 -68 -8 -80 -10 -11 -2 -43 -6 -71 -10 -111 -15 -153 -21 -260
-40 -77 -13 -93 -16 -140 -25 -27 -5 -64 -12 -81 -15 -39 -6 -331 -71 -404
-90 -30 -8 -66 -16 -80 -19 -38 -7 -398 -112 -450 -131 -25 -9 -52 -18 -60
-20 -68 -18 -413 -152 -580 -226 -138 -61 -412 -201 -554 -282 -136 -77 -443
-274 -531 -340 -24 -18 -56 -41 -71 -52 -338 -243 -777 -652 -1064 -994 -25
-30 -50 -59 -55 -65 -6 -6 -107 -126 -225 -266 -118 -140 -217 -257 -220 -260
-3 -3 -41 -48 -85 -100 -44 -52 -82 -97 -85 -100 -3 -3 -32 -36 -65 -75 -33
-38 -62 -72 -65 -75 -3 -3 -34 -39 -68 -80 -35 -41 -80 -93 -100 -115 -20 -22
-64 -72 -96 -110 -33 -39 -65 -74 -70 -80 -31 -28 -129 -165 -123 -171 5 -5
100 -15 297 -29 114 -8 436 -21 720 -30 91 -3 206 -7 256 -10 87 -6 92 -5 106
17 18 27 43 56 101 118 23 25 87 94 142 154 55 60 111 121 125 136 22 23 147
159 219 239 13 14 49 53 80 87 31 33 92 101 136 149 293 326 398 431 602 600
151 126 136 115 243 191 305 219 606 383 974 531 88 35 543 188 589 197 12 3
74 19 137 36 125 33 484 117 540 126 19 3 43 7 52 10 10 3 30 7 45 10 16 2 39
7 53 10 14 3 36 8 50 10 14 3 59 11 100 19 41 8 89 17 105 19 17 3 62 10 100
16 39 7 81 13 95 15 14 2 39 6 55 9 17 3 50 7 75 11 42 5 90 12 150 20 14 2
61 7 105 11 44 3 88 8 97 10 122 22 820 22 891 -1 6 -2 39 -6 72 -9 33 -4 69
-8 80 -10 11 -2 54 -9 95 -16 290 -46 598 -147 896 -291 78 -38 161 -75 185
-83 105 -36 237 -39 364 -10 32 7 174 36 195 40 14 3 117 23 230 45 113 23
216 43 230 45 14 2 39 7 55 11 17 3 37 7 45 8 8 1 85 16 170 33 85 17 169 33
185 36 17 3 41 8 55 11 14 4 53 11 88 17 77 13 94 34 60 71 -13 13 -99 73
-193 132 -93 59 -186 118 -205 130 -299 195 -791 469 -1080 601 -114 52 -381
163 -405 168 -5 1 -68 21 -139 45 -203 67 -391 108 -616 137 -30 4 -68 14 -85
22 -25 13 -112 15 -596 16 -311 1 -574 -1 -585 -3z"/>
<path d="M14318 39935 c-2 -2 -52 -6 -112 -10 -59 -4 -118 -8 -130 -10 -11 -2
-57 -6 -101 -10 -44 -4 -82 -8 -85 -10 -3 -1 -30 -6 -61 -9 -31 -4 -67 -9 -80
-11 -13 -3 -41 -7 -64 -11 -318 -47 -853 -204 -1150 -338 -27 -13 -79 -36
-115 -52 -346 -151 -796 -425 -1115 -678 -398 -316 -820 -758 -1083 -1134
-231 -332 -550 -859 -807 -1337 -20 -38 -52 -97 -70 -130 -101 -187 -495 -965
-495 -979 0 -2 -29 -64 -64 -137 -86 -182 -101 -215 -238 -524 -65 -148 -123
-279 -128 -290 -5 -11 -41 -96 -80 -190 -39 -93 -75 -179 -80 -190 -21 -44
-203 -504 -279 -705 -46 -118 -86 -224 -91 -235 -15 -35 -91 -239 -95 -255 -2
-8 -44 -125 -93 -260 -176 -482 -412 -1187 -602 -1795 -45 -145 -220 -730
-225 -752 -2 -10 -20 -72 -39 -138 -45 -155 -187 -664 -192 -689 -2 -10 -10
-42 -18 -70 -15 -51 -95 -358 -101 -386 -2 -8 -19 -76 -38 -150 -61 -234 -136
-534 -141 -560 -2 -14 -7 -32 -10 -40 -3 -8 -8 -26 -10 -40 -3 -14 -10 -45
-17 -70 -6 -25 -12 -52 -14 -60 -2 -8 -11 -46 -20 -85 -9 -38 -18 -79 -20 -90
-3 -11 -9 -38 -15 -60 -15 -58 -86 -365 -125 -540 -52 -235 -103 -469 -109
-496 -3 -13 -11 -53 -20 -89 -26 -117 -181 -836 -200 -930 -3 -14 -7 -34 -9
-45 -3 -11 -19 -87 -36 -170 -17 -82 -36 -170 -42 -194 -10 -43 -25 -119 -35
-171 -2 -14 -7 -38 -11 -55 -4 -16 -8 -34 -9 -40 -1 -5 -13 -64 -27 -130 -14
-66 -28 -131 -31 -145 -3 -14 -21 -100 -40 -191 -19 -91 -37 -176 -40 -190 -2
-13 -23 -112 -45 -219 -23 -107 -43 -204 -45 -215 -3 -11 -13 -63 -25 -115
-50 -232 -110 -521 -117 -565 -3 -16 -9 -46 -14 -65 -5 -19 -12 -57 -16 -85
-3 -27 -8 -53 -10 -56 -1 -3 -6 -28 -9 -55 -4 -27 -8 -56 -10 -64 -2 -8 -7
-41 -10 -73 -4 -32 -8 -66 -10 -77 -16 -84 -22 -438 -11 -640 10 -179 11 -191
37 -395 14 -109 60 -369 73 -413 3 -9 8 -30 10 -47 8 -45 80 -346 158 -660 38
-154 72 -291 74 -304 3 -13 16 -69 30 -125 15 -55 28 -109 30 -118 44 -194 98
-393 113 -417 20 -31 103 -12 115 26 8 27 34 154 46 224 13 83 19 118 26 151
3 15 7 41 9 58 3 18 7 39 9 49 3 9 8 33 10 53 4 33 18 114 32 188 7 38 44 251
50 285 3 17 20 118 39 225 19 107 37 211 40 230 3 19 10 62 16 95 6 33 12 71
14 85 3 14 7 36 10 50 7 39 14 75 35 205 11 66 25 140 30 165 7 36 66 365 84
470 2 14 13 77 25 140 12 63 30 165 41 225 26 145 99 545 104 570 2 11 7 38
11 60 3 22 10 60 15 85 5 25 16 86 25 135 9 50 27 146 40 215 14 69 27 141 30
160 3 19 8 42 10 50 3 8 7 31 9 50 3 19 8 46 11 60 3 14 9 50 15 80 6 30 12
66 15 80 3 14 7 36 10 50 2 14 9 50 15 80 6 30 13 64 15 75 2 18 6 36 19 100
2 11 11 58 20 105 17 91 20 107 36 185 5 28 12 61 14 75 11 62 56 289 65 330
6 25 12 56 15 70 2 14 20 104 40 200 19 96 37 186 40 200 2 14 9 45 15 70 5
25 12 56 15 70 2 14 19 95 36 180 18 85 34 166 37 180 2 14 9 45 14 70 14 59
18 80 24 112 3 16 12 58 21 95 9 38 17 75 19 84 2 9 13 61 25 115 12 55 24
109 26 122 3 13 23 105 45 205 22 100 42 189 44 197 20 90 82 357 101 435 21
85 32 134 59 255 2 8 11 44 20 80 9 36 19 76 22 90 2 14 20 85 39 159 19 74
36 144 38 155 2 12 18 75 36 141 31 116 36 138 45 180 3 11 43 162 90 335 47
173 87 322 89 330 5 17 109 385 126 440 5 19 35 121 65 225 31 105 60 201 65
215 6 14 12 34 14 45 2 11 11 43 20 70 8 28 38 124 66 215 82 263 98 316 152
480 27 85 51 160 52 165 4 20 178 540 187 560 5 11 15 40 23 65 8 25 44 131
81 235 36 105 79 226 94 270 42 119 191 525 206 560 7 17 36 93 65 170 28 77
56 150 61 163 5 12 13 32 18 45 5 12 75 187 155 389 170 427 396 961 556 1313
17 39 41 90 52 115 241 531 601 1265 763 1555 231 413 515 818 769 1095 189
206 495 484 691 627 147 106 391 260 500 315 17 8 66 33 110 56 177 89 297
139 515 213 121 42 380 115 471 133 13 2 49 10 79 16 30 6 70 13 89 16 18 3
43 8 55 10 11 2 41 7 66 10 25 3 56 7 70 10 36 6 160 19 270 29 129 11 248 15
420 14 396 -2 382 -2 441 20 30 11 70 32 88 45 17 13 144 133 280 267 136 134
306 300 377 368 123 120 184 185 184 201 0 15 -120 60 -236 89 -137 34 -291
68 -349 76 -22 4 -47 8 -56 11 -9 2 -34 7 -55 9 -22 3 -50 7 -64 10 -14 2 -49
7 -79 10 -30 4 -61 8 -70 10 -9 1 -52 6 -96 9 -44 4 -105 9 -135 12 -56 6
-607 13 -612 9z"/>
<path d="M25318 39665 c-1 -1 -59 -6 -128 -9 -157 -9 -282 -18 -395 -31 -16
-2 -57 -6 -90 -10 -72 -7 -141 -15 -175 -20 -14 -2 -50 -7 -80 -10 -30 -3 -98
-13 -150 -21 -52 -9 -111 -17 -130 -20 -126 -15 -548 -104 -785 -164 -604
-154 -1157 -341 -1765 -597 -241 -102 -682 -312 -875 -418 -33 -18 -94 -50
-135 -72 -117 -63 -341 -192 -472 -272 -14 -9 -48 -29 -75 -45 -114 -68 -590
-381 -603 -396 -3 -3 -36 -28 -75 -55 -82 -57 -369 -277 -419 -320 -6 -5 -51
-44 -101 -85 -602 -502 -1139 -1114 -1623 -1850 -63 -96 -127 -194 -143 -217
-16 -23 -29 -43 -29 -46 0 -3 -26 -47 -59 -98 -228 -364 -547 -983 -708 -1374
-85 -207 -210 -620 -237 -780 -2 -16 -9 -52 -14 -80 -6 -27 -13 -68 -16 -90
-4 -23 -8 -50 -10 -61 -2 -11 -7 -47 -11 -79 -4 -33 -9 -68 -11 -78 -4 -25
-14 -153 -19 -262 -5 -86 -5 -406 -2 -997 2 -274 2 -278 -20 -300 -50 -50 -93
-30 -385 179 -215 153 -270 223 -378 478 -28 66 -55 129 -60 140 -43 94 -177
501 -195 593 -1 9 -8 37 -15 62 -7 25 -14 54 -16 65 -2 11 -6 29 -8 40 -31
149 -50 262 -62 360 -3 33 -8 68 -10 79 -8 42 -18 250 -18 366 0 175 21 468
39 530 2 8 6 33 10 55 8 57 32 195 65 375 16 85 32 171 35 190 3 19 10 53 15
75 5 22 12 60 15 85 4 24 8 47 10 50 2 3 6 21 9 40 3 19 7 44 9 55 3 11 7 36
11 55 3 19 8 46 11 60 3 14 14 72 25 130 11 58 21 114 24 125 48 217 72 380
56 390 -17 11 -150 33 -235 40 -49 3 -101 8 -115 10 -14 1 -63 6 -110 10 -47
4 -98 8 -115 10 -16 2 -64 7 -105 10 -41 3 -91 7 -110 10 -19 2 -72 7 -117 10
-46 3 -91 8 -100 9 -10 2 -53 7 -95 10 -42 4 -85 8 -95 10 -57 11 -171 19
-258 19 -86 1 -108 -3 -156 -25 -67 -31 -109 -73 -149 -153 -23 -47 -67 -186
-85 -270 -1 -5 -7 -30 -14 -55 -13 -47 -70 -259 -191 -710 -104 -388 -119
-440 -142 -498 -18 -43 -25 -51 -41 -46 -11 3 -132 62 -269 130 -137 68 -292
143 -346 165 -89 37 -308 113 -357 124 -11 2 -47 11 -80 19 -103 25 -218 48
-263 52 -24 2 -46 5 -50 8 -17 10 -212 21 -392 20 -178 0 -235 -3 -385 -20
-40 -5 -221 -40 -362 -70 -124 -26 -465 -142 -588 -200 -76 -36 -166 -124
-199 -195 -13 -30 -46 -110 -73 -179 -28 -69 -53 -134 -58 -145 -4 -11 -9 -24
-11 -30 -4 -14 -182 -456 -194 -480 -53 -113 -180 -456 -180 -487 l0 -37 63
23 c62 24 207 87 302 131 81 38 313 140 410 180 50 20 104 43 120 50 17 8 82
35 145 61 421 172 582 225 755 249 110 15 300 21 380 10 17 -2 57 -6 90 -10
77 -7 268 -50 342 -76 32 -11 65 -22 73 -24 65 -15 292 -129 416 -210 241
-156 362 -270 424 -399 39 -81 72 -189 84 -276 3 -25 8 -54 10 -65 2 -11 7
-56 10 -100 4 -44 9 -91 11 -105 2 -14 7 -70 10 -125 4 -55 8 -122 10 -150 2
-27 7 -90 10 -140 4 -49 8 -103 10 -120 2 -16 7 -61 11 -100 4 -38 8 -72 9
-75 1 -3 5 -30 9 -60 5 -30 17 -95 27 -145 42 -200 32 -341 -36 -483 -45 -95
-103 -169 -206 -264 -250 -229 -511 -395 -784 -499 -111 -43 -298 -91 -400
-104 -28 -4 -61 -8 -75 -11 -32 -5 -229 -12 -580 -19 -151 -3 -293 -7 -315
-10 -22 -2 -92 -6 -155 -9 -63 -4 -142 -9 -175 -11 -56 -5 -155 -11 -305 -20
-80 -5 -216 -14 -290 -20 -30 -3 -98 -7 -150 -10 -52 -3 -115 -8 -140 -10 -25
-2 -83 -7 -130 -10 -47 -3 -116 -7 -155 -10 -123 -9 -188 -14 -280 -20 -87 -6
-222 -20 -295 -31 -104 -16 -204 -66 -260 -131 -51 -57 -75 -119 -155 -398
-81 -283 -94 -326 -260 -885 -142 -475 -143 -479 -149 -537 -5 -42 -3 -52 11
-58 17 -6 396 0 548 9 44 3 141 8 215 11 74 3 164 8 200 10 75 4 281 14 425
20 141 6 410 21 550 30 28 2 95 6 150 10 55 4 118 8 140 10 370 30 968 25
1275 -11 30 -3 69 -7 85 -9 28 -3 140 -21 195 -30 41 -8 133 -25 158 -30 13
-2 31 -6 40 -9 9 -3 31 -8 47 -10 17 -3 86 -22 155 -41 69 -20 139 -40 155
-44 70 -19 303 -107 415 -158 207 -93 329 -162 847 -484 147 -91 374 -230 503
-309 129 -79 246 -150 260 -159 14 -9 33 -20 42 -26 10 -5 66 -40 125 -76 59
-36 304 -184 543 -328 239 -145 467 -287 507 -317 136 -104 264 -260 333 -409
29 -64 77 -190 84 -228 3 -12 12 -47 21 -77 9 -30 18 -62 20 -70 2 -8 31 -109
65 -225 34 -115 63 -217 65 -225 1 -8 44 -157 94 -330 51 -173 94 -322 95
-330 2 -8 29 -100 59 -205 31 -104 94 -325 142 -490 113 -392 200 -694 270
-935 32 -107 65 -224 75 -260 9 -36 26 -96 38 -135 49 -167 56 -191 58 -200 1
-5 12 -45 24 -87 11 -43 23 -85 25 -95 27 -135 46 -236 50 -268 30 -252 26
-541 -11 -784 -5 -26 -54 -232 -78 -321 -3 -8 -25 -76 -51 -150 -26 -74 -95
-279 -155 -455 -132 -391 -157 -464 -169 -490 -5 -11 -28 -67 -51 -125 -149
-365 -335 -644 -593 -889 -38 -36 -77 -73 -86 -81 -42 -41 -149 -127 -281
-225 -129 -97 -384 -296 -456 -357 -45 -38 -178 -152 -190 -163 -560 -509
-939 -954 -1251 -1471 -50 -82 -131 -230 -181 -329 -97 -194 -116 -222 -193
-302 -80 -82 -168 -121 -469 -206 -220 -63 -540 -148 -613 -162 -33 -7 -212
-57 -327 -92 -63 -19 -236 -80 -385 -136 -148 -55 -290 -108 -315 -117 -25 -9
-52 -20 -60 -23 -8 -3 -170 -64 -360 -136 -190 -71 -581 -220 -870 -332 -289
-111 -543 -208 -565 -216 -39 -13 -149 -56 -190 -74 -11 -5 -51 -20 -90 -34
-38 -14 -79 -29 -90 -34 -11 -5 -76 -30 -145 -56 -69 -26 -144 -58 -167 -71
-47 -27 -48 -22 2 -130 14 -30 25 -56 25 -59 0 -2 18 -43 41 -92 22 -48 51
-110 64 -138 13 -27 51 -108 85 -180 34 -71 71 -150 82 -174 11 -25 56 -119
99 -209 44 -90 79 -165 79 -167 0 -2 24 -54 54 -117 105 -220 156 -330 156
-334 0 -2 29 -64 64 -137 50 -103 75 -143 111 -176 82 -75 173 -104 330 -103
59 0 195 11 205 17 3 2 34 6 70 10 36 4 67 8 70 10 3 2 34 6 70 10 36 4 67 8
70 10 3 2 34 6 70 10 36 4 68 9 71 10 3 2 37 7 75 10 38 4 71 8 74 10 3 2 30
6 60 9 30 4 66 9 80 11 14 3 41 7 60 10 19 3 46 7 60 10 14 2 50 7 80 10 30 3
62 8 70 10 8 2 35 7 60 10 25 3 70 10 100 15 30 5 69 11 85 14 17 2 74 12 129
21 266 44 366 0 502 -218 31 -51 67 -108 79 -127 12 -19 118 -192 235 -385
117 -192 280 -460 363 -595 82 -135 180 -294 217 -355 37 -60 116 -189 175
-285 59 -96 116 -190 126 -208 11 -18 60 -99 109 -180 50 -81 95 -154 99 -162
5 -8 58 -94 118 -190 59 -96 113 -183 118 -192 95 -163 207 -324 259 -372 46
-43 112 -69 186 -72 397 -16 561 -19 965 -18 639 1 915 8 942 22 43 23 44 18
-105 347 -54 121 -109 243 -122 270 -12 28 -33 75 -47 105 -14 30 -54 120 -90
200 -36 80 -75 168 -88 195 -12 28 -48 109 -80 180 -31 72 -65 148 -75 170
-10 22 -62 144 -115 270 -53 127 -103 244 -110 260 -13 30 -123 293 -257 620
-146 355 -160 408 -153 590 2 66 6 129 9 140 2 11 9 43 15 70 35 157 136 388
215 492 52 68 137 147 219 202 64 44 59 41 232 131 77 40 185 96 240 125 55
29 152 80 215 113 63 32 156 81 205 107 50 26 137 72 195 102 58 31 146 77
195 103 50 26 133 70 185 97 52 28 136 72 185 98 315 167 381 191 457 166 51
-17 114 -85 153 -166 81 -166 176 -444 205 -595 33 -172 33 -435 0 -584 -5
-22 -11 -52 -14 -66 -2 -14 -19 -74 -36 -135 -17 -60 -51 -186 -75 -280 -24
-93 -51 -197 -60 -230 -24 -93 -101 -424 -111 -480 -3 -16 -14 -75 -24 -130
-20 -110 -26 -145 -46 -295 -11 -86 -12 -93 -20 -202 -12 -176 -8 -396 12
-548 9 -74 41 -252 50 -282 3 -9 7 -25 9 -35 58 -273 209 -598 399 -863 54
-75 173 -227 201 -256 5 -6 51 -55 100 -110 50 -54 119 -130 155 -169 36 -39
88 -96 115 -126 28 -30 88 -97 135 -148 47 -52 92 -102 101 -112 19 -22 187
-206 209 -229 8 -8 44 -49 80 -89 36 -41 79 -88 95 -105 17 -17 66 -71 110
-120 44 -49 91 -101 105 -116 14 -14 54 -59 90 -100 36 -40 81 -90 100 -110
19 -21 67 -73 106 -116 105 -117 479 -530 577 -638 40 -44 102 -135 96 -140
-5 -5 -601 -194 -634 -202 -31 -7 -1000 -308 -1339 -416 l-188 -60 33 -35 c19
-19 104 -88 189 -153 85 -64 254 -197 375 -293 130 -105 251 -193 296 -216
192 -101 386 -111 624 -33 44 14 85 27 90 28 6 2 71 24 145 49 215 73 891 279
984 300 6 1 18 4 26 8 44 16 472 130 510 135 80 11 203 5 265 -13 80 -24 139
-54 270 -140 102 -67 361 -225 369 -225 1 0 55 -29 118 -64 270 -149 666 -326
1025 -460 199 -74 573 -197 673 -221 3 0 30 -8 60 -17 114 -34 492 -127 620
-153 8 -2 60 -12 115 -24 93 -19 282 -54 350 -65 17 -3 84 -14 150 -25 131
-22 263 -41 310 -46 17 -2 49 -6 73 -9 107 -15 285 -36 442 -51 36 -3 81 -8
100 -10 19 -2 64 -7 100 -10 36 -3 94 -7 130 -11 84 -7 151 -12 280 -19 58 -3
125 -8 150 -10 235 -20 812 -27 935 -12 33 4 80 10 105 13 40 5 110 16 190 31
544 99 1064 362 1539 778 271 238 641 648 641 711 0 7 -69 -3 -150 -21 -100
-23 -350 -74 -384 -79 -21 -4 -41 -8 -45 -10 -3 -2 -22 -7 -41 -10 -19 -3 -71
-12 -114 -21 -44 -8 -93 -18 -110 -20 -17 -3 -42 -8 -56 -10 -56 -11 -79 -16
-160 -30 -47 -7 -105 -17 -130 -20 -25 -4 -83 -13 -130 -20 -95 -16 -98 -16
-305 -44 -82 -11 -175 -23 -205 -26 -30 -3 -66 -8 -80 -10 -14 -2 -56 -6 -95
-10 -38 -4 -83 -8 -100 -10 -38 -5 -156 -16 -220 -20 -27 -2 -88 -6 -135 -10
-206 -15 -560 -27 -775 -28 -147 0 -540 12 -588 18 -16 2 -79 6 -140 10 -62 4
-128 8 -147 10 -89 8 -177 17 -200 20 -14 2 -56 7 -95 11 -38 3 -73 8 -76 10
-3 1 -37 6 -75 9 -38 4 -72 9 -75 11 -3 1 -32 6 -65 9 -32 4 -61 8 -64 10 -3
2 -30 6 -60 10 -30 4 -57 8 -60 10 -3 2 -26 6 -50 10 -25 3 -52 8 -60 10 -8 2
-31 7 -50 10 -29 5 -220 47 -390 85 -147 33 -640 178 -715 210 -11 5 -47 17
-80 28 -33 11 -91 32 -130 47 -38 15 -81 31 -95 35 -127 42 -660 280 -761 340
l-70 41 20 27 c43 61 54 66 561 282 184 78 355 151 380 162 25 11 54 24 65 29
11 5 326 139 700 299 374 160 694 297 710 305 96 44 299 126 350 141 89 26
220 25 319 -1 260 -69 1009 -290 1054 -310 l52 -24 -157 -213 c-144 -193 -556
-742 -586 -778 -22 -28 -392 -524 -417 -560 -13 -19 -28 -38 -33 -41 -8 -6 45
-53 61 -54 8 -1 104 -18 112 -20 4 -1 34 -7 115 -21 11 -2 40 -8 65 -14 51
-11 59 -12 225 -39 181 -30 212 -33 315 -32 101 1 107 1 215 27 81 20 215 86
291 145 47 36 129 119 174 175 63 79 179 227 195 249 173 236 303 441 393 620
79 158 159 236 276 270 49 14 81 16 185 10 69 -3 128 -8 131 -10 3 -2 41 -6
85 -9 108 -7 204 -16 240 -21 90 -14 193 -19 400 -19 272 -1 398 11 665 60 47
9 96 18 110 21 52 9 358 75 435 94 44 10 89 21 100 23 11 3 47 12 80 21 33 9
67 18 75 20 332 75 992 290 1540 501 107 41 204 79 215 84 11 5 88 37 170 70
83 34 168 70 190 80 22 9 81 34 130 55 50 20 108 45 130 55 22 10 101 45 175
78 74 33 160 71 190 85 30 14 105 47 165 75 61 28 151 69 200 92 50 23 117 55
150 70 33 15 127 60 208 99 82 39 150 71 152 71 15 0 198 115 270 170 242 183
426 421 589 761 68 143 100 221 251 619 53 140 113 296 132 345 115 297 121
322 71 318 -50 -3 -143 -58 -323 -191 -99 -73 -187 -139 -195 -145 -8 -7 -89
-65 -180 -128 -519 -364 -1073 -700 -1620 -982 -85 -43 -159 -82 -165 -85 -22
-14 -391 -189 -535 -254 -85 -39 -186 -85 -225 -103 -38 -17 -92 -40 -118 -50
-26 -10 -50 -22 -53 -26 -3 -5 -11 -9 -19 -9 -7 0 -43 -14 -78 -30 -36 -17
-68 -30 -72 -30 -3 0 -30 -11 -58 -23 -29 -13 -131 -54 -227 -92 -96 -37 -184
-71 -195 -76 -55 -23 -313 -115 -505 -179 -451 -150 -790 -236 -1095 -276 -27
-3 -59 -8 -70 -10 -11 -2 -51 -7 -90 -10 -38 -3 -81 -7 -95 -10 -98 -16 -478
-22 -730 -10 -279 13 -305 16 -343 46 -21 17 -24 25 -17 48 9 32 65 173 85
219 8 17 15 34 15 38 0 4 6 21 14 38 8 18 28 70 46 117 18 47 41 104 52 127
10 23 18 48 18 56 0 7 3 17 6 20 4 4 62 145 129 314 l122 308 -28 39 c-34 47
-75 76 -109 76 -22 0 -188 -95 -473 -272 -50 -32 -99 -61 -107 -65 -25 -12
-584 -359 -677 -419 -105 -69 -312 -218 -370 -266 -56 -47 -120 -64 -183 -50
-63 15 -222 91 -215 103 7 10 99 72 155 103 43 23 381 206 470 253 36 19 126
67 200 107 523 282 1033 534 1400 693 297 128 574 271 870 446 435 258 789
565 1096 950 73 91 203 288 267 402 87 158 247 523 247 566 0 8 3 19 8 23 4 4
7 11 8 14 0 4 3 14 7 22 8 19 73 265 81 305 4 17 9 41 12 55 13 61 33 168 38
203 4 22 11 58 16 80 5 23 21 98 36 167 14 68 37 147 50 176 31 67 98 141 168
183 45 27 213 87 296 106 8 2 51 15 95 28 117 37 182 48 275 49 101 0 241 -31
345 -77 19 -8 50 -21 68 -29 65 -29 254 -117 455 -212 63 -30 117 -52 121 -50
15 10 62 129 101 256 23 74 50 160 60 190 10 30 36 111 58 180 22 69 76 238
120 375 163 506 284 885 302 950 4 17 16 55 26 85 10 30 18 57 19 60 1 3 7 23
13 45 16 54 17 52 -25 60 -62 12 -74 13 -163 20 -47 3 -107 8 -135 10 -27 2
-81 7 -120 10 -38 3 -92 8 -120 10 -27 2 -81 7 -120 10 -38 3 -88 8 -110 10
-22 2 -67 7 -100 10 -33 3 -71 8 -85 10 -14 2 -52 6 -85 10 -32 4 -68 9 -80
11 -11 2 -38 7 -60 9 -22 3 -62 10 -90 15 -27 5 -61 11 -75 14 -14 2 -64 13
-112 25 -48 11 -98 23 -110 25 -41 8 -201 56 -293 87 -226 78 -418 165 -630
284 -71 40 -152 85 -180 100 -169 94 -536 273 -637 311 -24 9 -52 20 -63 25
-39 17 -181 60 -275 83 -111 28 -167 39 -265 51 -141 17 -210 29 -305 51 -36
9 -73 17 -83 19 -115 24 -381 126 -522 200 -146 76 -332 194 -420 266 -261
215 -341 290 -564 527 -145 156 -466 478 -647 649 -163 154 -176 166 -350 328
-181 168 -255 246 -305 321 -25 38 -128 231 -229 429 -262 516 -749 1486 -792
1580 -69 149 -130 280 -158 340 -53 112 -198 439 -270 610 -40 94 -78 184 -85
200 -50 113 -311 787 -320 825 -2 8 -19 58 -38 110 -133 369 -307 933 -393
1270 -2 8 -14 58 -28 110 -35 137 -37 152 -41 295 -6 208 34 361 131 507 92
138 233 255 439 364 134 72 237 115 560 239 55 21 114 44 130 50 17 7 68 27
115 45 47 17 94 36 105 41 11 5 97 38 190 74 94 36 179 70 190 75 11 5 184 75
385 155 201 80 379 152 395 160 17 7 120 50 230 95 110 46 218 90 240 100 22
10 69 30 105 45 36 15 79 33 95 40 17 7 89 38 160 68 72 30 236 101 365 157
295 128 284 123 290 125 3 1 36 16 74 33 38 18 71 32 73 32 20 0 536 264 648
331 17 10 46 28 65 39 108 63 422 279 450 310 3 3 28 23 55 44 226 179 507
481 657 708 85 128 202 227 333 282 33 13 134 48 225 76 237 74 276 85 365
110 44 12 100 28 125 36 126 38 513 121 650 139 25 3 56 8 70 10 14 2 53 6 88
9 34 3 90 9 125 12 183 17 504 1 717 -36 30 -5 71 -12 90 -15 19 -3 42 -8 50
-10 8 -2 30 -7 49 -10 19 -3 37 -8 41 -10 3 -2 17 -6 31 -9 43 -9 90 -23 289
-81 107 -32 238 -70 290 -85 52 -16 158 -47 235 -70 77 -23 147 -43 155 -45 8
-2 16 -4 18 -5 1 -2 5 -3 10 -4 25 -7 120 -35 282 -83 411 -122 493 -144 508
-134 6 4 13 20 16 36 2 17 11 73 20 125 8 52 18 122 21 155 3 33 8 80 11 105
7 60 6 275 -1 323 -3 20 -7 54 -10 74 -23 158 -121 309 -256 396 -186 119
-610 266 -999 347 -25 5 -56 12 -70 15 -14 3 -38 7 -55 10 -16 3 -41 8 -55 10
-14 3 -41 7 -60 10 -19 3 -46 7 -60 10 -14 3 -45 8 -70 11 -25 3 -52 7 -60 9
-8 1 -40 6 -70 10 -195 24 -423 72 -553 116 -60 21 -1112 421 -1152 439 -40
18 -421 162 -437 165 -9 2 -25 8 -35 13 -74 39 -506 169 -718 217 -153 34
-161 36 -302 60 -25 4 -116 16 -228 30 -195 25 -613 24 -800 -1 -22 -3 -53 -7
-70 -9 -138 -17 -340 -61 -500 -110 -389 -118 -739 -301 -1090 -571 -300 -229
-507 -326 -785 -368 -169 -26 -471 -24 -630 3 -30 5 -71 12 -90 15 -116 20
-348 99 -472 162 -149 74 -318 213 -371 304 -33 58 -57 124 -62 175 -6 55 -7
175 -1 201 2 12 7 39 10 60 4 21 14 66 22 99 9 33 17 67 19 75 13 62 99 277
150 377 110 213 217 357 431 577 20 20 157 142 249 220 280 240 818 625 1085
778 196 111 417 208 635 278 98 31 276 78 325 86 14 2 36 7 50 10 14 3 41 8
60 10 19 3 42 6 50 9 8 2 38 7 65 11 28 3 59 8 70 10 10 2 37 6 58 9 34 5 395
79 437 90 8 2 49 10 90 19 41 8 86 18 100 20 97 21 242 55 246 59 9 9 -47 142
-110 262 -60 114 -102 193 -239 455 -33 63 -80 153 -105 200 -24 47 -74 141
-110 210 -35 69 -82 157 -102 195 -20 39 -70 133 -110 210 -40 77 -84 160 -98
185 -108 198 -244 291 -412 285 -106 -5 -165 -19 -455 -115 -71 -23 -157 -51
-190 -60 -33 -10 -105 -33 -160 -50 -329 -104 -1059 -298 -1187 -316 -243 -33
-504 18 -727 143 -140 78 -188 119 -421 356 -311 318 -1917 1917 -2422 2412
-481 472 -562 543 -688 609 -171 88 -268 70 -475 -92 -5 -4 -95 -68 -200 -142
-104 -74 -194 -138 -200 -143 -5 -4 -149 -107 -320 -229 -275 -196 -340 -247
-340 -269 0 -6 142 -162 291 -319 176 -185 243 -256 284 -300 23 -25 107 -112
185 -195 79 -82 162 -170 185 -195 23 -25 106 -112 184 -194 77 -81 164 -172
191 -201 188 -198 367 -386 410 -430 294 -304 513 -535 568 -599 23 -27 47
-54 52 -60 6 -6 35 -40 65 -76 30 -36 57 -67 60 -70 11 -11 190 -240 262 -335
152 -203 458 -647 458 -665 0 -23 -195 -203 -602 -555 -145 -125 -290 -251
-323 -280 -343 -298 -508 -422 -599 -446 -42 -11 -95 -5 -136 16 -68 35 -246
247 -443 526 -21 30 -92 131 -158 224 -66 94 -131 186 -143 205 -24 35 -141
201 -300 425 -47 66 -134 190 -195 275 -463 655 -628 854 -966 1165 -66 61
-144 133 -174 160 -30 28 -69 64 -86 80 -18 17 -69 64 -115 105 -45 41 -101
92 -124 113 -22 21 -53 44 -68 52 l-27 15 -90 -122 c-186 -253 -622 -900 -756
-1121 -107 -178 -104 -169 -80 -201 8 -10 86 -91 173 -180 130 -133 278 -295
406 -446 259 -306 557 -732 817 -1170 20 -34 73 -128 104 -185 18 -33 49 -89
69 -125 53 -96 266 -526 330 -667 70 -155 87 -221 87 -338 -1 -183 -28 -227
-222 -366 -312 -222 -543 -339 -801 -405 -212 -53 -403 -35 -694 67 -108 37
-310 141 -390 199 -381 279 -618 706 -678 1225 -21 179 -28 532 -14 720 38
496 185 973 441 1425 68 119 386 600 454 685 5 6 30 42 58 80 175 249 1632
2194 1675 2235 3 3 30 34 60 70 144 172 421 449 584 585 27 22 54 45 60 51 31
29 267 208 358 270 289 200 681 406 998 524 151 57 514 171 650 205 8 2 60 16
115 30 386 99 912 208 1155 240 25 3 56 8 70 10 56 10 281 38 385 49 82 9 264
26 330 31 40 3 282 17 370 21 105 5 587 5 690 -1 156 -7 345 -21 403 -29 20
-3 60 -8 87 -11 28 -3 64 -7 80 -9 17 -2 55 -7 85 -11 30 -3 62 -8 70 -10 8
-2 35 -7 60 -10 25 -3 52 -8 60 -10 8 -2 31 -7 50 -10 159 -27 579 -130 855
-210 536 -156 1214 -410 1705 -637 41 -19 102 -48 135 -63 423 -196 868 -433
1258 -669 92 -55 175 -105 185 -111 74 -42 513 -332 661 -437 83 -58 314 -225
326 -236 6 -4 26 -19 45 -32 19 -14 37 -27 40 -30 3 -3 43 -35 90 -70 46 -36
96 -75 110 -86 14 -12 63 -54 110 -94 142 -120 272 -251 420 -420 36 -41 74
-85 85 -96 11 -12 45 -50 75 -84 30 -35 64 -73 75 -86 11 -12 43 -48 70 -80
28 -32 57 -65 65 -74 8 -9 42 -47 75 -85 32 -39 66 -77 75 -86 8 -9 24 -27 34
-40 103 -126 551 -635 590 -671 66 -61 121 -90 351 -182 105 -42 199 -81 210
-86 111 -52 861 -350 886 -352 l34 -3 3 50 c2 28 -4 74 -14 105 -24 78 -462
936 -500 980 -7 8 -14 20 -15 25 -1 6 -7 19 -14 30 -6 11 -49 83 -95 160 -116
196 -343 533 -437 650 -7 8 -38 48 -90 115 -56 72 -222 266 -308 359 -505 546
-1322 1199 -2091 1671 -732 450 -1375 787 -2164 1135 -581 256 -1042 439
-1405 558 -204 67 -588 175 -716 201 -23 5 -153 33 -194 42 -11 3 -42 9 -70
14 -27 6 -61 12 -75 15 -14 3 -50 9 -80 15 -30 6 -66 12 -80 15 -26 5 -92 16
-125 20 -11 2 -83 12 -160 24 -77 11 -165 23 -195 26 -30 4 -66 8 -80 10 -14
2 -59 7 -100 10 -41 4 -91 9 -110 11 -19 2 -78 6 -130 9 -52 4 -113 9 -135 11
-45 6 -881 14 -887 9z m-369 -25461 c97 -28 165 -85 202 -170 32 -71 37 -131
25 -314 -4 -58 -9 -145 -11 -195 -15 -307 -23 -447 -30 -495 -2 -14 -6 -59
-10 -100 -16 -196 -24 -261 -51 -445 -5 -32 -21 -127 -28 -160 -43 -215 -146
-463 -274 -655 -198 -298 -521 -571 -911 -769 -101 -51 -332 -149 -365 -155
-73 -13 -461 -194 -609 -285 -37 -22 -70 -41 -73 -41 -3 0 -20 -11 -38 -25
-18 -14 -36 -25 -39 -25 -9 0 -112 -64 -115 -72 -2 -5 -7 -8 -12 -8 -7 0 -87
-48 -560 -338 -85 -52 -164 -100 -175 -106 -11 -6 -31 -19 -45 -27 -14 -9 -99
-61 -190 -116 -91 -55 -280 -170 -420 -255 -140 -85 -282 -170 -315 -188 -33
-18 -76 -42 -95 -53 -86 -49 -337 -170 -459 -222 -150 -64 -258 -104 -471
-175 -228 -76 -454 -168 -519 -211 -119 -80 -217 -220 -242 -349 -32 -166 8
-353 112 -527 54 -89 104 -139 178 -176 118 -58 242 -47 464 39 201 79 1175
465 1217 484 25 10 88 35 140 56 52 20 181 70 285 111 424 167 531 208 775
299 427 159 497 184 735 263 210 70 447 138 539 155 603 112 1172 372 1751
801 98 73 874 594 1174 789 118 77 112 78 214 -28 90 -93 233 -277 488 -631
248 -346 356 -474 473 -564 l53 -41 49 13 c43 11 105 44 388 202 83 46 141 81
218 131 327 213 547 360 569 380 37 35 70 114 134 319 60 192 136 402 181 500
15 33 27 63 26 67 -1 3 5 12 13 18 8 7 15 17 15 23 0 13 61 132 108 212 46 77
92 135 167 210 88 88 102 95 430 185 318 88 336 92 351 69 4 -7 8 -82 9 -168
5 -334 -72 -574 -241 -753 -48 -50 -110 -107 -141 -128 -25 -17 -286 -201
-436 -307 -56 -40 -106 -76 -112 -80 -5 -4 -28 -20 -50 -35 -22 -14 -83 -56
-135 -92 -219 -153 -619 -414 -810 -529 -297 -180 -644 -380 -810 -469 -30
-16 -77 -41 -105 -56 -199 -109 -404 -214 -1060 -547 -214 -109 -489 -248
-610 -310 -540 -275 -522 -267 -559 -255 -18 6 -66 42 -107 81 -70 66 -207
192 -253 232 -12 10 -32 28 -46 40 -22 20 -169 143 -225 189 -11 9 -58 46
-105 82 -47 36 -89 69 -95 74 -32 26 -233 168 -308 217 -159 103 -223 112
-391 55 -47 -16 -86 -27 -86 -25 0 3 -12 0 -27 -6 -27 -10 -264 -82 -328 -99
-55 -14 -439 -133 -690 -213 -77 -25 -212 -68 -300 -96 -88 -28 -166 -55 -174
-60 -21 -13 3 -66 43 -93 30 -21 486 -377 529 -413 19 -17 425 -336 483 -380
95 -73 499 -393 524 -415 14 -12 44 -38 68 -58 43 -36 43 -36 20 -48 -36 -20
-111 -49 -283 -109 -88 -31 -209 -74 -270 -95 -134 -47 -448 -157 -605 -211
-63 -22 -124 -44 -135 -49 -11 -5 -60 -23 -110 -39 -49 -17 -108 -37 -130 -45
-22 -8 -110 -39 -195 -69 -162 -58 -283 -101 -586 -210 -208 -74 -227 -79
-309 -82 -128 -4 -208 34 -395 188 -8 7 -157 126 -330 266 -173 140 -317 257
-320 260 -3 4 -43 37 -90 75 -47 38 -90 74 -95 80 -6 6 -30 27 -55 46 -36 28
-467 387 -580 484 -14 11 -65 54 -113 94 -196 166 -268 259 -322 417 -21 60
-28 212 -14 275 6 25 12 53 14 63 14 66 69 182 148 309 205 331 354 592 458
800 78 158 113 212 177 274 91 89 161 85 375 -20 151 -75 177 -85 312 -124 86
-25 93 -27 250 -62 132 -28 161 -31 204 -15 37 13 58 25 299 166 79 46 157 92
175 103 18 10 84 49 147 86 63 37 131 77 150 88 31 17 231 137 270 161 8 5 87
53 175 107 88 53 186 114 218 136 32 21 60 38 62 38 9 0 284 177 320 206 l39
32 -25 58 c-14 33 -81 149 -149 259 -147 238 -151 246 -206 356 -97 196 -166
401 -200 599 -27 158 -35 378 -21 547 12 136 52 351 87 468 93 305 196 518
370 765 144 203 261 311 425 393 123 61 227 86 420 102 107 9 175 15 233 20
87 8 153 14 227 20 39 3 93 8 120 10 28 3 84 7 125 10 41 3 95 7 120 9 25 2
83 7 130 11 47 3 105 8 130 10 25 2 97 7 160 10 63 4 116 8 118 9 8 8 145 -6
191 -20z"/>
<path d="M17785 39063 c-232 -29 -472 -136 -683 -304 -149 -119 -352 -340
-352 -384 0 -8 76 -36 355 -135 44 -16 125 -45 180 -65 55 -20 111 -40 125
-45 14 -5 81 -28 150 -53 475 -171 672 -242 720 -259 30 -11 168 -60 305 -110
302 -110 325 -116 409 -113 67 2 161 39 214 82 12 10 36 28 54 41 187 131 276
194 517 362 161 113 286 207 296 223 9 16 15 29 13 30 -22 14 -138 67 -144 67
-5 0 -132 49 -284 109 -1148 455 -1273 501 -1468 537 -80 15 -338 25 -407 17z"/>
<path d="M25327 38334 c-1 -1 -51 -5 -112 -8 -60 -4 -128 -9 -150 -11 -22 -3
-80 -7 -130 -10 -49 -4 -103 -8 -120 -10 -29 -4 -80 -8 -255 -21 -47 -3 -86
-7 -87 -8 -1 -1 11 -19 28 -39 44 -54 159 -143 604 -472 610 -451 832 -616
1175 -874 388 -293 443 -334 450 -341 3 -3 46 -37 95 -75 207 -159 516 -409
685 -553 41 -36 86 -74 100 -86 367 -311 897 -835 1130 -1116 34 -41 69 -84
78 -95 10 -11 40 -49 67 -85 28 -36 52 -67 55 -70 19 -17 222 -313 294 -427
66 -106 179 -311 238 -434 60 -122 198 -431 198 -442 0 -3 15 -38 34 -79 19
-40 55 -122 81 -183 25 -60 52 -123 60 -140 7 -16 97 -226 200 -465 102 -239
193 -450 201 -467 8 -18 21 -49 29 -68 8 -19 21 -50 29 -67 8 -18 93 -215 189
-438 200 -464 407 -932 444 -1005 78 -154 167 -224 353 -275 36 -10 184 -55
330 -100 513 -158 555 -171 570 -174 8 -2 96 -29 195 -59 99 -30 272 -83 385
-117 113 -34 228 -69 255 -78 69 -22 75 -23 107 -6 l28 14 -19 48 c-23 56 -60
139 -108 242 -19 41 -64 138 -98 215 -35 77 -76 169 -93 205 -16 36 -57 130
-91 210 -34 80 -68 159 -76 175 -7 17 -28 66 -45 110 -17 44 -38 94 -45 110
-13 29 -100 256 -146 380 -70 190 -222 528 -380 845 -238 477 -467 859 -942
1570 -83 124 -163 243 -179 265 -16 22 -93 128 -171 236 -157 217 -156 217
-277 372 -47 60 -96 124 -110 142 -109 141 -370 452 -565 671 -262 295 -790
827 -995 1004 -14 12 -45 40 -70 63 -25 23 -88 80 -140 127 -52 47 -100 90
-106 95 -81 73 -201 178 -399 350 -132 113 -253 219 -270 234 -16 15 -151 130
-300 256 -148 125 -283 239 -300 254 -16 14 -82 69 -145 121 -63 52 -121 100
-128 107 -7 7 -39 32 -70 56 -231 178 -565 330 -827 376 -33 6 -69 13 -80 15
-20 4 -69 10 -175 22 -49 6 -478 13 -483 8z"/>
<path d="M11326 36924 c-103 -26 -166 -76 -240 -191 -25 -39 -46 -74 -46 -77
0 -3 -13 -24 -29 -48 -16 -24 -38 -59 -49 -78 -11 -19 -57 -94 -103 -167 -299
-470 -369 -587 -369 -611 0 -5 151 -6 343 -4 898 13 2097 6 2377 -13 36 -2
126 -7 200 -11 74 -3 160 -7 190 -9 99 -6 264 -16 305 -20 22 -1 85 -6 140
-10 55 -4 116 -9 135 -11 19 -1 69 -6 110 -9 41 -3 93 -8 115 -10 22 -2 76 -7
120 -10 163 -14 274 -24 315 -30 14 -2 59 -6 100 -10 41 -3 118 -10 170 -16
52 -5 118 -12 145 -15 51 -5 80 -8 170 -19 87 -10 129 -14 180 -20 28 -3 66
-7 85 -10 33 -4 84 -11 160 -20 19 -2 71 -9 115 -14 44 -6 105 -13 135 -16 30
-3 66 -8 80 -10 14 -2 46 -6 73 -9 26 -3 68 -9 95 -12 26 -3 58 -7 72 -9 14
-2 52 -7 85 -11 33 -3 67 -8 76 -9 9 -2 40 -6 70 -10 30 -3 80 -10 111 -16 71
-12 169 -14 228 -4 88 14 192 84 259 175 14 19 44 58 66 86 22 28 54 68 70 89
17 21 111 141 210 266 99 125 185 244 191 263 l10 34 -85 25 c-47 14 -131 39
-186 55 -55 17 -185 55 -290 86 -104 31 -201 60 -215 65 -14 5 -50 16 -80 25
-30 9 -131 38 -224 66 -93 28 -179 52 -190 55 -12 2 -55 13 -96 24 -191 52
-443 99 -626 116 -60 6 -91 8 -344 20 -74 3 -166 8 -205 10 -38 3 -124 7 -190
10 -66 3 -158 7 -205 10 -47 2 -141 7 -210 10 -355 15 -335 14 -885 31 -77 2
-473 6 -880 9 -407 2 -864 7 -1015 11 -151 3 -325 7 -386 8 -61 1 -132 -3
-158 -10z"/>
<path d="M9220 36814 c-91 -12 -187 -25 -215 -29 -27 -4 -63 -9 -80 -11 -16
-2 -41 -6 -55 -10 -14 -3 -37 -7 -51 -9 -14 -2 -100 -20 -190 -40 -447 -101
-868 -262 -1240 -475 -67 -38 -124 -70 -126 -70 -6 0 -370 -234 -463 -299
-305 -209 -658 -485 -889 -696 -25 -22 -72 -65 -105 -95 -68 -61 -491 -483
-548 -547 -384 -428 -654 -788 -920 -1228 -43 -71 -83 -137 -88 -145 -6 -8
-13 -21 -17 -29 -3 -7 -35 -66 -70 -130 -59 -106 -253 -494 -253 -505 0 -2
-15 -37 -34 -78 -172 -373 -404 -1075 -490 -1488 -45 -215 -86 -413 -90 -431
-6 -37 -15 -90 -21 -129 -2 -19 -7 -46 -10 -60 -3 -14 -15 -83 -26 -155 -11
-71 -21 -137 -24 -145 -2 -8 -7 -44 -10 -80 -4 -36 -8 -67 -10 -70 -2 -3 -6
-30 -9 -60 -3 -30 -8 -64 -10 -75 -2 -11 -7 -45 -10 -76 -4 -31 -8 -65 -10
-75 -2 -11 -7 -46 -10 -79 -11 -95 -16 -138 -21 -165 -2 -14 -7 -54 -10 -90
-3 -36 -8 -81 -10 -100 -46 -395 -58 -944 -30 -1400 3 -52 8 -113 10 -135 2
-22 7 -67 10 -100 3 -33 8 -78 10 -100 3 -22 7 -58 9 -80 15 -137 58 -335 73
-335 3 0 55 40 117 88 61 49 167 131 236 183 69 52 130 99 136 104 6 6 75 55
154 110 162 114 251 202 297 296 75 156 88 264 70 609 -18 367 -21 445 -21
700 0 320 9 481 40 725 23 182 23 184 40 280 21 123 21 127 28 155 3 14 8 36
10 50 2 14 18 86 36 160 18 74 34 143 35 153 2 10 9 32 14 50 6 18 22 73 37
122 41 140 101 321 142 425 20 52 37 97 38 100 0 3 5 16 11 30 6 14 20 48 31
76 94 237 352 747 502 994 92 151 223 358 279 440 66 98 219 317 234 335 4 6
47 63 96 127 529 702 1061 1217 1671 1616 80 52 157 103 172 113 15 11 30 19
33 19 3 0 24 11 46 26 40 25 53 32 164 94 209 116 588 287 775 350 138 47 265
134 328 226 18 26 119 210 286 519 18 33 81 148 140 256 104 192 145 284 132
297 -18 17 -125 16 -276 -4z"/>
<path d="M32487 33914 c-1 -1 -90 -5 -197 -8 -107 -4 -231 -9 -275 -11 -194
-11 -505 -25 -663 -30 -160 -5 -185 -26 -146 -121 94 -227 202 -425 310 -569
173 -231 379 -346 679 -380 33 -4 69 -9 80 -11 19 -4 158 -5 530 -2 139 1 353
-7 435 -16 19 -3 65 -7 102 -11 37 -3 77 -8 90 -10 13 -2 64 -9 113 -15 188
-24 581 -107 665 -140 14 -6 34 -12 45 -15 11 -2 70 -22 130 -43 472 -167 887
-410 1295 -758 14 -12 59 -50 100 -85 41 -35 89 -75 105 -90 17 -14 75 -66
130 -114 460 -404 963 -925 1305 -1354 19 -24 47 -58 61 -75 27 -33 209 -278
269 -362 19 -27 76 -114 128 -194 52 -80 102 -157 113 -172 10 -15 19 -29 19
-32 0 -2 18 -34 41 -71 83 -137 246 -449 309 -590 12 -27 36 -79 52 -115 17
-36 72 -164 123 -285 322 -766 715 -1835 1006 -2742 111 -345 269 -850 309
-983 16 -52 72 -237 125 -410 53 -173 98 -325 101 -338 2 -13 11 -42 19 -65
23 -71 145 -500 205 -722 28 -106 118 -458 124 -486 3 -13 23 -105 46 -204 38
-168 105 -494 129 -630 6 -33 13 -69 15 -80 17 -86 38 -204 41 -220 1 -11 9
-56 18 -100 9 -44 19 -96 23 -115 26 -158 71 -402 84 -460 6 -25 12 -61 15
-80 2 -19 9 -60 15 -90 15 -74 17 -82 34 -180 8 -47 29 -159 46 -250 17 -91
33 -174 34 -185 10 -66 32 -155 46 -194 18 -46 22 -45 35 16 2 10 17 77 33
148 28 122 44 208 57 315 4 25 8 56 10 70 12 85 23 264 25 439 1 62 9 138 17
170 11 46 14 190 15 816 0 671 -2 764 -16 796 -11 28 -16 75 -17 195 0 88 -2
182 -3 209 -4 63 -16 220 -21 260 -2 17 -7 57 -10 90 -7 68 -34 287 -40 326
-3 14 -7 43 -10 64 -9 77 -23 166 -30 205 -3 14 -7 45 -10 70 -3 25 -16 110
-30 190 -13 80 -27 163 -30 185 -4 22 -8 48 -11 58 -3 10 -7 30 -9 45 -2 15
-10 61 -19 102 -8 41 -22 111 -30 155 -9 44 -32 157 -51 250 -20 94 -38 181
-41 195 -3 14 -10 45 -15 70 -6 25 -12 54 -15 65 -9 49 -57 259 -80 355 -14
58 -28 115 -30 128 -19 99 -188 755 -240 929 -14 48 -29 102 -34 118 -34 135
-193 625 -287 885 -344 951 -766 1780 -1242 2435 -66 91 -365 492 -411 550
-14 18 -38 50 -55 71 -38 50 -148 187 -155 194 -3 3 -35 41 -70 85 -53 66
-337 401 -375 441 -5 6 -55 60 -110 120 -416 453 -749 769 -1150 1092 -27 22
-328 244 -351 259 -11 7 -52 35 -92 63 -41 27 -76 50 -78 50 -3 0 -20 11 -37
24 -37 27 -266 164 -377 225 -75 42 -396 201 -404 201 -3 0 -33 13 -68 29
-136 63 -511 203 -577 216 -10 2 -41 11 -67 20 -46 15 -290 80 -338 89 -11 2
-43 9 -71 16 -27 6 -61 13 -75 15 -280 46 -406 65 -455 69 -33 3 -80 8 -105
11 -110 12 -256 18 -533 19 -164 1 -299 1 -300 0z"/>
<path d="M7565 33139 c-55 -16 -107 -31 -115 -33 -8 -3 -103 -30 -210 -62
-107 -31 -208 -60 -225 -65 -60 -17 -135 -39 -370 -108 -132 -40 -247 -73
-255 -75 -8 -2 -123 -36 -255 -76 -382 -114 -513 -177 -717 -347 -131 -109
-279 -285 -371 -443 -29 -49 -157 -306 -157 -315 0 -3 -9 -24 -20 -48 -28 -61
-41 -99 -151 -426 -78 -231 -98 -302 -93 -328 3 -18 9 -33 13 -33 19 0 303
115 385 156 16 8 33 14 38 14 5 0 35 12 66 26 31 14 147 64 257 111 296 126
983 422 1035 445 25 12 191 84 370 160 417 179 396 169 466 221 69 51 120 110
157 182 14 28 75 178 135 335 61 157 135 348 166 424 31 77 59 154 62 172 12
66 -37 145 -90 143 -11 0 -66 -14 -121 -30z"/>
<path d="M35020 31955 c-10 -26 -6 -116 10 -200 13 -73 16 -81 45 -180 35
-117 142 -511 159 -585 2 -8 18 -71 35 -140 16 -69 35 -147 41 -175 7 -27 13
-57 15 -65 13 -49 97 -437 108 -500 8 -42 76 -412 87 -470 6 -30 23 -138 40
-240 27 -175 34 -216 46 -300 3 -19 7 -46 9 -60 3 -14 7 -47 11 -75 3 -27 7
-61 9 -75 4 -25 41 -317 50 -395 13 -114 25 -225 29 -270 3 -27 8 -72 10 -100
3 -27 8 -77 11 -110 3 -33 7 -80 10 -105 6 -59 14 -158 20 -245 3 -38 7 -95
10 -125 9 -111 15 -197 21 -300 3 -58 7 -127 9 -155 3 -46 10 -203 21 -490 6
-171 5 -1060 -2 -1585 -10 -741 -10 -749 20 -864 11 -40 114 -312 156 -411 5
-11 56 -141 115 -290 123 -312 341 -856 360 -900 7 -16 55 -133 105 -260 68
-171 99 -237 121 -258 17 -15 34 -25 40 -22 32 21 63 130 74 265 10 125 23
276 30 355 15 159 19 208 30 360 6 68 8 116 20 370 3 66 8 165 10 220 9 176
19 484 31 960 10 379 11 1704 1 1915 -4 91 -9 206 -12 255 -2 50 -6 126 -9
170 -3 44 -8 125 -11 180 -3 55 -8 125 -10 155 -2 30 -7 105 -10 165 -3 61 -8
144 -10 185 -2 41 -7 118 -10 170 -3 52 -7 122 -10 155 -3 33 -7 101 -10 150
-3 50 -7 117 -10 150 -2 33 -7 96 -10 140 -6 81 -10 132 -20 240 -4 33 -8 85
-10 115 -3 30 -7 80 -11 110 -3 30 -7 69 -9 85 -8 84 -17 163 -20 185 -2 14
-7 52 -10 85 -3 33 -7 71 -10 85 -4 26 -15 112 -20 165 -4 29 -22 164 -30 215
-2 14 -6 43 -9 65 -3 22 -13 90 -22 150 -8 61 -18 126 -20 145 -2 19 -6 46 -9
60 -2 13 -7 42 -10 65 -10 63 -35 174 -58 250 -11 39 -21 75 -23 80 -7 34 -72
186 -119 279 -46 89 -117 208 -158 261 -102 134 -127 164 -237 274 -204 205
-488 429 -909 718 -45 31 -79 30 -91 -2z"/>
<path d="M3120 30757 c-79 -56 -370 -340 -535 -522 -49 -54 -97 -106 -105
-115 -8 -8 -50 -58 -93 -110 -43 -52 -86 -104 -95 -115 -49 -58 -211 -287
-271 -383 -117 -186 -314 -526 -424 -732 -22 -41 -50 -93 -62 -115 -63 -112
-278 -550 -367 -750 -22 -49 -51 -114 -65 -144 -312 -694 -653 -1756 -797
-2481 -2 -14 -14 -70 -25 -125 -23 -116 -29 -147 -37 -195 -3 -19 -7 -42 -9
-50 -2 -8 -7 -31 -10 -50 -3 -19 -10 -60 -15 -90 -13 -73 -18 -106 -25 -160
-3 -25 -8 -52 -10 -60 -2 -8 -6 -37 -10 -65 -3 -27 -12 -102 -21 -165 -20
-158 -23 -177 -29 -245 -4 -33 -8 -73 -10 -90 -9 -75 -32 -365 -40 -500 -2
-33 -7 -143 -11 -245 -3 -102 -10 -192 -14 -200 -7 -14 -14 -46 -27 -125 -11
-68 -3 -541 11 -625 20 -117 25 -171 31 -350 3 -85 8 -177 10 -205 3 -27 7
-90 11 -140 3 -49 7 -103 9 -120 12 -160 16 -203 20 -225 2 -14 7 -52 10 -85
3 -33 8 -76 10 -95 3 -19 7 -57 10 -85 3 -27 7 -61 9 -75 3 -14 7 -50 10 -80
4 -30 8 -66 11 -80 2 -14 6 -45 9 -70 3 -25 8 -61 12 -80 10 -64 35 -225 40
-260 10 -65 45 -264 59 -335 8 -38 17 -86 20 -105 23 -131 86 -429 146 -685
17 -71 32 -137 34 -145 38 -184 256 -977 356 -1295 125 -399 346 -1012 444
-1230 7 -16 36 -83 64 -148 28 -65 64 -146 80 -180 16 -34 39 -84 51 -112 107
-238 401 -787 539 -1005 22 -36 48 -78 57 -95 96 -172 478 -698 643 -885 12
-14 45 -52 74 -85 93 -109 440 -449 562 -551 226 -188 433 -336 686 -489 82
-50 218 -110 220 -97 0 4 3 16 5 27 5 20 5 428 -1 515 -11 197 -18 286 -20
290 -2 3 -6 39 -10 80 -3 40 -8 76 -10 79 -1 3 -6 22 -9 41 -45 274 -161 511
-339 694 -45 46 -127 118 -182 159 -138 102 -210 180 -296 319 -15 24 -110
176 -211 338 -231 369 -320 519 -442 740 -53 96 -103 186 -111 200 -26 42
-311 620 -345 700 -18 41 -50 112 -71 158 -22 46 -39 89 -39 96 0 6 -4 16 -9
21 -11 12 -154 367 -223 555 -114 307 -255 755 -348 1104 -32 121 -37 141 -46
186 -3 14 -9 39 -14 55 -11 36 -79 350 -95 436 -3 14 -12 61 -20 105 -9 43
-18 92 -20 108 -2 15 -7 35 -9 45 -3 9 -8 39 -12 66 -7 61 -10 80 -19 125 -8
40 -10 53 -19 130 -4 30 -11 80 -16 110 -5 30 -12 80 -15 110 -3 30 -8 66 -10
80 -2 14 -7 52 -10 85 -3 33 -8 76 -10 95 -4 34 -10 105 -21 220 -2 30 -7 80
-9 110 -3 30 -8 98 -11 150 -3 52 -7 120 -9 150 -21 360 -22 1155 0 1535 1 28
6 113 10 190 4 77 8 160 10 185 12 168 18 240 21 275 10 124 15 184 19 215 2
19 7 67 10 105 6 66 8 92 20 183 2 20 7 62 10 92 3 30 8 66 10 80 8 55 15 107
20 150 8 63 13 100 19 140 3 19 15 94 26 165 30 193 29 188 60 350 16 83 32
165 35 184 3 19 8 37 10 40 2 4 6 27 10 51 3 25 8 53 11 62 3 9 7 25 9 35 63
307 206 829 326 1186 87 260 233 644 304 802 8 17 46 102 85 190 138 307 333
685 486 940 103 171 150 326 179 590 3 28 9 73 15 100 5 28 12 70 15 95 3 25
8 59 11 75 11 65 13 82 19 125 3 25 10 70 15 100 5 30 19 119 30 196 11 78 22
150 24 160 7 35 17 99 20 129 4 31 17 119 21 145 2 8 6 35 10 60 3 25 9 59 12
75 2 17 6 43 8 58 2 15 7 44 10 65 3 20 13 90 23 155 10 64 16 117 13 117 -3
-1 -26 -15 -51 -33z"/>
<path d="M6210 28673 c-14 -2 -34 -8 -45 -12 -213 -92 -332 -147 -570 -267
-477 -240 -883 -485 -1372 -829 -84 -59 -407 -303 -490 -371 -38 -30 -86 -69
-108 -87 -136 -110 -425 -359 -530 -457 -33 -31 -100 -94 -150 -141 -112 -105
-485 -478 -585 -585 -133 -143 -232 -251 -330 -363 -36 -41 -70 -79 -75 -85
-6 -6 -48 -56 -94 -111 -46 -55 -97 -115 -113 -134 -119 -139 -170 -273 -183
-481 -4 -63 -8 -131 -10 -150 -1 -19 -6 -78 -9 -130 -4 -52 -9 -117 -11 -145
-5 -50 -9 -112 -20 -260 -3 -44 -8 -98 -10 -120 -2 -22 -7 -89 -11 -150 -7
-127 -10 -167 -18 -290 -3 -49 -8 -128 -11 -175 -5 -84 -11 -167 -20 -305 -3
-38 -7 -110 -10 -160 -3 -49 -7 -112 -10 -140 -2 -27 -7 -95 -10 -150 -3 -55
-8 -122 -10 -150 -2 -27 -7 -95 -10 -150 -3 -55 -8 -124 -11 -154 -4 -50 -8
-113 -19 -296 -3 -38 -8 -117 -11 -175 -7 -107 -8 -133 -5 -207 1 -47 12 -52
67 -33 33 12 45 42 160 424 30 99 68 224 84 276 100 331 225 732 258 835 213
642 432 1108 751 1590 77 118 293 411 354 482 13 15 68 79 122 142 264 306
587 616 953 913 48 38 96 77 107 86 228 189 874 632 1226 841 295 175 385 245
548 431 151 171 284 471 332 750 28 164 33 387 10 458 -13 39 -16 42 -50 41
-20 -1 -47 -4 -61 -6z"/>
<path d="M32707 27712 c-15 -3 -15 -6 -2 -25 8 -12 14 -24 14 -27 0 -16 79
-180 449 -930 98 -201 200 -408 225 -460 24 -52 77 -162 117 -245 40 -82 89
-186 110 -230 21 -44 73 -152 115 -240 43 -88 99 -205 125 -260 114 -240 207
-434 300 -630 29 -60 67 -141 85 -180 18 -38 52 -110 75 -160 47 -101 94 -201
135 -290 15 -33 43 -94 62 -135 667 -1429 1228 -2887 1614 -4188 38 -130 78
-268 89 -307 10 -38 34 -126 54 -195 37 -136 168 -652 193 -765 8 -38 22 -99
30 -135 8 -36 17 -76 19 -90 3 -14 7 -33 10 -42 3 -9 7 -27 9 -40 3 -13 7 -34
10 -48 3 -14 7 -34 9 -45 2 -11 16 -76 29 -145 25 -123 79 -406 92 -485 4 -22
9 -49 10 -60 2 -11 8 -47 14 -80 16 -92 20 -117 26 -160 3 -22 8 -51 10 -65 3
-14 7 -38 9 -55 5 -36 17 -114 21 -135 1 -8 6 -42 10 -75 4 -32 8 -66 10 -75
1 -8 6 -40 9 -71 4 -31 8 -65 10 -75 2 -11 7 -50 11 -87 3 -37 8 -77 10 -88 2
-11 7 -51 10 -89 3 -38 8 -77 9 -87 2 -10 7 -56 11 -103 4 -47 8 -92 10 -100
1 -8 6 -53 10 -100 3 -47 8 -101 10 -120 2 -19 7 -87 11 -150 3 -63 8 -122 9
-130 2 -8 4 -27 4 -42 1 -24 5 -28 31 -28 23 0 56 21 137 87 398 322 640 595
762 858 27 57 68 176 75 218 3 15 10 55 16 89 13 71 16 215 5 308 -9 84 -28
168 -71 309 -19 63 -36 124 -38 135 -3 12 -9 41 -14 66 -21 97 -74 356 -78
382 -3 15 -21 100 -40 190 -19 90 -37 172 -39 183 -15 70 -56 242 -107 445
-32 129 -60 242 -63 251 -8 36 -77 298 -96 364 -11 39 -26 93 -34 120 -7 28
-30 109 -50 180 -38 136 -42 151 -150 510 -94 310 -273 861 -390 1195 -107
309 -338 936 -380 1035 -7 17 -23 57 -34 90 -12 33 -26 69 -31 80 -5 11 -39
97 -76 190 -80 206 -258 643 -285 703 -11 24 -33 76 -48 115 -37 91 -190 447
-306 712 -8 17 -22 50 -33 75 -11 25 -31 70 -45 100 -14 30 -53 118 -87 195
-34 77 -73 163 -85 190 -87 186 -115 248 -115 250 0 2 -29 65 -65 140 -36 76
-65 138 -65 140 0 1 -28 61 -61 131 -34 71 -74 156 -89 189 -15 33 -65 137
-110 230 -45 94 -91 190 -102 215 -30 64 -603 1225 -635 1285 -71 134 -132
201 -203 223 -33 11 -60 14 -230 27 -41 3 -95 8 -120 10 -25 2 -79 7 -120 10
-41 3 -95 8 -120 10 -25 3 -77 7 -117 10 -39 3 -89 7 -110 9 -124 14 -351 25
-386 18z"/>
<path d="M37033 27574 c-9 -23 -9 -916 -1 -1004 30 -302 148 -561 390 -857 46
-56 128 -157 184 -225 122 -149 304 -392 304 -406 0 -6 4 -12 8 -14 7 -3 132
-185 157 -230 6 -9 37 -61 69 -115 170 -280 390 -707 506 -983 29 -69 59 -139
66 -155 171 -397 405 -1169 528 -1747 20 -91 38 -172 41 -180 2 -7 6 -26 9
-43 2 -16 19 -100 36 -185 17 -85 34 -166 36 -180 20 -107 37 -199 40 -220 3
-14 13 -72 24 -130 24 -132 78 -452 85 -505 2 -22 7 -51 9 -65 5 -25 8 -47 22
-155 4 -33 9 -62 9 -65 1 -3 5 -32 9 -65 4 -33 10 -71 12 -85 2 -14 6 -50 10
-80 3 -30 8 -71 10 -90 2 -19 6 -55 9 -80 3 -25 9 -83 15 -130 10 -96 18 -175
25 -270 3 -36 7 -91 10 -122 3 -32 7 -84 10 -115 5 -59 14 -221 21 -368 5
-110 5 -702 0 -800 -8 -152 -17 -290 -20 -340 -3 -27 -7 -95 -11 -150 -3 -55
-8 -116 -10 -135 -2 -19 -7 -69 -10 -110 -3 -41 -8 -95 -10 -120 -2 -25 -7
-74 -10 -110 -7 -80 -44 -379 -50 -400 -2 -8 -6 -37 -10 -65 -3 -27 -8 -57
-10 -65 -2 -8 -6 -31 -9 -50 -6 -35 -31 -174 -40 -220 -3 -14 -10 -47 -16 -75
-6 -27 -13 -61 -15 -75 -21 -102 -72 -317 -102 -430 -19 -74 -36 -142 -38
-150 -58 -249 -302 -966 -420 -1235 -7 -16 -30 -70 -50 -120 -21 -49 -50 -117
-65 -150 -15 -33 -37 -82 -50 -110 -38 -86 -237 -485 -291 -585 -43 -82 -103
-187 -200 -355 -313 -544 -517 -983 -673 -1445 -112 -333 -506 -1648 -512
-1707 -9 -87 28 -62 350 237 274 255 667 679 890 961 349 440 634 855 915
1332 44 76 81 143 81 148 0 5 4 9 9 9 5 0 11 8 14 18 3 9 35 71 72 137 169
310 354 697 502 1049 41 98 85 206 98 240 108 285 156 420 217 601 38 116 71
217 73 225 2 8 14 51 28 95 44 143 58 192 93 322 34 129 102 406 110 453 3 14
10 43 16 65 5 22 12 49 14 60 2 11 15 76 29 145 13 69 27 139 29 155 7 41 15
85 21 115 6 27 20 120 30 185 3 23 7 52 10 65 6 29 12 78 20 145 4 28 8 57 10
65 2 8 7 47 11 85 3 39 8 78 9 87 2 9 7 48 10 85 4 37 8 84 10 103 3 19 7 69
10 110 4 41 8 93 10 115 4 41 11 175 20 350 7 130 7 554 0 720 -13 330 -18
410 -30 565 -3 36 -7 97 -10 135 -3 39 -8 97 -11 130 -3 33 -7 78 -9 100 -4
49 -15 149 -20 191 -2 17 -7 57 -10 90 -3 32 -8 77 -11 99 -3 22 -7 57 -9 78
-3 20 -7 54 -10 75 -3 20 -7 57 -10 82 -3 25 -7 56 -10 70 -3 24 -13 88 -20
140 -2 14 -7 45 -10 70 -3 25 -13 88 -22 140 -8 52 -16 104 -17 115 -1 11 -5
34 -9 50 -3 17 -9 48 -12 70 -5 37 -12 82 -21 130 -5 25 -43 249 -50 290 -5
36 -22 131 -28 161 -2 12 -7 37 -10 55 -3 19 -13 72 -21 119 -9 47 -22 123
-31 170 -8 47 -21 117 -29 155 -8 39 -17 86 -20 105 -8 47 -42 222 -65 340
-11 52 -21 106 -24 120 -2 14 -25 126 -50 250 -24 124 -47 236 -49 250 -3 14
-8 36 -11 50 -11 48 -75 345 -80 370 -37 194 -173 718 -227 872 -11 31 -22 65
-24 75 -5 28 -91 265 -142 393 -156 395 -364 806 -575 1140 -100 158 -280 419
-335 485 -5 6 -31 39 -58 75 -27 36 -90 114 -140 175 -49 60 -94 116 -100 122
-5 7 -23 28 -40 46 -16 18 -50 56 -75 86 -75 90 -186 208 -365 386 -319 320
-498 472 -882 749 -48 34 -54 36 -60 20z"/>
<path d="M4098 25938 c-69 -73 -148 -157 -174 -187 -27 -30 -60 -66 -73 -80
-75 -82 -250 -307 -309 -396 -25 -39 -90 -181 -111 -243 -41 -121 -57 -328
-37 -467 3 -22 8 -65 11 -95 3 -30 7 -71 10 -90 4 -33 7 -62 20 -190 3 -30 8
-66 10 -80 2 -14 6 -59 10 -100 3 -41 8 -82 10 -90 2 -8 7 -46 10 -85 3 -38 8
-83 10 -100 3 -16 7 -50 9 -75 3 -25 7 -61 10 -80 3 -19 8 -56 11 -82 5 -45 8
-73 20 -155 3 -21 10 -69 15 -108 5 -38 17 -115 25 -170 9 -55 17 -113 20
-130 5 -37 15 -101 21 -129 2 -11 7 -41 10 -66 3 -25 7 -52 9 -60 3 -8 7 -32
11 -54 3 -21 8 -48 10 -60 2 -11 7 -37 10 -56 5 -34 8 -51 40 -218 8 -45 18
-95 20 -110 3 -15 14 -70 24 -122 11 -52 21 -106 24 -120 11 -64 63 -308 113
-530 30 -135 59 -264 64 -287 4 -23 16 -71 25 -105 9 -35 18 -72 20 -83 2 -11
29 -119 59 -240 31 -121 58 -227 60 -235 7 -32 65 -249 85 -320 11 -41 22 -82
24 -90 2 -8 14 -49 26 -90 12 -41 26 -91 30 -110 44 -192 361 -1184 529 -1655
107 -301 266 -727 363 -970 22 -55 41 -104 42 -110 2 -5 7 -19 11 -30 4 -11
44 -112 87 -225 44 -113 83 -214 88 -225 5 -11 29 -72 54 -135 24 -63 91 -234
149 -380 265 -668 356 -896 589 -1485 137 -346 250 -634 252 -640 3 -13 183
-470 200 -510 8 -16 32 -80 55 -140 36 -94 41 -114 32 -138 -10 -24 -15 -28
-39 -23 -15 4 -38 8 -51 11 -34 6 -359 92 -398 105 -18 6 -40 13 -50 15 -10 2
-99 27 -198 55 -99 28 -189 52 -200 55 -41 8 -61 13 -121 29 -34 9 -67 16 -74
16 -11 0 -10 -164 5 -405 2 -38 7 -122 10 -185 3 -63 7 -131 10 -150 2 -19 6
-71 10 -115 6 -90 14 -180 20 -241 3 -22 7 -74 10 -115 3 -40 7 -94 10 -119 2
-25 7 -83 10 -130 10 -145 15 -180 32 -223 42 -108 160 -189 373 -256 88 -28
252 -76 296 -86 10 -3 161 -46 334 -95 173 -50 338 -97 365 -105 28 -8 100
-28 160 -45 61 -18 121 -34 134 -36 14 -3 28 -7 33 -10 4 -3 17 -7 29 -9 35
-7 182 -82 219 -112 97 -78 141 -137 232 -313 36 -69 116 -217 177 -329 62
-113 126 -230 142 -260 17 -31 34 -63 39 -71 10 -16 167 -310 260 -485 29 -55
56 -104 60 -110 4 -5 31 -55 60 -110 59 -111 246 -459 293 -545 16 -30 45 -84
65 -120 33 -61 183 -338 260 -480 20 -36 46 -83 59 -105 12 -22 29 -53 37 -70
24 -49 106 -197 115 -209 4 -6 26 -45 48 -86 47 -87 304 -537 339 -592 13 -21
24 -40 24 -42 0 -3 12 -24 27 -48 33 -52 38 -59 105 -172 29 -48 60 -100 69
-115 47 -78 318 -515 354 -571 23 -36 140 -220 260 -410 120 -190 275 -434
344 -543 69 -109 155 -244 191 -301 168 -266 246 -334 402 -350 62 -6 147 -14
238 -20 36 -3 101 -8 145 -11 95 -7 180 -14 249 -20 28 -2 87 -7 131 -10 44
-3 105 -7 135 -10 352 -30 350 -30 350 19 0 57 -60 155 -256 416 -424 567
-846 1176 -1267 1827 -184 285 -284 443 -398 632 -9 14 -57 92 -107 174 -51
81 -92 150 -92 153 0 2 -9 17 -19 32 -22 32 -301 502 -301 508 0 2 -17 32 -38
66 -21 35 -52 88 -69 118 -17 30 -59 105 -93 165 -89 156 -269 482 -370 670
-23 44 -53 98 -65 120 -23 41 -102 192 -225 425 -71 137 -508 1012 -573 1150
-19 41 -65 137 -101 214 -36 76 -66 139 -66 141 0 1 -22 49 -49 106 -47 100
-237 518 -268 589 -9 19 -21 49 -28 65 -7 17 -40 91 -73 165 -137 310 -391
910 -725 1710 -91 217 -227 541 -302 720 -75 179 -152 363 -172 410 -58 139
-60 143 -82 192 -11 26 -21 50 -21 53 0 3 -9 24 -19 48 -11 23 -32 71 -46 107
-15 36 -36 84 -46 107 -10 23 -19 45 -19 48 0 3 -9 25 -19 48 -23 52 -67 154
-96 227 -29 71 -199 481 -225 540 -48 112 -238 577 -332 815 -126 319 -153
390 -216 565 -246 680 -441 1304 -602 1925 -17 66 -33 128 -35 138 -2 10 -7
27 -10 37 -6 19 -12 46 -21 90 -3 14 -7 33 -10 42 -6 20 -3 7 -59 253 -25 110
-54 238 -64 285 -11 47 -43 191 -71 320 -28 129 -55 253 -60 275 -12 50 -31
138 -81 380 -22 105 -51 242 -65 305 -13 63 -26 124 -28 135 -2 11 -13 63 -25
115 -11 52 -31 151 -46 220 -14 69 -30 143 -35 165 -12 51 -49 223 -55 253 -2
13 -6 31 -9 40 -3 9 -7 35 -11 57 -3 22 -10 56 -15 75 -9 34 -37 163 -45 205
-7 41 -16 82 -30 145 -13 60 -22 105 -30 155 -2 11 -8 45 -13 75 -12 63 -15
79 -36 210 -9 52 -18 113 -21 135 -4 22 -10 67 -15 100 -5 33 -12 77 -15 98
-3 20 -7 54 -10 75 -8 54 -13 99 -20 167 -3 33 -7 67 -9 75 -3 8 -7 46 -11 83
-3 37 -8 76 -10 85 -1 9 -6 53 -10 97 -3 44 -8 94 -10 110 -2 17 -6 55 -9 85
-20 200 -25 256 -31 300 -2 19 -7 60 -10 90 -3 30 -8 71 -10 90 -2 19 -7 60
-10 90 -3 30 -8 71 -10 90 -7 60 -15 133 -20 185 -4 47 -9 97 -21 190 -7 64
-35 107 -84 133 -24 12 -52 22 -61 22 -9 0 -73 -60 -141 -132z"/>
<path d="M35539 20879 c0 -8 -2 -22 -4 -31 -2 -9 -6 -34 -9 -55 -3 -21 -8 -49
-10 -63 -14 -75 -43 -259 -51 -320 -3 -25 -8 -56 -10 -70 -8 -43 -24 -151 -51
-340 -3 -19 -7 -46 -9 -60 -3 -14 -9 -60 -15 -102 -6 -43 -13 -90 -15 -105 -4
-32 -14 -96 -21 -133 -2 -14 -18 -119 -34 -235 -17 -115 -33 -223 -36 -240 -3
-16 -7 -41 -9 -55 -2 -14 -6 -43 -10 -65 -3 -22 -7 -53 -10 -70 -5 -40 -15
-104 -20 -135 -3 -14 -7 -38 -9 -55 -3 -16 -7 -43 -10 -60 -4 -25 -18 -109
-41 -260 -2 -11 -6 -33 -8 -50 -3 -16 -15 -88 -27 -160 -12 -71 -24 -143 -26
-160 -3 -16 -7 -41 -9 -55 -2 -14 -14 -81 -26 -150 -11 -69 -22 -134 -24 -145
-2 -11 -6 -33 -9 -50 -6 -30 -32 -182 -42 -240 -3 -16 -7 -43 -11 -60 -5 -30
-7 -40 -17 -100 -3 -16 -7 -39 -9 -50 -3 -11 -8 -40 -13 -65 -4 -25 -8 -47 -9
-50 -2 -8 -17 -93 -21 -120 -3 -14 -11 -59 -19 -100 -8 -41 -17 -88 -20 -105
-8 -49 -22 -122 -79 -415 -7 -35 -47 -231 -52 -255 -2 -11 -11 -58 -20 -105
-9 -47 -18 -92 -20 -100 -2 -8 -11 -49 -20 -90 -24 -116 -105 -493 -109 -510
-2 -8 -11 -49 -20 -90 -27 -126 -119 -522 -161 -695 -8 -33 -16 -69 -18 -80
-5 -26 -170 -674 -201 -790 -91 -341 -204 -749 -229 -825 -9 -25 -24 -76 -35
-115 -93 -334 -369 -1178 -535 -1631 -252 -693 -542 -1402 -801 -1959 -18 -38
-47 -101 -65 -140 -55 -118 -260 -538 -376 -767 l-109 -217 29 -30 c62 -65
108 -61 276 21 175 85 459 222 560 270 353 166 451 227 595 372 169 170 277
347 410 676 37 91 73 179 80 195 63 149 296 742 309 790 2 6 6 17 9 25 56 131
335 950 447 1310 39 124 79 252 90 285 76 236 245 831 367 1290 63 238 257
1025 300 1215 8 36 16 72 18 80 12 49 88 376 101 430 8 36 17 76 21 90 3 14 7
30 8 35 2 6 24 105 50 220 26 116 56 248 67 295 11 47 22 94 24 105 6 32 11
56 24 110 6 28 13 57 15 65 6 29 107 485 111 500 6 28 104 465 108 485 3 11
16 72 31 135 28 124 81 386 89 435 2 17 9 59 15 95 16 100 23 151 27 195 2 22
7 74 11 115 4 41 7 201 7 355 0 251 -4 352 -19 465 -3 19 -7 53 -10 75 -3 23
-8 52 -10 65 -3 14 -7 41 -10 60 -3 19 -7 46 -10 60 -3 14 -7 36 -10 50 -7 38
-11 55 -38 165 -15 59 -98 377 -137 525 -61 229 -154 574 -170 630 -10 36 -35
128 -55 205 -20 77 -46 168 -57 203 -29 91 -156 276 -159 231z"/>
<path d="M233 19118 c-76 -84 -85 -187 -87 -948 -1 -579 15 -1027 50 -1410 3
-36 7 -85 9 -110 7 -76 16 -174 20 -200 2 -14 6 -52 10 -85 11 -107 15 -140
20 -165 2 -14 7 -54 11 -90 3 -36 7 -67 9 -71 2 -3 7 -30 10 -60 3 -30 10 -79
15 -109 5 -30 11 -71 14 -90 3 -19 10 -57 15 -85 5 -27 12 -70 15 -95 4 -25
11 -63 16 -85 5 -22 19 -92 31 -155 11 -63 30 -153 41 -200 11 -47 22 -96 24
-110 13 -68 83 -337 129 -495 14 -49 28 -98 30 -109 31 -134 226 -681 344
-964 118 -282 323 -711 419 -877 9 -16 37 -66 61 -110 58 -106 215 -368 314
-524 43 -69 95 -152 115 -185 69 -111 398 -601 477 -711 99 -138 271 -367 350
-465 85 -106 89 -111 100 -124 6 -6 35 -40 65 -76 309 -367 617 -668 1035
-1009 32 -26 235 -175 290 -212 28 -19 52 -36 55 -39 13 -14 291 -188 380
-238 127 -72 127 -72 428 -229 92 -47 172 -89 177 -93 13 -10 743 -380 750
-380 3 0 49 -21 102 -46 697 -327 1452 -613 2143 -814 41 -12 95 -28 120 -35
37 -12 247 -68 300 -81 588 -143 668 -158 870 -165 89 -3 100 0 110 24 9 19
-15 73 -162 367 -96 190 -186 374 -202 410 -27 60 -82 158 -96 170 -3 3 -13
16 -21 30 -34 52 -135 153 -212 211 -142 107 -287 167 -757 309 -474 144 -653
202 -925 300 -336 121 -728 278 -949 380 -36 16 -95 44 -131 60 -93 43 -389
190 -460 230 -33 18 -80 44 -105 58 -362 199 -733 447 -1015 676 -193 158
-443 403 -656 643 -67 76 -136 154 -153 173 -51 58 -117 137 -232 281 -116
145 -121 150 -231 298 -40 53 -76 101 -80 106 -56 68 -374 539 -449 662 -10
17 -56 94 -102 170 -46 76 -88 145 -93 153 -124 207 -399 754 -519 1034 -28
66 -57 134 -65 150 -8 17 -47 117 -88 221 -103 260 -178 480 -333 965 -42 129
-152 469 -246 755 -94 286 -192 585 -218 665 -112 342 -422 1284 -536 1630
-68 206 -153 465 -189 575 -69 211 -126 365 -136 365 -3 0 -15 -10 -26 -22z"/>
<path d="M39417 18515 c-20 -22 -56 -76 -79 -120 -23 -44 -69 -129 -103 -190
-34 -60 -76 -135 -92 -165 -17 -30 -65 -116 -108 -190 -43 -74 -86 -150 -96
-167 -16 -29 -195 -325 -238 -394 -216 -351 -459 -703 -685 -994 -92 -119
-333 -411 -374 -454 -9 -9 -56 -60 -103 -112 -128 -138 -269 -278 -470 -465
-322 -299 -827 -654 -1238 -870 -41 -21 -94 -57 -119 -79 -47 -41 -104 -122
-116 -165 -4 -14 -23 -86 -42 -160 -19 -74 -44 -169 -55 -210 -11 -41 -22 -83
-25 -92 -5 -24 -9 -37 -38 -143 -80 -296 -75 -277 -81 -327 -4 -36 -3 -38 33
-48 21 -5 59 -8 86 -5 87 7 170 16 196 20 14 2 45 7 70 10 123 16 404 85 485
120 17 7 62 25 100 40 209 84 456 241 625 398 25 23 77 71 116 107 38 36 110
101 158 145 49 44 99 89 110 100 12 11 60 54 106 95 47 41 87 77 90 80 5 6
215 188 264 230 17 14 48 41 70 61 36 31 333 278 456 378 191 155 391 372 574
623 101 137 257 419 326 588 12 30 29 69 36 87 29 65 104 302 133 418 30 120
77 358 86 438 20 177 25 237 32 347 19 331 -2 932 -36 1048 l-17 57 -37 -40z"/>
<path d="M4562 18228 c-18 -68 -34 -133 -36 -143 -3 -11 -9 -40 -15 -65 -9
-41 -13 -61 -26 -140 -8 -47 -34 -225 -40 -275 -4 -27 -8 -61 -10 -75 -2 -14
-7 -52 -10 -85 -3 -33 -8 -71 -10 -85 -2 -14 -6 -54 -10 -90 -3 -36 -8 -81
-10 -100 -2 -19 -7 -64 -10 -100 -3 -36 -7 -90 -10 -120 -40 -464 -67 -1140
-69 -1710 -1 -400 8 -741 28 -1095 3 -55 8 -147 11 -205 3 -58 7 -152 10 -210
3 -58 7 -166 10 -240 3 -74 7 -171 10 -215 3 -44 7 -141 10 -215 6 -141 12
-275 19 -420 3 -47 8 -137 11 -200 3 -63 7 -142 10 -175 2 -33 7 -118 10 -190
3 -71 8 -150 10 -175 2 -25 7 -103 10 -175 3 -71 8 -150 10 -175 3 -25 7 -99
11 -165 31 -640 30 -627 62 -715 42 -118 92 -170 291 -308 86 -60 291 -204
456 -321 261 -185 377 -261 400 -261 4 0 4 44 1 98 -8 120 -14 225 -21 362 -3
58 -8 137 -10 175 -3 39 -7 115 -10 170 -11 212 -22 416 -31 545 -3 47 -7 121
-9 165 -5 123 -15 304 -20 370 -3 33 -7 114 -10 180 -3 66 -8 143 -10 170 -2
28 -6 102 -10 165 -3 63 -8 147 -10 185 -2 39 -7 120 -10 180 -3 61 -8 153
-10 205 -10 185 -14 276 -20 400 -3 69 -8 161 -10 205 -23 454 -34 806 -40
1275 -7 470 -17 747 -31 860 -2 19 -6 69 -10 110 -3 41 -7 86 -9 100 -2 14 -7
57 -10 95 -3 39 -8 77 -10 85 -2 8 -7 35 -10 60 -9 65 -40 250 -61 360 -54
289 -166 655 -307 1010 -34 85 -62 157 -63 160 0 3 -6 19 -13 35 -28 68 -113
302 -176 485 -88 258 -101 289 -134 329 l-27 33 -32 -124z"/>
<path d="M37860 14373 c-80 -68 -163 -138 -184 -156 -22 -18 -44 -37 -50 -42
-6 -6 -60 -53 -121 -105 -190 -164 -306 -280 -443 -444 -81 -96 -222 -323
-292 -470 -110 -232 -252 -662 -390 -1181 -17 -66 -38 -140 -45 -165 -8 -25
-32 -110 -55 -190 -23 -80 -53 -181 -67 -225 -13 -44 -26 -87 -28 -95 -15 -64
-242 -760 -368 -1125 -157 -456 -465 -1304 -517 -1420 -10 -22 -37 -85 -60
-140 -68 -163 -282 -589 -370 -740 -338 -575 -762 -1077 -1270 -1501 -242
-202 -608 -455 -845 -584 -27 -15 -68 -37 -89 -49 -22 -13 -76 -41 -120 -63
-122 -62 -235 -138 -293 -199 -41 -42 -187 -239 -305 -413 -7 -10 -47 -66 -89
-125 -388 -543 -676 -954 -701 -998 -28 -49 -29 -53 -11 -60 52 -22 128 -5
323 70 743 285 1012 399 1410 598 318 159 738 406 970 570 30 21 63 44 73 51
469 323 1004 816 1332 1228 33 41 62 77 66 80 33 29 301 409 405 575 110 174
319 571 393 745 13 30 29 69 37 86 21 47 125 317 130 334 2 8 28 83 59 165 31
83 58 157 60 165 3 8 21 60 41 115 157 435 339 983 479 1440 20 66 54 177 76
248 22 70 42 135 44 145 2 9 10 37 19 62 17 50 525 1745 532 1775 1 6 13 46
27 90 69 217 297 997 306 1045 12 66 19 113 26 200 3 36 7 72 9 80 3 8 7 53
11 100 3 47 8 103 10 125 3 22 7 65 10 96 2 30 6 75 9 100 19 153 23 289 9
312 -6 10 -47 -20 -153 -110z"/>
<path d="M4949 8504 c-17 -21 -21 -145 -7 -205 26 -108 95 -341 159 -531 264
-793 617 -1441 1082 -1986 120 -141 384 -406 522 -524 264 -225 596 -451 950
-645 112 -62 599 -301 720 -353 66 -29 143 -62 170 -75 277 -123 828 -325
1146 -420 68 -20 158 -47 199 -60 67 -20 370 -102 410 -110 8 -2 72 -17 142
-34 114 -28 159 -38 248 -56 14 -3 66 -14 115 -25 83 -17 115 -24 170 -34 11
-2 70 -13 130 -24 61 -12 128 -23 149 -27 21 -3 48 -7 60 -10 12 -2 37 -7 56
-9 19 -3 116 -17 215 -31 99 -14 200 -28 225 -30 25 -3 61 -7 80 -10 19 -2 62
-7 95 -10 33 -3 73 -7 90 -10 29 -4 91 -10 225 -20 36 -3 88 -7 115 -10 297
-27 683 -39 1210 -39 557 1 949 15 1400 49 153 12 192 15 235 20 25 2 74 7
110 10 98 9 162 16 190 20 14 2 52 7 85 10 105 12 161 19 295 42 52 8 104 16
115 18 21 2 96 15 130 21 11 2 34 7 50 9 31 6 227 41 280 50 17 3 77 15 135
26 58 11 116 23 130 25 14 3 31 7 39 10 22 7 -328 349 -489 478 -166 132 -267
200 -388 261 -86 43 -282 120 -282 110 0 -2 -17 2 -37 9 -21 7 -60 17 -88 21
-27 5 -57 10 -65 12 -99 22 -465 22 -585 -1 -11 -2 -42 -7 -70 -10 -27 -4 -61
-8 -75 -11 -14 -2 -47 -7 -75 -10 -27 -3 -106 -12 -175 -21 -69 -8 -152 -17
-185 -20 -33 -2 -73 -6 -90 -9 -28 -3 -130 -11 -270 -20 -354 -23 -1003 -23
-1265 0 -30 3 -91 7 -135 10 -76 4 -129 9 -240 20 -116 13 -152 16 -180 20
-16 2 -68 9 -115 15 -47 5 -96 12 -110 14 -14 3 -59 10 -100 16 -41 6 -86 13
-100 15 -66 11 -104 17 -124 21 -11 2 -37 7 -56 10 -19 3 -78 14 -130 24 -52
11 -106 21 -120 24 -80 15 -230 48 -297 65 -43 11 -89 22 -103 24 -49 9 -305
78 -475 128 -931 275 -1977 739 -2640 1172 -77 51 -147 97 -155 104 -8 6 -46
35 -85 64 -279 209 -525 464 -706 729 -141 206 -222 365 -328 645 -92 240
-219 405 -436 565 -168 123 -262 172 -735 380 -140 61 -268 118 -284 126 -38
18 -60 18 -77 -2z"/>
<path d="M10814 7954 c4 -16 28 -64 54 -107 26 -43 52 -87 57 -97 6 -10 23
-35 37 -56 14 -22 77 -120 139 -219 266 -425 317 -500 377 -556 74 -68 122
-97 217 -130 122 -42 132 -43 765 -54 201 -3 460 -8 575 -10 836 -17 3310 -25
3490 -11 97 7 102 7 275 37 63 10 129 21 145 24 28 5 72 12 120 21 11 1 103
17 204 34 102 18 194 34 205 36 12 2 36 7 55 10 18 3 41 7 50 9 9 1 36 6 61
10 25 4 54 9 65 11 21 4 48 9 135 24 30 5 69 12 85 15 17 3 48 8 70 11 22 3
49 14 59 24 19 18 18 19 -5 59 -18 30 -337 413 -404 485 -5 6 -35 40 -65 76
-150 177 -261 258 -410 299 -61 17 -94 20 -189 16 -64 -2 -136 -6 -161 -9 -25
-3 -81 -7 -125 -10 -44 -3 -96 -8 -115 -11 -39 -5 -94 -10 -260 -25 -63 -6
-137 -13 -165 -15 -27 -3 -75 -7 -105 -10 -30 -2 -82 -6 -115 -9 -121 -11
-182 -16 -390 -31 -120 -9 -275 -17 -615 -32 -335 -15 -1168 -8 -1470 12 -36
2 -108 7 -160 10 -52 3 -119 8 -147 10 -29 3 -79 7 -110 10 -84 8 -164 16
-198 20 -16 2 -57 6 -90 10 -33 3 -78 7 -100 10 -22 2 -65 7 -95 9 -166 15
-199 18 -240 22 -82 6 -194 15 -260 20 -36 2 -92 6 -125 9 -33 2 -96 7 -140
10 -44 3 -105 8 -135 10 -70 6 -172 14 -252 20 -35 3 -106 7 -158 11 -52 3
-111 7 -130 9 -19 2 -98 7 -174 11 l-139 7 7 -29z"/>
<path d="M14757 6524 c-1 -1 -48 -4 -105 -7 -57 -3 -106 -7 -108 -10 -8 -8
103 -226 176 -347 274 -455 559 -824 1000 -1294 140 -149 1219 -1227 1295
-1293 119 -103 287 -243 350 -291 33 -25 62 -49 65 -52 9 -9 233 -175 310
-230 263 -184 687 -446 915 -566 39 -20 75 -40 80 -44 13 -11 428 -218 530
-265 167 -77 276 -125 440 -194 94 -39 179 -76 190 -81 73 -34 577 -224 700
-264 89 -29 174 -37 250 -24 27 5 172 48 320 95 149 47 290 91 315 98 25 7
133 41 240 75 107 34 202 63 210 65 89 22 482 153 504 168 25 18 27 24 22 59
-8 49 -21 70 -57 90 -23 14 -229 78 -301 94 -154 35 -1031 304 -1123 344 -11
5 -77 29 -146 54 -206 73 -588 226 -750 299 -30 14 -101 46 -159 72 -58 26
-199 94 -315 151 -387 191 -571 295 -1009 567 -319 198 -852 600 -1126 847
-19 17 -60 53 -90 80 -171 151 -474 452 -648 646 -97 107 -107 118 -213 244
-168 200 -378 475 -490 640 -109 162 -186 226 -311 260 -35 9 -167 13 -504 14
-250 0 -456 0 -457 0z"/>
<path d="M32275 6348 c-239 -87 -608 -212 -780 -263 -328 -97 -454 -188 -720
-520 -62 -77 -148 -192 -192 -255 -45 -63 -96 -137 -114 -163 -114 -163 -324
-431 -503 -642 -109 -129 -138 -161 -292 -324 -761 -810 -1621 -1404 -2586
-1787 -126 -50 -463 -168 -512 -179 -12 -3 -86 -23 -166 -45 -140 -39 -503
-122 -585 -134 -34 -6 -95 -16 -170 -30 -35 -6 -127 -19 -230 -31 -27 -3 -63
-8 -80 -10 -16 -2 -61 -7 -100 -10 -223 -19 -454 -78 -631 -159 -174 -81 -270
-149 -789 -561 -290 -230 -272 -215 -301 -240 -13 -11 -42 -33 -64 -50 -47
-34 -43 -38 50 -54 36 -6 74 -13 86 -15 12 -2 45 -7 75 -11 30 -3 65 -8 79
-10 28 -4 91 -13 148 -20 20 -2 55 -6 77 -9 22 -3 72 -8 110 -11 39 -4 81 -8
95 -10 187 -27 993 -27 1235 0 22 3 67 7 100 10 97 9 224 26 315 41 47 9 100
17 119 20 19 2 52 9 75 14 22 5 55 11 73 15 287 50 872 223 1263 373 475 183
1031 461 1393 698 29 19 59 38 67 43 53 35 279 187 296 200 12 9 32 23 44 31
23 16 155 116 290 220 73 55 255 204 270 220 3 3 39 34 80 70 266 230 630 592
846 840 21 25 44 50 50 55 19 17 236 275 341 405 270 336 684 914 890 1245 7
11 53 84 103 162 49 79 90 147 90 152 0 5 3 11 8 13 8 3 32 43 178 293 52 88
99 167 104 175 6 8 13 21 17 29 3 8 35 64 71 125 35 61 66 128 69 148 5 35 4
37 -23 36 -16 -1 -137 -41 -269 -90z"/>
<path d="M24369 3106 c-2 -2 -23 -6 -46 -10 -64 -8 -190 -53 -263 -93 -67 -36
-170 -104 -580 -384 -129 -88 -242 -163 -250 -166 -8 -4 -48 -29 -89 -56 -84
-56 -311 -196 -381 -235 -25 -14 -88 -51 -140 -82 -134 -79 -153 -90 -405
-227 -352 -191 -634 -300 -965 -371 -118 -26 -172 -36 -255 -47 -11 -2 -33 -5
-50 -8 -16 -3 -52 -8 -80 -12 -142 -19 -199 -25 -267 -30 -35 -3 -92 -7 -128
-10 -106 -8 -228 -16 -490 -30 -97 -5 -231 -14 -305 -20 -27 -2 -93 -7 -145
-10 -52 -4 -106 -8 -120 -10 -14 -2 -59 -6 -100 -10 -41 -4 -86 -8 -100 -10
-14 -2 -59 -7 -100 -10 -41 -4 -82 -8 -90 -10 -42 -8 -185 -22 -330 -31 -189
-13 -573 -7 -707 11 -17 2 -62 7 -100 10 -37 3 -79 8 -93 10 -14 2 -72 11
-130 20 -58 8 -116 17 -130 20 -14 3 -37 7 -53 10 -73 14 -174 37 -302 70 -77
20 -144 37 -150 39 -112 28 -478 157 -600 211 -16 7 -66 29 -110 48 -144 63
-230 101 -235 107 -3 3 -41 22 -85 44 -361 173 -927 536 -1328 850 -232 182
-342 248 -513 308 -102 37 -213 62 -319 74 -75 9 -1049 7 -1076 -1 -10 -4 -19
-15 -19 -26 0 -24 81 -140 171 -244 15 -16 68 -79 120 -140 91 -107 529 -552
599 -609 19 -15 53 -45 75 -65 34 -31 148 -127 195 -164 8 -7 47 -37 85 -68
289 -230 618 -450 970 -649 112 -63 468 -241 585 -294 36 -15 79 -34 95 -41
487 -216 1229 -440 1745 -529 14 -2 36 -7 50 -10 14 -3 43 -8 65 -11 38 -5 63
-9 130 -20 26 -4 85 -12 230 -30 22 -3 58 -8 80 -10 22 -3 56 -8 75 -10 116
-13 148 -17 170 -20 14 -2 54 -7 89 -10 35 -4 87 -14 115 -23 44 -14 132 -16
605 -19 501 -3 556 -2 572 13 10 9 39 17 66 19 49 3 71 5 278 31 66 8 140 17
165 20 25 3 56 7 70 9 14 2 50 7 80 10 30 4 66 8 80 10 37 5 113 17 131 20 9
2 40 6 70 10 30 3 62 8 72 11 10 3 30 7 45 9 46 7 293 55 331 65 20 5 52 12
71 15 189 32 962 257 1157 337 15 6 33 12 38 13 18 4 418 166 470 190 28 13
106 49 175 80 157 72 368 179 524 265 67 37 144 80 171 95 28 15 57 34 66 41
8 8 19 14 22 14 24 0 486 306 669 443 158 118 399 310 454 362 6 5 49 43 95
84 103 91 469 457 564 564 91 101 113 148 78 162 -23 8 -152 32 -222 40 -30 4
-61 8 -70 10 -9 1 -41 6 -71 10 -30 4 -62 9 -70 10 -8 2 -37 6 -65 9 -27 4
-57 9 -65 11 -8 2 -40 6 -71 10 -31 3 -66 7 -77 10 -11 2 -42 6 -69 10 -26 4
-59 9 -73 12 -32 6 -275 14 -281 9z"/>
</g>
</svg>
