<?xml version="1.0" standalone="no"?>
<!DOCTYPE svg PUBLIC "-//W3C//DTD SVG 20010904//EN"
 "http://www.w3.org/TR/2001/REC-SVG-20010904/DTD/svg10.dtd">
<svg version="1.0" xmlns="http://www.w3.org/2000/svg"
 width="596.000000pt" height="596.000000pt" viewBox="0 0 596.000000 596.000000"
 preserveAspectRatio="xMidYMid meet">
<metadata>
Created by potrace 1.11, written by Peter Selinger 2001-2013
</metadata>
<g transform="translate(0.000000,596.000000) scale(0.100000,-0.100000)"
fill="#000000" stroke="none">
<path d="M2845 5839 c-188 -33 -281 -64 -402 -132 l-61 -35 20 37 21 36 -30
-33 c-31 -35 -36 -36 -128 -15 -63 14 -201 10 -268 -8 -202 -55 -319 -128
-447 -279 -16 -19 -15 -13 6 25 15 28 38 66 49 85 30 48 56 100 51 100 -6 0
-93 -133 -159 -245 -32 -55 -60 -101 -60 -102 -1 -1 -22 -4 -47 -8 -52 -7
-180 -43 -195 -55 -5 -4 -21 -11 -35 -15 -79 -24 -280 -189 -372 -305 -39 -50
-114 -166 -143 -222 -11 -21 -21 -36 -22 -34 -4 4 61 195 76 223 14 27 14 36
0 27 -26 -16 -87 -179 -134 -358 -24 -92 -30 -104 -77 -152 -106 -109 -208
-278 -272 -449 -28 -75 -91 -321 -101 -395 -15 -116 -19 -184 -19 -300 -1
-127 8 -258 20 -304 3 -14 4 -26 1 -26 -3 0 -10 24 -16 53 -6 28 -14 63 -16
77 -22 104 -31 161 -30 178 1 12 -3 18 -8 15 -11 -6 -4 -115 12 -183 5 -25 13
-61 16 -80 3 -19 12 -60 20 -90 10 -37 16 -134 19 -290 5 -254 7 -270 36 -397
74 -317 314 -686 545 -840 31 -20 54 -37 53 -39 -2 -1 -34 8 -73 21 -76 26
-147 36 -165 25 -7 -4 10 -11 36 -15 51 -7 213 -60 224 -72 4 -5 17 -42 30
-83 49 -165 139 -310 248 -395 136 -107 438 -226 662 -260 91 -14 104 -16 109
-21 2 -2 -10 -4 -27 -4 -58 0 -183 -33 -170 -45 1 -2 23 1 48 6 25 4 72 11
106 14 33 4 69 8 80 9 13 2 40 -20 86 -69 135 -145 272 -230 488 -305 114 -40
134 -44 225 -44 90 -1 175 5 335 20 101 10 203 35 315 79 11 4 -14 -14 -55
-40 -41 -26 -79 -52 -85 -57 -20 -19 81 27 145 65 36 22 70 40 75 39 64 -8
303 -8 345 -1 174 30 319 89 469 191 41 27 83 51 94 54 28 5 69 42 146 129 23
27 57 47 119 72 210 84 344 165 452 272 72 72 108 120 171 233 22 40 38 64 35
53 -14 -49 31 34 69 126 35 85 50 108 110 171 39 40 89 96 110 123 22 28 43
52 46 55 18 15 115 176 150 249 36 76 93 229 105 285 11 48 44 235 50 280 4
35 8 45 15 35 6 -10 9 -6 10 16 3 58 2 141 -3 220 -3 43 -1 95 3 115 18 83 26
314 15 430 -8 76 -18 155 -21 160 -1 3 -6 28 -9 55 -26 190 -115 482 -199 650
-78 157 -260 384 -410 513 -21 17 -35 32 -31 32 9 0 65 -40 97 -68 33 -32 35
-17 2 20 -24 28 -134 103 -164 113 -9 3 -36 44 -59 91 -141 283 -317 445 -697
637 -181 92 -384 160 -511 173 -70 7 -83 14 -28 14 33 1 36 2 20 11 -28 17
-274 12 -337 -7 -10 -3 -71 26 -137 64 -65 37 -152 79 -193 92 -96 30 -236 34
-374 9z m293 -155 c34 -7 81 -24 105 -36 l42 -21 -65 -17 c-99 -26 -174 -58
-215 -90 -20 -16 -45 -32 -55 -35 -11 -4 -77 17 -159 50 -77 30 -145 55 -150
55 -23 0 -10 20 17 26 15 4 32 12 37 19 12 15 101 37 205 51 25 3 46 7 47 8
10 9 140 2 191 -10z m679 -20 c-3 -3 -12 -4 -19 -1 -8 3 -5 6 6 6 11 1 17 -2
13 -5z m-1597 -125 c0 -4 -15 -16 -32 -28 -39 -25 -30 -28 15 -5 l32 16 -26
-28 c-14 -16 -40 -45 -58 -64 -17 -19 -44 -54 -59 -77 -25 -40 -29 -42 -65
-38 -22 3 -44 8 -50 12 -6 3 -7 1 -3 -5 4 -7 21 -16 39 -21 30 -9 28 -9 -23
-11 -30 0 -113 -3 -185 -7 l-130 -5 20 23 c11 13 29 31 40 41 19 16 19 17 2
18 -31 0 59 75 138 114 39 19 102 44 140 54 68 19 205 26 205 11z m1733 -54
c50 -10 184 -55 244 -81 269 -119 466 -243 591 -374 48 -51 127 -160 115 -160
-4 1 -35 7 -68 15 -63 15 -133 20 -121 8 3 -4 17 -8 29 -10 49 -7 117 -25 117
-32 0 -4 -21 -5 -47 -2 -27 4 -70 6 -98 5 -96 -3 -200 -5 -216 -5 -18 1 -99
150 -99 184 -1 20 -2 20 -11 5 -7 -13 -3 -34 15 -80 24 -60 24 -62 3 -33 -68
93 -253 280 -377 381 -19 16 -37 31 -40 34 -3 4 -42 34 -88 69 -46 35 -82 65
-80 66 2 2 21 0 43 -5 59 -14 73 -13 49 4 -11 8 -28 16 -39 19 -27 6 43 0 78
-8z m-1201 -106 c19 -10 18 -13 -18 -50 -25 -25 -40 -35 -45 -27 -4 7 -14 -2
-24 -23 -10 -19 -28 -49 -42 -66 -23 -31 -25 -32 -51 -19 -30 15 -116 44 -153
51 -13 3 -52 11 -86 17 -58 12 -61 13 -40 25 22 12 22 12 -5 13 -16 0 -28 3
-28 6 0 10 123 139 131 137 3 -1 16 9 29 22 l22 23 145 -49 c80 -27 154 -54
165 -60z m899 15 c171 -120 459 -358 459 -379 0 -2 -10 -1 -22 3 -16 4 -12 -3
18 -31 29 -27 34 -37 22 -37 -25 0 -24 0 -118 -32 -94 -33 -107 -36 -167 -44
-89 -13 -90 -12 -366 261 -231 228 -256 255 -238 264 11 6 27 11 36 11 9 0 13
5 10 10 -7 11 22 24 75 34 25 4 29 3 15 -3 -12 -5 -27 -17 -35 -27 -14 -16
-13 -16 10 -4 28 15 135 45 171 47 14 1 62 -26 130 -73z m-601 -181 c34 -44
187 -209 272 -294 43 -43 92 -103 109 -135 l32 -58 -55 -50 c-98 -92 -143
-126 -165 -126 -17 0 -44 30 -111 123 -49 67 -108 151 -132 187 -27 41 -66 82
-102 109 -32 23 -58 47 -58 52 0 11 75 87 120 122 25 19 30 27 17 27 -15 0
-14 5 10 35 15 19 31 35 35 35 4 0 16 -12 28 -27z m-97 -33 c-3 -10 -22 -32
-42 -46 -35 -27 -35 -27 -16 -3 30 37 58 69 61 69 1 0 0 -9 -3 -20z m-1047
-67 c-3 -3 -24 -8 -48 -10 -23 -2 -55 -11 -72 -18 -30 -14 -29 -14 24 -8 49 5
180 12 180 9 -3 -15 -69 -248 -71 -251 -3 -2 -31 9 -64 26 -110 53 -229 60
-340 18 -27 -11 -51 -19 -52 -19 -6 0 12 37 25 53 20 22 9 33 -12 12 -9 -9
-16 -14 -16 -12 0 6 51 117 53 117 2 0 1 -17 -1 -39 -2 -21 1 -42 7 -45 7 -5
11 4 11 23 0 17 9 55 21 85 l20 55 47 3 c89 6 293 6 288 1z m-602 -90 c-44
-83 -48 -87 -39 -46 3 18 2 40 -3 49 -7 12 -11 1 -16 -42 -11 -81 -35 -183
-55 -223 -3 -7 -47 -23 -96 -36 -50 -12 -125 -36 -168 -53 -47 -18 -73 -25
-66 -16 18 21 -4 17 -29 -6 -33 -31 -27 -16 29 68 63 93 214 245 292 290 52
32 162 81 180 82 4 0 -8 -30 -29 -67z m1078 53 c110 -9 125 -17 92 -50 -14
-14 -17 -14 -39 0 -31 20 -142 54 -151 45 -4 -3 -4 0 0 7 4 7 10 11 14 8 4 -2
42 -7 84 -10z m-52 -35 c132 -33 132 -34 58 -104 -48 -45 -49 -48 -20 -35 18
7 60 40 93 73 l61 60 -31 -47 c-49 -73 -107 -205 -126 -288 -12 -49 -17 -114
-17 -187 l1 -112 -48 29 c-56 35 -72 66 -100 194 -19 85 -22 186 -7 246 3 14
9 41 13 60 4 19 8 37 9 40 0 3 4 24 9 48 4 23 13 42 19 42 6 0 45 -9 86 -19z
m-1043 -125 c-42 -96 -64 -124 -32 -41 17 45 64 135 70 135 1 0 -16 -43 -38
-94z m1470 -148 c71 -74 211 -302 234 -381 7 -23 3 -30 -24 -51 -71 -52 -159
-79 -215 -64 -51 14 -138 104 -152 157 -18 66 -18 128 -3 204 14 67 47 157 58
157 3 0 1 -9 -5 -19 -5 -11 -10 -35 -10 -53 0 -30 2 -28 25 27 14 33 25 61 25
63 0 1 6 2 13 2 7 0 31 -19 54 -42z m-975 -47 c23 -12 57 -34 75 -49 30 -26
32 -31 34 -101 1 -41 6 -97 12 -125 12 -66 -8 -104 -77 -149 -75 -49 -78 -50
-241 -52 -159 -2 -277 -13 -338 -31 -14 -5 -16 -2 -8 18 16 41 51 113 52 108
0 -3 3 -16 5 -30 8 -41 22 -45 20 -5 -3 43 16 170 40 269 l17 68 91 43 c50 23
105 47 121 52 49 16 148 8 197 -16z m3048 -35 c61 -6 129 -27 124 -40 -2 -6
14 -20 36 -30 45 -22 53 -40 95 -218 30 -129 31 -158 5 -99 -27 59 -33 49 -10
-19 10 -30 21 -72 24 -92 3 -21 8 -53 11 -72 l6 -34 -52 19 c-65 25 -161 47
-216 50 -23 2 -40 6 -38 10 3 4 -3 17 -13 30 -11 13 -55 110 -100 214 -45 105
-91 208 -102 230 l-21 40 53 -51 c53 -52 86 -74 109 -74 7 0 -6 13 -27 28 -21
16 -55 46 -73 68 l-35 39 55 5 c51 5 90 4 169 -4z m-538 -43 c0 -10 1 -24 1
-32 -2 -22 15 2 19 29 3 21 9 16 37 -40 19 -36 55 -116 82 -178 l47 -112 -74
4 c-105 6 -207 -26 -321 -100 -28 -19 -74 -45 -101 -59 -45 -22 -55 -24 -103
-15 -30 5 -79 22 -109 38 -53 26 -55 29 -58 71 -4 54 32 131 87 188 44 45 200
153 246 171 17 6 44 14 60 17 17 3 59 12 95 19 88 18 90 18 92 -1z m-2962 -74
c-6 -19 -16 -70 -24 -114 -10 -57 -25 -97 -50 -139 -20 -33 -36 -66 -36 -75 0
-8 -3 -12 -6 -9 -3 4 22 90 56 193 34 102 64 185 66 183 2 -3 -1 -20 -6 -39z
m-246 -79 c-33 -63 -39 -70 -50 -55 -10 13 -12 6 -11 -42 0 -32 -3 -93 -7
-136 l-8 -78 -71 -33 c-40 -18 -112 -61 -161 -94 -50 -34 -92 -60 -94 -57 -7
7 -8 249 -1 275 7 24 7 24 8 -5 1 -16 6 -37 11 -45 7 -11 10 2 11 45 0 33 4
71 8 85 14 50 159 137 316 191 44 15 82 25 83 24 2 -2 -13 -36 -34 -75z m14
-72 c-17 -51 -36 -113 -44 -138 l-13 -45 3 78 c2 59 7 84 23 105 11 15 27 42
37 60 9 17 18 32 20 32 2 0 -10 -42 -26 -92z m4174 -8 c3 10 104 -109 181
-213 39 -52 109 -197 146 -301 44 -126 83 -280 71 -284 -6 -2 -4 -15 5 -32 8
-16 15 -35 15 -42 0 -7 -15 15 -34 48 -68 127 -165 245 -280 339 -43 35 -45
38 -41 83 6 80 17 144 30 189 15 50 12 55 -9 14 -18 -33 -34 -100 -38 -153 -1
-20 -6 -34 -10 -32 -5 3 -8 11 -6 17 5 27 -33 279 -52 346 -7 27 -7 31 4 21
10 -8 15 -8 18 0z m-4274 -272 c-5 -13 -15 -19 -83 -49 -27 -12 -78 -39 -112
-60 -35 -21 -63 -36 -63 -33 0 6 156 107 205 132 46 24 58 27 53 10z m-509
-94 c-1 -43 3 -80 9 -86 8 -8 11 -4 8 18 -1 16 1 43 5 59 6 27 7 26 8 -15 1
-25 4 -68 7 -97 l6 -51 -113 -111 c-62 -61 -114 -109 -115 -108 -6 5 57 206
85 274 26 64 92 193 99 193 1 0 2 -34 1 -76z m241 -58 c0 -2 -8 -10 -17 -17
-16 -13 -17 -12 -4 4 13 16 21 21 21 13z m3839 -36 l-24 -21 38 15 c21 9 60
18 87 22 l49 6 67 -138 c165 -343 200 -418 260 -562 66 -159 73 -180 49 -148
-26 34 -25 12 1 -41 24 -49 25 -53 14 -134 -7 -46 -14 -100 -16 -119 -2 -19
-6 -46 -9 -60 -3 -14 -7 -41 -10 -60 -3 -19 -10 -61 -16 -92 -5 -32 -12 -70
-15 -85 -2 -16 -9 -50 -14 -78 -6 -27 -13 -61 -15 -75 -3 -14 -8 -36 -10 -50
-3 -14 -11 -52 -17 -85 -8 -45 -13 -55 -18 -40 -7 19 -8 18 -14 -5 -3 -14 -8
-34 -10 -45 -2 -11 -7 -39 -11 -63 l-8 -43 -76 6 c-135 9 -162 17 -298 82
-122 58 -196 82 -293 97 -29 4 -64 33 -196 163 l-161 158 -71 147 c-135 279
-240 549 -247 638 -3 45 12 96 37 124 7 9 76 36 153 62 158 52 179 61 360 151
171 86 229 125 290 200 38 47 60 65 95 76 64 21 76 20 49 -3z m504 -23 c37
-17 57 -32 58 -44 4 -47 -3 -162 -11 -192 -5 -19 -7 -37 -5 -39 8 -9 26 43 34
103 7 48 9 27 9 -109 l0 -169 -48 100 c-26 56 -55 105 -63 109 -19 12 -150
274 -137 274 6 0 27 -7 47 -15 36 -15 36 -15 19 4 -18 20 -18 20 10 12 16 -5
55 -20 87 -34z m-3389 18 c56 -6 88 -17 182 -65 119 -62 366 -212 393 -239 9
-9 29 -63 45 -121 16 -58 55 -196 87 -308 33 -111 59 -221 59 -243 0 -55 -23
-139 -71 -264 -41 -108 -46 -113 -160 -205 -105 -83 -197 -182 -247 -266 -28
-47 -52 -90 -54 -96 -2 -5 -69 -27 -148 -48 -191 -51 -221 -61 -378 -133 -73
-33 -134 -58 -136 -56 -7 10 -46 159 -52 203 -9 64 -24 39 -17 -28 3 -28 12
-68 19 -89 22 -62 0 -33 -31 40 -15 37 -38 91 -50 118 -50 115 -156 395 -154
407 2 7 -12 51 -30 98 -34 87 -35 106 -17 230 3 19 8 51 11 70 3 19 16 96 30
170 26 148 29 159 45 240 6 30 13 66 15 80 3 14 16 79 30 145 15 66 31 145 36
175 16 80 24 87 24 20 0 -33 5 -64 10 -69 7 -7 10 10 11 47 1 70 14 172 23
173 6 1 24 2 251 14 80 4 146 8 148 10 1 1 15 1 30 0 15 -2 58 -6 96 -10z
m-744 -36 c0 -5 -13 -37 -30 -71 -16 -33 -30 -62 -30 -65 0 -16 36 28 51 62
24 52 24 48 -7 -92 -14 -65 -34 -163 -45 -218 -27 -131 -25 -125 -33 -165 -3
-19 -8 -46 -11 -60 -3 -14 -8 -43 -11 -65 -8 -52 -23 -80 -24 -45 -1 14 -3 34
-5 45 -4 23 -16 121 -20 172 -4 60 -15 48 -16 -18 -1 -60 -2 -62 -9 -24 -5 22
-12 69 -15 105 -4 36 -9 76 -11 90 -1 14 -6 57 -10 95 -3 39 -8 73 -10 77 -6
10 55 55 100 73 44 19 41 32 -3 17 -17 -6 -31 -9 -31 -7 0 3 100 72 135 92 26
15 35 15 35 2z m-445 -119 c-3 -5 -12 -10 -18 -10 -7 0 -6 4 3 10 19 12 23 12
15 0z m-42 -38 c-10 -10 -20 -17 -22 -16 -6 5 20 34 30 34 5 0 1 -8 -8 -18z
m5009 -154 c106 -160 200 -453 223 -693 7 -66 6 -69 -10 -50 -15 18 -16 18
-11 2 3 -10 9 -49 12 -86 6 -62 4 -72 -26 -131 -30 -61 -137 -230 -145 -230
-2 0 -1 17 1 38 l6 37 -25 -50 -24 -50 -8 55 c-6 45 -21 119 -60 290 -2 12
-40 146 -62 220 -12 41 17 -20 33 -70 10 -30 19 -49 21 -43 2 6 -17 76 -44
155 -26 78 -47 154 -46 168 0 14 4 75 8 135 9 123 12 184 15 300 l2 80 12 -50
c12 -48 32 -95 41 -95 3 0 0 11 -5 25 -12 31 -18 64 -26 135 l-6 55 44 -47
c25 -26 61 -71 80 -100z m-5091 71 c-28 -33 -51 -66 -51 -72 0 -5 -3 -7 -6 -4
-8 8 13 41 62 95 56 63 53 51 -5 -19z m4683 -5 c3 -8 2 -12 -4 -9 -6 3 -10 10
-10 16 0 14 7 11 14 -7z m-4520 -71 c-7 -16 -14 -37 -14 -48 1 -15 6 -11 20
15 15 27 19 31 20 15 1 -11 3 -27 4 -35 2 -8 6 -42 10 -75 13 -110 16 -130 26
-185 20 -109 40 -207 61 -290 12 -47 22 -93 23 -102 1 -10 5 -21 9 -24 4 -4 7
-12 7 -18 0 -6 -5 -4 -11 4 -9 12 -10 12 -5 -3 3 -10 6 -24 6 -30 0 -7 5 -6
11 3 8 12 9 10 4 -8 -4 -12 1 -47 10 -78 15 -52 15 -107 0 -204 -2 -14 -7 -54
-10 -89 -4 -36 -11 -74 -17 -84 -7 -14 -7 -17 1 -13 6 4 11 2 11 -3 0 -6 -4
-11 -10 -11 -6 0 -9 -49 -9 -121 1 -66 -2 -123 -5 -126 -20 -20 -159 163 -226
297 -60 120 -146 360 -129 360 4 0 6 6 3 14 -14 37 -32 199 -29 261 7 144 73
365 143 475 28 45 99 130 108 130 2 0 -4 -12 -12 -27z m4722 -961 c0 -4 3 -20
7 -37 27 -114 51 -285 48 -340 -2 -33 -33 -63 -93 -91 -21 -9 -38 -21 -38 -25
0 -10 56 6 89 26 19 12 17 8 -9 -16 -33 -29 -110 -72 -118 -64 -6 5 27 95 59
159 16 34 29 65 29 71 0 17 -68 -84 -74 -112 -4 -14 -9 -23 -12 -21 -2 3 7 63
21 134 31 159 33 167 41 221 8 51 22 58 19 8 -3 -36 9 -48 17 -17 3 9 4 41 3
70 -1 28 1 49 4 46 3 -3 6 -9 7 -12z m-4366 -327 c0 -5 -5 -3 -10 5 -5 8 -10
20 -10 25 0 6 5 3 10 -5 5 -8 10 -19 10 -25z m4752 -26 c-9 -37 -21 -63 -31
-66 -9 -2 -31 -11 -48 -19 -18 -7 -33 -12 -33 -9 0 4 123 155 126 155 1 0 -5
-27 -14 -61z m-4753 -31 c37 -99 90 -212 104 -223 7 -5 23 -34 35 -63 19 -48
20 -53 4 -48 -9 3 -47 15 -85 26 l-67 21 4 77 c2 42 7 91 11 107 5 25 4 27 -5
12 -6 -10 -14 -43 -17 -73 -3 -30 -8 -52 -12 -49 -7 8 -9 275 -2 275 3 0 17
-28 30 -62z m-564 -32 c15 -30 36 -63 47 -73 l21 -18 -17 33 c-29 57 -12 45
33 -23 53 -80 149 -177 221 -224 30 -19 57 -36 59 -38 3 -2 8 -73 10 -153 1
-26 4 -31 11 -20 6 9 10 10 10 3 0 -6 -4 -14 -9 -17 -5 -4 -5 -22 -1 -43 5
-21 11 -51 14 -67 l5 -29 -27 24 c-15 13 -47 44 -71 69 -24 25 -40 38 -35 30
7 -13 6 -13 -9 -1 -51 41 -186 272 -233 399 -26 68 -65 202 -59 202 2 0 15
-24 30 -54z m595 9 c0 -5 -5 -3 -10 5 -5 8 -10 20 -10 25 0 6 5 3 10 -5 5 -8
10 -19 10 -25z m-570 5 c6 -11 8 -20 6 -20 -3 0 -10 9 -16 20 -6 11 -8 20 -6
20 3 0 10 -9 16 -20z m5297 -22 c-3 -8 -6 -5 -6 6 -1 11 2 17 5 13 3 -3 4 -12
1 -19z m-21 -21 c19 7 19 8 -17 -93 -46 -130 -146 -314 -171 -314 -5 0 -6 5
-2 12 4 6 9 41 11 77 2 36 9 106 16 155 l12 89 65 44 c35 25 66 40 68 34 2 -5
10 -7 18 -4z m-4683 -17 c3 -11 1 -18 -4 -14 -5 3 -9 12 -9 20 0 20 7 17 13
-6z m27 -65 c0 -5 -5 -3 -10 5 -5 8 -10 20 -10 25 0 6 5 3 10 -5 5 -8 10 -19
10 -25z m20 -50 c0 -5 -5 -3 -10 5 -5 8 -10 20 -10 25 0 6 5 3 10 -5 5 -8 10
-19 10 -25z m2652 -3 c9 -9 13 -44 12 -120 -2 -143 -24 -204 -97 -264 -29 -24
-58 -49 -65 -56 -19 -18 -62 -38 -97 -46 -16 -4 -38 -9 -48 -12 -16 -5 -17 -3
-8 14 17 32 13 37 -8 11 -19 -24 -19 -24 -40 -5 -12 11 -33 44 -48 75 -33 67
-36 157 -8 241 34 105 83 152 171 166 22 3 41 8 44 11 11 11 179 -2 192 -15z
m1629 -100 c-5 -10 -17 -25 -26 -32 -27 -23 -101 -132 -113 -167 -15 -45 0
-42 22 4 15 33 64 97 118 157 16 17 16 15 3 -40 -37 -160 -103 -370 -105 -334
-1 17 -8 5 -25 -39 -27 -73 -24 -69 -130 -147 l-80 -58 38 42 c43 49 50 75 10
37 -16 -15 -54 -44 -85 -66 l-57 -39 21 48 c36 79 115 289 145 383 15 49 30
89 33 89 3 0 4 -24 2 -52 -2 -29 1 -64 7 -78 8 -22 10 -17 11 30 1 30 3 64 5
75 2 11 7 40 10 65 10 74 11 76 73 90 31 6 73 20 92 30 19 10 36 18 38 19 1 1
-2 -7 -7 -17z m-2780 -64 c17 -31 38 -125 34 -148 -2 -9 -15 -65 -29 -123 -41
-164 -39 -245 5 -346 l19 -44 -22 19 c-12 10 -36 32 -53 47 -36 33 -100 72
-135 82 -16 4 -6 -6 27 -29 56 -38 183 -153 183 -165 0 -4 -6 -8 -12 -8 -7 -1
-47 -4 -88 -7 -60 -5 -69 -4 -45 5 48 17 75 32 75 41 0 5 -9 4 -19 -2 -11 -5
-37 -12 -58 -15 -21 -3 -48 -8 -60 -10 -20 -5 -30 9 -91 132 -123 247 -136
296 -98 378 23 51 29 56 113 99 48 25 117 61 153 81 77 41 85 42 101 13z
m2272 -122 c66 -32 65 -28 14 -136 -17 -36 -33 -69 -35 -74 -13 -26 24 13 49
52 16 25 29 43 29 40 0 -10 -144 -365 -174 -430 -30 -63 -46 -73 -190 -113
-89 -24 -77 -41 13 -18 30 7 56 12 57 10 6 -6 -157 -55 -212 -65 -74 -13 -201
-15 -208 -4 -3 6 7 39 22 74 16 34 32 75 36 90 7 30 50 58 90 58 14 0 28 5 31
10 4 6 -7 10 -27 10 -32 0 -30 2 42 49 174 112 248 221 253 372 l2 63 70 22
c39 12 72 21 75 20 3 -2 31 -15 63 -30z m-3723 -108 c63 -17 120 -32 127 -34
10 -3 90 -157 150 -289 13 -29 13 -29 -16 6 -17 20 -39 39 -50 42 -13 3 0 -18
40 -66 32 -38 59 -74 59 -78 0 -12 -263 72 -283 91 -5 4 4 5 20 3 22 -4 25 -2
13 6 -8 6 -21 11 -28 11 -13 0 -152 66 -164 78 -8 8 -14 52 -22 152 -3 41 -2
54 3 35 9 -34 29 -75 37 -75 3 0 2 4 -1 10 -3 5 -12 41 -19 80 -13 65 -13 71
3 65 9 -4 68 -20 131 -37z m3350 7 c0 -26 -8 -43 -34 -68 -45 -45 -156 -130
-162 -124 -6 6 16 147 26 166 7 12 125 57 158 60 7 1 12 -12 12 -34z m-2522
-293 c96 -158 123 -216 94 -198 -4 2 -36 7 -72 10 -36 4 -80 11 -98 17 -50 16
-51 2 -1 -20 38 -18 40 -20 14 -16 -16 2 -67 7 -113 10 l-82 7 -40 83 c-22 46
-40 94 -40 107 -1 20 -2 21 -10 6 -7 -12 -6 -30 4 -60 8 -23 14 -43 12 -45 -1
-1 -37 66 -80 150 -43 83 -68 140 -56 124 42 -53 61 -50 24 4 -19 29 -33 54
-31 56 5 4 28 9 94 19 26 3 57 8 68 10 11 2 45 7 75 10 30 3 57 8 59 10 2 2
18 -20 35 -49 18 -29 83 -135 144 -235z m2044 128 c21 -34 51 -68 69 -78 69
-38 69 -37 -1 -72 -36 -17 -101 -42 -145 -56 l-80 -25 65 6 65 5 -33 -20 c-18
-11 -35 -20 -38 -20 -3 0 -32 -18 -64 -40 -32 -22 -61 -40 -64 -40 -12 0 -157
151 -152 158 2 4 17 9 33 10 15 1 37 4 48 6 11 3 40 5 65 6 41 1 43 2 20 11
-24 10 -143 5 -161 -7 -5 -3 -9 -3 -9 0 0 3 26 19 58 36 32 17 80 50 108 74
40 35 154 104 174 105 3 1 22 -26 42 -59z m-922 -103 c62 -24 64 -25 40 -35
-14 -6 -20 -11 -15 -12 10 -1 -19 -14 -132 -59 -57 -22 -70 -21 -25 3 23 13
24 15 7 16 -11 0 -29 -6 -40 -14 -16 -11 -14 0 15 61 40 85 35 84 150 40z
m160 -171 c0 -1 -22 -17 -50 -34 -80 -50 -58 -53 33 -6 45 24 85 44 88 44 3 0
23 -16 45 -36 21 -19 74 -60 118 -91 70 -50 77 -58 61 -69 -30 -23 -331 -134
-361 -134 -14 0 -154 109 -209 163 -30 28 -30 29 -5 22 l25 -6 -23 14 c-22 13
-16 17 125 74 81 33 149 61 151 62 1 0 2 -1 2 -3z m-2112 -92 c31 -20 67 -45
80 -57 12 -11 22 -16 22 -10 0 11 -61 68 -96 90 -10 7 13 1 51 -13 116 -41
299 -91 342 -93 24 -2 82 -147 83 -206 0 -23 3 -26 10 -15 11 18 5 73 -15 130
-8 23 -15 45 -15 47 0 3 45 -63 101 -147 55 -83 99 -153 97 -155 -2 -1 -25 3
-53 10 -27 7 -52 9 -55 5 -7 -11 -163 41 -266 89 -155 73 -231 134 -292 234
-34 57 -66 127 -57 127 3 0 32 -16 63 -36z m3937 -17 c-8 -13 -13 -26 -10 -29
10 -10 -96 -118 -159 -163 -56 -39 -131 -85 -141 -85 -2 0 7 19 20 43 12 24
26 54 30 68 6 21 4 21 -14 -6 -24 -35 -29 -26 -5 10 9 14 22 25 28 25 19 0
173 79 186 96 11 12 10 13 -6 8 -10 -3 1 8 26 24 55 37 65 39 45 9z m-1052
-14 c-6 -16 -3 -15 17 2 l23 20 -16 -31 c-14 -26 -20 -30 -46 -26 -38 5 -39
13 -3 34 34 22 33 22 25 1z m957 -27 c0 -2 -7 -7 -16 -10 -8 -3 -12 -2 -9 4 6
10 25 14 25 6z m-2208 -68 c14 -18 40 -60 59 -93 20 -36 35 -54 37 -44 3 17
-37 97 -67 134 -9 11 18 -13 59 -52 42 -40 85 -80 98 -88 12 -9 22 -20 22 -24
0 -5 -73 -30 -162 -56 l-162 -48 -53 57 c-29 31 -53 51 -53 43 0 -7 3 -17 8
-23 4 -5 -8 6 -26 26 -29 31 -76 93 -95 126 -5 8 7 10 36 7 70 -6 181 -25 205
-34 12 -5 22 -5 22 0 0 13 -47 30 -125 45 -38 8 -68 15 -65 16 3 0 23 3 45 6
22 3 67 11 100 18 88 19 90 19 117 -16z m-707 -8 l100 -2 -50 -13 c-64 -16
-101 -31 -109 -44 -4 -6 7 -6 30 1 82 22 214 35 214 21 0 -14 87 -142 139
-203 l46 -54 -45 30 c-65 45 -126 74 -152 73 -15 0 -18 -3 -8 -6 8 -3 42 -21
74 -41 51 -31 56 -36 39 -43 -37 -13 -86 -19 -208 -25 l-120 -5 -32 44 c-17
24 -62 89 -99 143 l-68 98 79 -82 c44 -45 87 -82 95 -82 8 0 -19 36 -62 79
-42 44 -81 89 -88 100 -10 20 -9 21 57 17 37 -3 113 -5 168 -6z m1816 -63 l87
-23 -22 -35 c-30 -51 -127 -171 -151 -189 -22 -16 -35 -17 -80 -7 -16 4 -43 9
-60 12 -16 2 -55 14 -85 24 -54 20 -55 20 -31 1 13 -11 21 -20 18 -20 -9 0
-140 51 -170 67 l-31 16 119 47 c66 25 158 65 205 87 47 23 92 41 100 42 8 0
54 -10 101 -22z m889 -46 c-5 -11 -15 -23 -21 -27 -6 -3 -3 5 6 20 20 30 30
35 15 7z m-457 -28 c51 2 84 1 75 -1 -10 -2 -18 -8 -18 -14 0 -10 23 -7 123
18 79 19 79 19 56 -21 -26 -44 -39 -52 -34 -23 3 22 3 22 -8 4 -7 -11 -30 -42
-52 -69 -39 -49 -58 -60 -130 -72 -16 -3 -37 -8 -45 -10 -8 -2 -37 -7 -65 -10
-27 -4 -59 -9 -70 -12 -20 -6 -20 -5 -1 15 18 21 18 21 -15 12 -19 -5 -58 -11
-87 -14 -51 -4 -53 -4 -40 14 77 109 115 168 120 181 6 14 14 15 53 8 26 -5
88 -7 138 -6z m-1090 -187 c84 -50 195 -100 277 -127 66 -22 40 -24 -50 -4
-75 17 -91 18 -70 6 24 -14 170 -49 214 -50 15 -1 16 -3 6 -16 -7 -9 -27 -26
-44 -37 -29 -21 -30 -21 -13 -2 32 38 17 36 -30 -4 -27 -21 -67 -49 -91 -61
l-43 -22 -77 22 c-87 24 -254 83 -280 99 -13 7 -6 8 26 4 23 -4 42 -4 42 -2 0
3 -27 15 -60 27 -73 27 -190 92 -191 106 0 6 69 31 153 57 84 25 154 47 155
47 1 1 35 -19 76 -43z m-823 19 c10 -13 9 -15 -11 -15 -13 0 -55 -3 -94 -5
l-70 -5 64 15 c35 8 66 17 69 20 10 10 29 5 42 -10z m-185 -25 c-3 -5 -12 -10
-18 -10 -7 0 -6 4 3 10 19 12 23 12 15 0z m422 -187 c33 -38 72 -86 86 -108
16 -23 27 -33 27 -23 0 9 -20 46 -44 81 l-44 64 58 -38 c70 -47 233 -129 318
-159 61 -22 90 -41 55 -36 -10 2 -22 -3 -28 -10 -11 -14 -172 -29 -305 -28
-68 1 -102 7 -171 32 -171 61 -272 116 -349 190 l-35 34 55 -6 c82 -9 123 -17
145 -28 19 -10 19 -9 4 7 -9 9 -52 25 -95 35 -70 16 -74 18 -39 20 75 4 130
10 205 24 41 8 80 14 86 15 7 1 39 -29 71 -66z m358 9 c-3 -3 -11 0 -18 7 -9
10 -8 11 6 5 10 -3 15 -9 12 -12z m1170 -2 c-3 -5 -26 -18 -50 -29 -46 -20
-61 -38 -25 -28 39 10 19 -4 -47 -34 -80 -36 -192 -65 -286 -74 l-67 -7 76 75
76 75 82 -2 c73 -2 156 7 131 14 -5 2 15 6 45 10 30 4 59 7 63 8 5 1 5 -2 2
-8z m-345 -24 c0 -2 -8 -10 -17 -17 -16 -13 -17 -12 -4 4 13 16 21 21 21 13z
m610 -9 c0 -2 -10 -12 -22 -23 l-23 -19 19 23 c18 21 26 27 26 19z"/>
</g>
</svg>
