<svg id="Layer_1" data-name="Layer 1" xmlns="http://www.w3.org/2000/svg" viewBox="0 0 983.88 982.96"><defs><style>.cls-1,.cls-2{fill:#fff;}.cls-2{stroke:#000;stroke-miterlimit:10;stroke-width:5px;}</style></defs><title>White_LOGO-blk-outline</title><path class="cls-1" d="M107,686a125.32,125.32,0,0,1-33.09-29.7c-11.44-14.49-21.27-31.51-30-52-7-16.5-12.89-34.52-18.92-58.42a389,389,0,0,1-9.36-50.57c-.8-7-1.37-14.34-1.7-21.82-.24-5.6-.45-24.84-.29-26.41.23-2.06.32-4.14.41-6.15,0-.71.07-1.42.11-2.13,2.39-44.66,15.09-88.23,37.75-129.49.79-1.45,1.61-2.88,2.43-4.31s1.54-2.69,2.28-4c6.19-11.2,14.81-22,26.33-32.9C81.24,279,79.46,290.74,77.29,305a24.72,24.72,0,0,1-3.07,9c-16,27.16-26.93,58-32.45,91.65a387.57,387.57,0,0,0-4.32,86.17c2.26,37.23,12.1,73.77,29.26,108.61,6.75,13.7,14.64,26.42,23.51,40.43a23.65,23.65,0,0,0,6.61,6.95c2.4,1.66,7.06,6.78,9.24,9.29.53,9.3,1.22,22.71,1.39,29.19Z" transform="translate(-11 -15.29)"/><path d="M79.29,275.05c-1.32,8.83-2.77,18.43-4.47,29.52a22.29,22.29,0,0,1-2.75,8.14C55.9,340.14,44.88,371.26,39.3,405.23A390.71,390.71,0,0,0,35,492c2.28,37.56,12.21,74.43,29.52,109.56,6.8,13.81,14.73,26.59,23.64,40.67a26.3,26.3,0,0,0,7.3,7.68c1.85,1.26,5.63,5.29,8.22,8.22.48,8.49.92,17.36,1.17,23.56a124,124,0,0,1-29-26.91c-11.31-14.32-21-31.15-29.71-51.47-7-16.37-12.8-34.27-18.8-58A387.39,387.39,0,0,1,18,495c-.8-6.93-1.37-14.21-1.69-21.64-.23-5.38-.45-24-.3-26.06s.33-4.24.42-6.28c0-.7.06-1.4.1-2.1C19,394.6,31.55,351.39,54,310.46c.78-1.42,1.61-2.87,2.41-4.27s1.54-2.69,2.3-4.07a127.36,127.36,0,0,1,20.56-27.07m6.29-11.95c-1.69.28-2.63,1.4-3.65,2.36-10.78,10.13-20.38,21.22-27.57,34.24-1.55,2.8-3.19,5.55-4.72,8.36-22.35,40.7-35.56,84.07-38.06,130.56-.15,2.71-.21,5.44-.51,8.14-.2,1.83.06,21.65.29,26.78.31,7.35.87,14.7,1.71,22a389,389,0,0,0,9.41,50.9c5.06,20,10.92,39.77,19.05,58.79,8,18.75,17.7,36.54,30.38,52.6a127.07,127.07,0,0,0,33.76,30.28,41.69,41.69,0,0,0,4.19,2.32h0c.62,0-1.35-34.34-1.35-34.34s-6.81-8-10.28-10.36a21.09,21.09,0,0,1-5.9-6.22C84,626.4,75.82,613.25,69,599.3c-16.74-34-26.71-69.83-29-107.65A384.12,384.12,0,0,1,44.24,406c5.28-32.2,15.53-62.62,32.14-90.79a27.37,27.37,0,0,0,3.38-9.92q2.94-19.2,5.8-38.42a26.73,26.73,0,0,0,0-3.81Z" transform="translate(-11 -15.29)"/><path class="cls-1" d="M991.14,517.2c-1.11-5.68-2.23-11.52-3.15-17.29-4.18-26.22-11-54-21.37-87.33-8.58-27.51-18.13-56.87-29.85-85.23-3.63-8.78-6.87-15.91-10.18-22.43-5.76-11.32-13.4-22.35-24.05-34.72a285.62,285.62,0,0,0-39.2-37.31c-27.15-21.55-85-28.37-94.65-29.37-6.58-11.12-15.39-26.09-19.74-33.67,21.81,6,103.58,30,122.79,42.84a188.89,188.89,0,0,1,29.36,24.58,360.92,360.92,0,0,1,39,47.34c10.09,14.5,18.73,31.64,26.4,52.39,5.61,15.17,10.32,31.54,15.28,53.09,3.88,16.84,6.52,30.68,8.3,43.56.41,3,.67,6.16.91,9.2.15,1.83.3,3.66.48,5.49.16,1.56.38,3.12.6,4.63.09.63.17,1.25.26,1.88v51.23a20.43,20.43,0,0,0-.83,6c0,.79,0,1.52-.11,2.24C991.34,515.32,991.25,516.27,991.14,517.2Z" transform="translate(-11 -15.29)"/><path d="M754.16,173.85c27.83,7.85,98.92,29.34,116.19,40.92a187,187,0,0,1,29,24.25,358.93,358.93,0,0,1,38.78,47c10,14.33,18.51,31.28,26.1,51.83,5.57,15.06,10.26,31.34,15.2,52.78,3.86,16.77,6.48,30.54,8.25,43.34.41,2.95.65,5.92.9,9.05.15,1.81.3,3.69.48,5.55.16,1.62.39,3.21.61,4.74l.24,1.69v41c-4.24-25.31-10.9-52.17-20.88-84.16-8.59-27.56-18.16-57-29.92-85.45-3.66-8.85-6.92-16-10.26-22.6-5.85-11.51-13.6-22.7-24.38-35.22a288.31,288.31,0,0,0-39.55-37.64c-26.67-21.17-82-28.36-94.68-29.76-5-8.5-11.5-19.48-16.05-27.32M744,166h0c0,.74,23.19,39.88,23.19,39.88s65.81,6.12,94.6,29a281.44,281.44,0,0,1,38.86,37c9.11,10.57,17.38,21.75,23.71,34.21,3.69,7.26,7,14.73,10.1,22.25,11.49,27.79,20.83,56.33,29.77,85s16.57,57.4,21.29,87c1.31,8.2,3,16.34,4.56,24.5a28.43,28.43,0,0,0,1.43,3.82c.64-2.63,1.16-4.3,1.43-6,.42-2.67.74-5.37,1-8.07s0-5.43,1-8V454.68c-.3-2.2-.65-4.39-.87-6.59-.5-4.93-.73-9.89-1.41-14.78-2-14.74-5-29.3-8.33-43.78-4.16-18.08-8.94-36-15.38-53.4-6.89-18.65-15.29-36.56-26.68-52.94a361.4,361.4,0,0,0-39.33-47.68,193,193,0,0,0-29.75-24.89C850.88,195.69,745.66,166,744,166Z" transform="translate(-11 -15.29)"/><path class="cls-1" d="M465.06,995.75c-11.42,0-17.38-.06-18.07-.12a212.63,212.63,0,0,1-36.76-6.72c-35.66-10.13-65.37-29.11-88.29-56.4-.7-.83-1.35-1.71-2-2.62,7,0,21.09.42,24.31.51,4.31,2.65,31.68,19.48,39.95,24.27,15.32,8.87,30.3,14.59,45.79,17.47a120.3,120.3,0,0,0,21.95,2.05,115.34,115.34,0,0,0,13.65-.81c7.71-.91,15.61-1.44,23.24-2,3.22-.22,6.43-.44,9.64-.68,6.84-.52,13.47-1.29,19.71-2.3a78.17,78.17,0,0,0,24.6-8.76,371.94,371.94,0,0,0,37.43-23c3.14-2.18,5.57-3.78,7.88-5.18a17.37,17.37,0,0,1,9.16-2.6,18.51,18.51,0,0,1,2.55.17c6.3.84,12.44,1.67,18.49,2.55a3,3,0,0,1,.41.08c-.2.2-.4.41-.59.62a172.62,172.62,0,0,1-30.83,27.08,208.91,208.91,0,0,1-72.1,31.36,255.38,255.38,0,0,1-30.46,4.82C484,995.69,476.24,995.75,465.06,995.75Z" transform="translate(-11 -15.29)"/><path d="M597.25,931.46h0a16.9,16.9,0,0,1,2.22.15c5,.66,9.62,1.29,14.19,1.93a171.1,171.1,0,0,1-27.8,23.86,206.26,206.26,0,0,1-71.24,31,249.78,249.78,0,0,1-30.07,4.76c-1.13.06-8.77.11-19.45.11-11,0-17-.06-17.9-.12a209.47,209.47,0,0,1-36.29-6.63c-34.5-9.8-63.33-28-85.74-54,6.68.1,15.12.34,18.34.43,5.81,3.57,31.33,19.26,39.43,24,15.59,9,30.82,14.83,46.59,17.77a122.67,122.67,0,0,0,22.41,2.09,120.59,120.59,0,0,0,13.95-.82c7.64-.91,15.5-1.44,23.1-2,3.17-.21,6.44-.43,9.67-.68,6.91-.52,13.62-1.3,19.92-2.32a81,81,0,0,0,25.38-9,376.89,376.89,0,0,0,37.68-23.1c3.1-2.16,5.48-3.73,7.74-5.11a14.83,14.83,0,0,1,7.87-2.23m0-5a19.83,19.83,0,0,0-10.46,3c-2.73,1.66-5.39,3.45-8,5.27a371,371,0,0,1-37.17,22.8,76.46,76.46,0,0,1-23.82,8.5c-6.46,1-13,1.77-19.51,2.27-11,.83-22,1.35-33,2.64a113.07,113.07,0,0,1-13.36.79,117.29,117.29,0,0,1-21.5-2c-16.05-3-30.92-9-45-17.18-9-5.21-40.45-24.57-40.45-24.57s-17.61-.54-25.44-.54h-1.2a9.18,9.18,0,0,0-2.14.53c0,.58,0,1,.11,1.19,1.2,1.69,2.37,3.42,3.7,5,23.86,28.41,53.94,47.09,89.51,57.19a215.67,215.67,0,0,0,37.2,6.8c1,.1,9.56.14,18.36.14,9.46,0,19.15,0,19.89-.12a264.52,264.52,0,0,0,30.76-4.87,210.44,210.44,0,0,0,73-31.75A173.3,173.3,0,0,0,620,934c.92-1,2.25-1.87,2.17-3.83a26.93,26.93,0,0,0-3.49-1c-6.16-.89-12.34-1.72-18.52-2.55a21.65,21.65,0,0,0-2.88-.19Z" transform="translate(-11 -15.29)"/><path class="cls-1" d="M375.8,108.4c-3.89-.26-7.86-.4-11.71-.52-4.94-.17-10-.34-15.15-.79l.87-1c.25-.29.51-.57.75-.87l7.6-8.84c5.38-6.25,10.95-12.7,16.31-19.17,40.69-39.42,83.72-59.41,127.89-59.41,41.62,0,70.27,18,81.92,26.87-6.33,1.43-19.13,3.78-31.07,5.77C549.4,49.17,529.25,43,502,43c-36.37,0-87.71,11.32-125.88,65.19Z" transform="translate(-11 -15.29)"/><path d="M502.37,15.29v5a134.21,134.21,0,0,1,75.89,23.08c-6.66,1.33-16,3-24.86,4.49A177.42,177.42,0,0,0,502,40.47c-36.76,0-88.57,11.37-127.29,65.35-3.51-.21-7-.33-10.49-.44s-6.69-.23-10.09-.43l6-7c5.36-6.22,10.9-12.65,16.24-19.1C397.67,58.23,420,42.79,442.77,33a150.38,150.38,0,0,1,59.59-12.73v-5m0,0c-37.88,0-83.05,15-129.73,60.21-7.85,9.48-16,18.73-24,28.09-.93,1.09-1.91,2.15-2.76,3.31a11.32,11.32,0,0,0-.92,2.29c10.91,1.29,21.46,1,31.71,1.78.62-.58,1-.88,1.31-1.22,37.18-52.58,87-64.28,124-64.28C531.6,45.47,553,53,553,53s35.75-5.94,36.5-7.35c-17.37-14.78-48.45-30.36-87.14-30.36Z" transform="translate(-11 -15.29)"/><path class="cls-1" d="M706.43,861.51a115.86,115.86,0,0,1-11.74-.67c-2-.21-9.44-.75-14-1.08l9.83-22.1c4.15.37,14.51,1.25,21.08,1.25,1.11,0,2.09,0,2.89-.08,11.75-.74,24-3.47,38.46-8.58,38.66-13.64,71.63-31,100.8-53.23.68-.51,1.39-1,2.16-1.52-.45,1.18-.9,2.36-1.34,3.54-2.25,5.93-4.57,12.07-7,18a76.17,76.17,0,0,1-5.77,11.11,35.26,35.26,0,0,1-14.72,13.44c-22.77,11-47.51,22.32-74.06,30.54a257.58,257.58,0,0,1-36.47,8.63A64.25,64.25,0,0,1,706.43,861.51Z" transform="translate(-11 -15.29)"/><path d="M850.61,782.51c-1.72,4.53-3.49,9.12-5.35,13.58a74.68,74.68,0,0,1-5.58,10.75A32.82,32.82,0,0,1,826,819.35c-22.68,11-47.31,22.23-73.71,30.4a254,254,0,0,1-36.12,8.55,61.7,61.7,0,0,1-9.73.71,113.79,113.79,0,0,1-11.49-.66c-1.56-.16-6.31-.52-10.48-.82l7.65-17.23c4.9.43,13.68,1.11,19.53,1.11,1.17,0,2.19,0,3.05-.09,12-.75,24.42-3.52,39.13-8.71,36.86-13,68.58-29.42,96.79-50.1m8.49-11.14a6.71,6.71,0,0,0-2,.48,51.49,51.49,0,0,0-4.78,3.18c-30.46,23.16-64.15,40.17-100.12,52.86-12.25,4.32-24.73,7.62-37.79,8.44-.78,0-1.7.08-2.73.08C703.47,836.41,689,835,689,835l-12,27s14.57,1,17.44,1.32a117.37,117.37,0,0,0,12,.69,67.5,67.5,0,0,0,10.51-.77,261.26,261.26,0,0,0,36.82-8.71c25.73-8,50.21-19,74.4-30.67a37.88,37.88,0,0,0,15.77-14.38,78.9,78.9,0,0,0,6-11.47c3.31-8,6.28-16.08,9.36-24.15a2.13,2.13,0,0,0-.14-2.49Z" transform="translate(-11 -15.29)"/><path class="cls-1" d="M583.81,827.21c-2.16-1.54-5.3-3.55-8.36-5.51-3.26-2.09-6.65-4.25-8.5-5.64l-20.58-15.37a9.16,9.16,0,0,1,2.26-.43c4-.15,10.93-2.16,18.23-4.27,6.95-2,14.84-4.31,18.49-4.31a3.47,3.47,0,0,1,1,.09q.84.57,1.71,1.11c.43.27.86.53,1.28.81a179.51,179.51,0,0,1,19.21,14.9l2.37,2.08,1.2.91c-6.15,2.93-13.38,7.14-19.4,10.64C589.29,824.19,585.53,826.38,583.81,827.21Z" transform="translate(-11 -15.29)"/><path d="M585.35,794.18h.06l1.28.81,1.22.78a176,176,0,0,1,19,14.7l.67.59c-5.37,2.75-11.14,6.11-16.11,9-2.53,1.48-5.51,3.21-7.42,4.24-2-1.39-4.56-3-7.2-4.7-3.23-2.07-6.57-4.21-8.35-5.54l-7-5.2-8.82-6.59c4.13-.76,9.4-2.29,14.89-3.88,6.8-2,14.5-4.21,17.8-4.21m0-5c-7.74,0-29.09,8.29-36.81,8.58a21.33,21.33,0,0,0-6,1.63c-.54,1.48.55,2,1.35,2.56l21.59,16.12C569.41,821,579.39,827,583.32,830a.21.21,0,0,0,.13,0c2,0,21.88-13.11,33.55-17.84l-4.48-3.36-2.36-2.06a182.54,182.54,0,0,0-19.48-15.11c-1-.66-2-1.27-3-2a4.22,4.22,0,0,0-2.3-.48Z" transform="translate(-11 -15.29)"/><path class="cls-1" d="M433.54,885c20.61-6.16,89.92-26.87,91.38-27.41l3-1.12c16.66-6.14,33.88-12.5,51-18,.42-.13.82-.29,1.16-.43,11-2,39.17-19.24,61.86-33.11,10-6.11,18.6-11.37,23-13.6,20.4-10.38,41.28-23.45,65.73-41.11,5.25-3.79,8.55-8.56,9.82-14.17,1.05-4.64,1.87-9.23.29-14.26l-.62-2-2,.23-1.1.1a14.93,14.93,0,0,0-2.65.37c-1.45.38-2.89.79-4.34,1.21-1.6.46-3.25.93-4.88,1.34a15.24,15.24,0,0,0-8.81,5.9l-.56.75a24.15,24.15,0,0,0-2.61,4,181.8,181.8,0,0,0-7.5,17.52c-.47,1.34-.8,2.68-1.12,4l-.12.47a7.32,7.32,0,0,1-3.36,4.82c-1.4.87-2.78,1.79-4.11,2.68s-2.87,1.93-4.31,2.81c-5.61,3.42-10.17,6.13-14.37,8.52a12.92,12.92,0,0,1-2.59,1.24,8.9,8.9,0,0,1-1.63-1.48A73,73,0,0,1,668.8,768c-3-3.86-5.92-7.88-8.75-11.77-1.25-1.71-2.5-3.43-3.76-5.14a31.12,31.12,0,0,0-6.25-6.47l-1.29-1-1.42.77c-.34.19-.69.37-1,.54a23.6,23.6,0,0,0-2.5,1.42l-7.54,5.07c-7.46,5-15.17,10.18-22.66,15.42-12.19,8.5-23.94,13.86-35.91,16.39a118.13,118.13,0,0,0-17,4.73c-16.07,6-30.17,11.27-43.08,16.23-6.21,2.38-12.47,4.88-18.53,7.3q-6.12,2.44-12.25,4.87a32.84,32.84,0,0,1-5.8,1.79,6.33,6.33,0,0,1-1.23.12,6.75,6.75,0,0,1-5.77-3.24,24,24,0,0,1-2.14-4.65c-2.49-7.46,1.37-12.76,6.3-14.69l2.18-.87c2.31-.93,4.7-1.89,7.06-2.63a137.57,137.57,0,0,0,30.93-14.33q9.75-6,19.52-11.9,9.5-5.78,19-11.57A99.1,99.1,0,0,1,576.21,745a66.65,66.65,0,0,0,19.87-11.18c10.14-8.07,16.28-18.86,18.25-32.08,1.12-7.45,1.56-15,2-22.33.18-3.24.38-6.59.63-9.87a15,15,0,0,0,0-1.78c-.37-6.18-3.94-9.88-10.07-10.4-.5-.05-1-.06-1.52-.06s-1.16,0-1.73.06l-4.38.29c-5.63.37-11.46.75-17.19,1.2-4.73.37-9.47.89-13.92,1.38a24.47,24.47,0,0,0-16.67,9.49,57.39,57.39,0,0,0-7.54,11.81c-9.19,19.69-8.45,38.51,2.2,56l1.38,2.24c.87,1.42,1.75,2.84,2.6,4.27.49.84,1,1.7,1.47,2.7a3.7,3.7,0,0,1-.45.36c-2,1.27-4.56,2.93-7.24,4.54L533,758.13c-7,4.14-14.13,8.43-21.16,12.7a7,7,0,0,1-3.72,1.13,7.16,7.16,0,0,1-1.73-.21l-.84-.2c-4.8-1.13-9.34-2.19-13.39-4.57a16.25,16.25,0,0,0-3.09-1.4,8.66,8.66,0,0,0-2.79-.48,7.18,7.18,0,0,0-5.58,2.64,23.17,23.17,0,0,0-3.35,4.84c-3.63,7.51-8,14.61-12.17,21.48a37.12,37.12,0,0,0-2.8,5.5,18.16,18.16,0,0,0,3.5,18.77,29.5,29.5,0,0,0,3.23,3.1c6.47,5.34,29.07,23.1,39.49,30.14-8,3.06-24.78,9.06-29.15,9.94q-8.3-9.21-16.63-18.38-15-16.53-30-33c-7.37-8.1-12.15-16.22-14.6-24.83a65.43,65.43,0,0,1-2-25.63c1.4-12.13,4.48-23.84,7.61-34.69,3-10.48,2.54-20.23-1.47-29.79-.26-.64-.51-1.29-.76-1.94a41.26,41.26,0,0,0-1.71-4c-.65-1.28-2.65-5.17-7.07-5.17a11.05,11.05,0,0,0-4.41,1.06c-1.07.46-2.08,1-3.05,1.53a22.48,22.48,0,0,1-4.17,1.89c-9.52,2.74-19.08,7.74-29.22,15.31a37.82,37.82,0,0,1-5.14,3c-1.37.72-2.79,1.46-4.16,2.33a22.53,22.53,0,0,0-9.1,10.38,53.79,53.79,0,0,0-3.14,9.53c-1,5-.37,10.26,2,16,6.44,15.56,15,36,24.41,56.44l.43.92c.84,1.82,1.7,3.7,2.48,5.56l.06.16c-6.84,0-13.69,0-20.53,0q-10.57,0-21.16-.06a6.26,6.26,0,0,1-5.92-3.09c-.64-1.06-1.33-2.09-2-3.08s-1.31-2-1.91-2.95Q312.58,773.47,297,748l-7.39-12.1q-.75-1.21-1.47-2.43a12.34,12.34,0,0,0-12.66-5.88c-3.8.62-7.2,1.14-10.41,1.6-7.77,1.09-16.79,2.36-25.63,3.53a25.13,25.13,0,0,1-3.17.15l-1.54,0c-3-3.35-12.22-24.84-20-44.72,7.3-3.6,38.43-15.61,54.06-21.65l5.35-2.06a229.92,229.92,0,0,1,27.63-8.5c2.33-.58,4.67-1.24,6.93-1.87,1.55-.44,3.11-.87,4.67-1.29a18.19,18.19,0,0,0,12.3-10.22c7.58-16.11,19.36-31,36-45.54,3.17-2.78,6.58-5.45,9.88-8q2.13-1.65,4.23-3.33c.72-.58,1.46-1.14,2.19-1.69,1-.8,2.11-1.61,3.15-2.48a61.2,61.2,0,0,0,18-24.24c1.46-3.62,3-7.62,4.57-12.23.84-2.38,1.64-4.81,2.42-7.15.9-2.73,1.83-5.55,2.81-8.28a65,65,0,0,0,1.16-40.66q-7.8-27.17-15.62-54.32l-7.48-26c-.43-1.5-.86-3-1.26-4.49A31.39,31.39,0,0,0,371,384.85c-10.09-6-20.28-12.23-30.14-18.24l-7.17-4.37c-5.14-3.14-10.41-6.44-15.06-9.35a101.8,101.8,0,0,0-47.78-15.05c-3.37-.23-6.84-.34-10.59-.34-7.8,0-15.62.5-22.35,1-5.91.41-11.94.7-17.77,1l-5.66.28c-6.32.32-11.95.58-17.24.79l-1.14.07c-.48,0-1,.07-1.46.07a5.34,5.34,0,0,1-.84-.05,8,8,0,0,1,.42-1.52c.1-.32.21-.63.3-.95q2-6.72,4-13.43,2.24-7.54,4.46-15.08c.65-2.19,1.29-4.37,1.84-6.56.93-3.74,3.24-5.61,7.49-6.07,3.58-.4,7.3-.73,11.37-1l1.29-.09c11.9-.81,24.21-1.65,36.32-2.37,3.79-.22,7.87-.43,12-.43l2.14,0h1.07c14.83,0,27.74-5.73,39.47-17.5a17.89,17.89,0,0,0,5-17.29,113,113,0,0,1-2-16.19l-.15-2c-.32-4.13-.67-7.75-1.07-11.08a21.37,21.37,0,0,0-8.72-14.95c-9.94-7.52-20.19-11.26-31.35-11.44H277a39.37,39.37,0,0,0-14.82,3c-5.37,2.18-11.45,4.76-17.33,7.26-2.5,1.06-5,2.12-7.37,3.12,2.57-8.49,9.82-26.77,12.21-29.12,10.51-4.37,20.12-6.49,29.37-6.49a66.24,66.24,0,0,1,27.82,6.41c1.92.87,3.85,1.84,5.72,2.77l3.27,1.63c.71.34,1.43.66,2.12,1l.85.38,1.29.58,1.17-.81a7.6,7.6,0,0,0,3-4.87l.1-.39q3.84-14.37,7.72-28.71a35,35,0,0,1,1.34-4.29c.9-2.25,2.29-3.26,4.5-3.26l1,0c1.12,0,2.18,0,3.21.12,9.42.9,18.73,1.81,27.68,2.72a11.07,11.07,0,0,1,1.27.23,9.71,9.71,0,0,1-.3,1.82c-.08.34-.15.69-.22,1l-.62,3.31c-1.88,10.06-3.77,20.11-5.61,30.18-2.15,11.75-1.66,23.92,1.51,37.2a124.44,124.44,0,0,0,7.46,21.45,23.43,23.43,0,0,0,8.29,10c.75.51,1.48,1,2.22,1.55,1,.69,1.94,1.38,2.93,2l.62.44a6.69,6.69,0,0,0,4,1.69,4.88,4.88,0,0,0,2-.45c3-1.38,2.89-4.36,2.82-5.79,0-.25,0-.49,0-.72,0-1.32,0-2.63,0-3.9,0-.8,0-1.6,0-2.4l0-3.53c0-4.57-.08-9.15-.08-13.72a95.31,95.31,0,0,1,8-38.17A248.61,248.61,0,0,1,444,132.08a189.44,189.44,0,0,1,36.87-32.49,281.82,281.82,0,0,1,95-42.16,219.83,219.83,0,0,1,50.24-5.89c3.48,0,7,.08,10.49.25A214.32,214.32,0,0,1,706.24,67C732.14,77.41,754,88.08,773,99.62c18.12,11,33.29,22.33,46.38,34.68a157,157,0,0,1,29.22,37.49c3.16,5.63,6.17,11.51,9.08,17.19.9,1.75,1.79,3.49,2.7,5.24l.09.18a19.12,19.12,0,0,1,.9,1.9l-20.15-8.2-1.37-.58c-1-.45-2.1-.9-3.23-1.28a21.14,21.14,0,0,1-9.36-6.52c-4.79-5.65-9.75-11.3-14.54-16.77-3.24-3.7-6.49-7.41-9.71-11.14a106.76,106.76,0,0,0-16.14-15.05A332,332,0,0,0,684.64,83.28a195,195,0,0,0-32.08-7.62A177.7,177.7,0,0,0,628.23,74c-2.87,0-5.8.07-8.69.21-17.46.83-34.61,4.55-51.19,8.14-4,.86-8,1.72-11.94,2.55-44,9.09-103.19,70.55-109.78,90.33-7.81,23.42-16.69,55.45-14.66,75.06a46.27,46.27,0,0,0,6.72,20c6.44,10.24,16.23,16.53,29.08,18.68a18.19,18.19,0,0,0,3.1.25,25.09,25.09,0,0,0,5.46-.63,56,56,0,0,0,9.48-3.22c5.12-2.17,9.53-5.43,13.8-8.57l.1-.08a10.17,10.17,0,0,0,4.18-8,20,20,0,0,0-2-9.51c-2.47-5.47-3.91-12-5.44-18.91-2.1-9.48-4.26-19.29-9.39-26.67-4.52-6.53-22.39-32.78-26.93-39.44l15-18.32c6.25,7.08,26.19,30.47,29.29,34.82q6.62,9.26,13.18,18.55t13.22,18.62c2.19,3.07,4.54,6.31,7.16,9.32,2.28,2.61,4.36,4.35,7.1,4.35,2.16,0,4.19-1.08,6.77-2.84,1.32-.9,3.21-2.39,4.26-3.3q9.93-8.59,19.82-17.21l5.36-4.66,4.84-4.23-.94-1.76c-.23-.42-.43-.81-.61-1.18a21.54,21.54,0,0,0-1.23-2.21A233.85,233.85,0,0,0,556.23,170c-11.09-11.51-22.27-23.31-33.07-34.73l-11.9-12.56c-.52-.55-1-1.15-1.57-1.78.35-.31.69-.59,1-.83q4.19-3,8.37-6c5.21-3.7,10.6-7.53,15.84-11.4A6.9,6.9,0,0,1,539,101.1a6.36,6.36,0,0,1,3.63,1.32,43.39,43.39,0,0,1,5.64,4.54c9.81,9.56,21.39,20.86,32.86,32.26s23.23,23.24,34.52,34.61l2.41,2.42a37.08,37.08,0,0,0,10.69,7.89A30,30,0,0,0,641.42,187a34.86,34.86,0,0,0,8.16-1c11.09-2.71,22.71-6.05,36.56-10.53a36.43,36.43,0,0,1,7-1.5,5.24,5.24,0,0,1,.79,0,6.37,6.37,0,0,1,5.2,2.95,21.62,21.62,0,0,1,1.83,2.9c7.42,14.09,13.44,25.56,18.94,36.1a16.16,16.16,0,0,1,.76,1.72c-.74.19-1.42.36-2.11.5l-4.11.82c-6.19,1.25-12.59,2.53-18.9,3.7a78,78,0,0,0-27.13,10.39,201.82,201.82,0,0,0-29.49,22.14,53.24,53.24,0,0,0-16.55,28.17c-.2.9-.37,1.86-.53,3-.9,6.48,1.39,11.75,6.79,15.67a44.29,44.29,0,0,0,17.69,7.3,48.19,48.19,0,0,0,9.47.93,54,54,0,0,0,9.61-.89,34.66,34.66,0,0,0,12.85-5.19c2.12-1.4,4.12-2.89,6-4.3a76.55,76.55,0,0,1,47.24-16.16,92,92,0,0,1,14.25,1.15,132.27,132.27,0,0,1,27.15,7.54l8.57,3.28c7.31,2.8,14.88,5.69,22.29,8.6a85.36,85.36,0,0,0,20.54,5.11A110,110,0,0,1,851.5,316c1.74.69,6.53,2,9.14,2.71.68,6.22,1.76,18.26,1.41,24.48l-.51-.13a172.08,172.08,0,0,1-17.77-6.71,181.93,181.93,0,0,0-17.62-6.7,68.87,68.87,0,0,0-20-2.67c-2.84,0-5.89.12-9.34.37-5.23.38-10.26,2.14-15.13,3.84-2.42.85-4.71,1.65-7,2.28-3,.83-6,1.76-8.86,2.66-1.95.61-3.9,1.22-5.86,1.8a20.74,20.74,0,0,0-11.64,8.42c-6.3,9.32-14.83,17.26-26.1,24.26a167.89,167.89,0,0,1-21,10.75c-24,10.55-49.19,20.88-74.85,30.72-3.83,1.47-7.45,3.05-10.75,4.69a40,40,0,0,0-6.88,4.4c-6.57,5.18-9.4,12.37-8.42,21.36a35.46,35.46,0,0,0,.87,4.64,409.53,409.53,0,0,0,27.2,75.21c6,12.67,12.38,25.4,18.56,37.7,2.76,5.5,5.53,11,8.26,16.51s7.36,10.08,13.71,13.52c6.68,3.6,12.4,9.23,17,16.71,4.79,7.79,12,13.86,17.79,18.28a61.78,61.78,0,0,0,31.13,12.47,53.32,53.32,0,0,1,17.58,5c6.11,2.93,11.07,5.49,15.61,8.06a96.11,96.11,0,0,0,37.7,12.05c4.68.49,9.43.91,14,1.31l3.56.31c-1.87,8.53-10.95,38.35-13.86,46.5-3.5-1.59-6.55-3-9.45-4.34a24.33,24.33,0,0,0-10.31-2.42,22.66,22.66,0,0,0-7.91,1.46c-1.09.41-2.24.74-3.44,1.09-.94.27-1.92.55-2.89.87a13,13,0,0,0-9,10l-.33,1.57c-.64,3-1.31,6.18-1.89,9.29-3.8,20.28-14.41,37.08-31.54,49.93a128.36,128.36,0,0,1-26.09,14.94c-9.54,4.16-24.24,11.85-34.89,17.57-13.46,7.23-18.79,10.11-21,11.59-3.87,1.5-13.36,7.84-25.36,16-5.19,3.52-11.08,7.51-12.15,8-1.94.81-3.87,1.64-5.8,2.47l-2.6,1.12c-10.05,4.3-65.45,22.36-105.91,35.54-30.78,10-41,13.37-44.57,14.71Z" transform="translate(-11 -15.29)"/><path d="M626.17,54c3.44,0,6.92.08,10.37.25a211.55,211.55,0,0,1,68.77,15c25.77,10.36,47.49,21,66.42,32.44,18,10.89,33,22.13,46,34.36A154.58,154.58,0,0,1,846.44,173c3.14,5.6,6.14,11.45,9,17.11.23.45.46.91.7,1.36l-5.5-2.24-8.49-3.46-1.33-.56c-1.08-.46-2.2-.94-3.43-1.35a18.73,18.73,0,0,1-8.25-5.77c-4.8-5.66-9.77-11.33-14.57-16.81-3.18-3.63-6.48-7.4-9.69-11.11a109.27,109.27,0,0,0-16.51-15.41,334.66,334.66,0,0,0-103-53.88,197.64,197.64,0,0,0-32.49-7.71,179.49,179.49,0,0,0-24.67-1.7c-2.91,0-5.88.07-8.81.21-17.67.85-34.91,4.58-51.59,8.2-3.91.84-8,1.72-11.92,2.54-26.13,5.41-54.79,28.27-69.55,41.41-21.14,18.83-38.45,39.63-42.1,50.58-7.89,23.65-16.85,56.05-14.77,76.11a48.49,48.49,0,0,0,7.09,21.08c6.83,10.87,17.19,17.54,30.78,19.82a20.89,20.89,0,0,0,3.51.28,27.5,27.5,0,0,0,6-.69,57.75,57.75,0,0,0,9.91-3.36c5.39-2.29,9.93-5.63,14.31-8.86l.11-.08a12.55,12.55,0,0,0,5.18-9.92,22.51,22.51,0,0,0-2.22-10.67c-2.36-5.23-3.78-11.64-5.28-18.42-2.15-9.72-4.37-19.77-9.77-27.56-4.23-6.1-20.11-29.41-25.87-37.88l11.93-14.58c7.55,8.68,24.26,28.29,27.2,32.4,4.4,6.17,8.86,12.46,13.17,18.54s8.8,12.43,13.23,18.63c2.22,3.12,4.61,6.42,7.31,9.51,2.36,2.71,5.08,5.21,9,5.21,3.1,0,5.85-1.69,8.17-3.27,1.4-1,3.39-2.52,4.5-3.48q9.85-8.53,19.69-17.1l5.49-4.78,2.25-2,1.1-1,3-2.62-1.88-3.51-.58-1.13a24.85,24.85,0,0,0-1.37-2.45A236.52,236.52,0,0,0,558,168.22c-11.08-11.5-22.25-23.3-33-34.71l-11.63-12.27q3.6-2.58,7.2-5.12c5.21-3.71,10.61-7.53,15.86-11.42a4.65,4.65,0,0,1,2.57-1.1,4.11,4.11,0,0,1,2.21.87,40.65,40.65,0,0,1,5.31,4.28c9.8,9.54,21.36,20.83,32.85,32.24s23.26,23.28,34.57,34.66l2.35,2.36a39.34,39.34,0,0,0,11.41,8.4,32.53,32.53,0,0,0,13.74,3.05,37.23,37.23,0,0,0,8.75-1.09c11.15-2.72,22.83-6.08,36.74-10.58a34.64,34.64,0,0,1,6.51-1.4l.5,0c.47,0,1.72,0,3.2,2a19.1,19.1,0,0,1,1.62,2.55c7.16,13.6,13,24.74,18.31,34.91l-3.06.61c-6.2,1.25-12.61,2.53-18.91,3.7a80.71,80.71,0,0,0-28,10.72,204.74,204.74,0,0,0-29.86,22.42,55.75,55.75,0,0,0-17.3,29.47c-.22,1-.4,2-.57,3.24-1,7.36,1.68,13.6,7.81,18a46.55,46.55,0,0,0,18.66,7.73,50.89,50.89,0,0,0,10,1,57,57,0,0,0,10.05-.93,37.18,37.18,0,0,0,13.78-5.56c2.18-1.44,4.23-3,6.12-4.4a73.93,73.93,0,0,1,45.72-15.65,89.49,89.49,0,0,1,13.86,1.12,130.11,130.11,0,0,1,26.65,7.4l8.56,3.28c7.31,2.8,14.87,5.69,22.28,8.59a87.29,87.29,0,0,0,21.14,5.27,107.48,107.48,0,0,1,26.63,6.56c1.52.61,5,1.61,7.76,2.36.63,6,1.25,13.78,1.29,19.17-4.92-1.62-10-3.75-14.88-5.81a185.33,185.33,0,0,0-17.87-6.79,71.37,71.37,0,0,0-20.72-2.77c-2.9,0-6,.13-9.52.38-5.56.4-10.75,2.21-15.77,4-2.39.83-4.64,1.62-6.86,2.23-3,.84-6,1.78-9,2.69-1.91.59-3.88,1.21-5.82,1.78a23.17,23.17,0,0,0-13,9.43c-6.1,9-14.39,16.72-25.35,23.53a165.37,165.37,0,0,1-20.71,10.58c-24,10.54-49.12,20.86-74.73,30.67-3.91,1.5-7.61,3.11-11,4.79a42.83,42.83,0,0,0-7.31,4.68c-7.18,5.67-10.42,13.82-9.35,23.59a35.76,35.76,0,0,0,.93,5,411.29,411.29,0,0,0,27.36,75.67c6,12.69,12.39,25.42,18.58,37.74,2.72,5.41,5.53,11,8.26,16.51,3,6,7.95,10.92,14.76,14.6,6.29,3.4,11.69,8.73,16.06,15.83,5,8.14,12.46,14.4,18.4,19a64.18,64.18,0,0,0,32.39,13,51.24,51.24,0,0,1,16.76,4.78c6.07,2.91,11,5.45,15.45,8a98.88,98.88,0,0,0,38.68,12.36c4.69.49,9.45.91,14,1.31l.67.06c-2.47,9.69-9,31.45-12.21,40.85-2.48-1.14-4.75-2.18-6.93-3.2a26.84,26.84,0,0,0-11.36-2.65,25.19,25.19,0,0,0-8.78,1.62c-1,.38-2.11.69-3.27,1-1,.28-2,.57-3,.92A15.31,15.31,0,0,0,764,717l-.34,1.63c-.64,3-1.31,6.16-1.89,9.28-3.73,19.92-13.73,35.75-30.58,48.39A126.14,126.14,0,0,1,705.61,791c-9.62,4.2-24.39,11.92-35.08,17.66-6.85,3.68-12.38,6.73-15.06,8.22l-4.59,2.57c-.51.3-1,.57-1.42.84-4.31,1.82-13.31,7.83-25.45,16-4.93,3.34-10.51,7.13-11.77,7.75-2,.82-3.91,1.66-5.81,2.48l-2.55,1.1c-10,4.26-65.3,22.3-105.72,35.47-12.91,4.21-24.05,7.84-32.27,10.55-5.56,1.83-9,3-11.13,3.71l-15.68-11.45c28.54-8.53,85.28-25.5,86.7-26l3.06-1.13c16.63-6.13,33.83-12.47,50.94-18,.4-.13.77-.27,1.1-.4,10.7-2.1,33.66-15.78,62.46-33.39,9.93-6.08,18.51-11.32,22.79-13.5,20.52-10.45,41.52-23.57,66.07-41.32C738,748,741.58,742.72,743,736.5c1.13-5,2-9.93.23-15.56L742,717l-4.09.46-1,.09a17.26,17.26,0,0,0-3.08.44c-1.49.39-3,.81-4.4,1.22-1.65.48-3.21.93-4.79,1.32a17.67,17.67,0,0,0-10.22,6.85c-.18.24-.36.49-.55.73a26.36,26.36,0,0,0-2.86,4.44,181.69,181.69,0,0,0-7.6,17.77,40.58,40.58,0,0,0-1.2,4.22l-.11.46a4.93,4.93,0,0,1-2.26,3.3c-1.44.89-2.83,1.82-4.18,2.73s-2.82,1.89-4.23,2.75c-5.67,3.47-10.08,6.08-14.29,8.47l-.9.5-.29-.3a71.23,71.23,0,0,1-5.14-6c-3-3.85-5.9-7.86-8.73-11.75-1.25-1.71-2.49-3.42-3.75-5.12a33.71,33.71,0,0,0-6.73-7l-2.58-2-2.86,1.56c-.32.18-.65.34-1,.51a23.68,23.68,0,0,0-2.76,1.57l-7.51,5c-7.47,5-15.2,10.21-22.72,15.46-11.91,8.3-23.36,13.54-35,16a120,120,0,0,0-17.31,4.84c-16.13,6-30.23,11.29-43.11,16.24-6.21,2.38-12.47,4.88-18.53,7.3-4,1.61-8.17,3.27-12.26,4.87a31.48,31.48,0,0,1-5.35,1.67,3.94,3.94,0,0,1-.77.07,4.24,4.24,0,0,1-3.62-2,21,21,0,0,1-1.92-4.15c-2.11-6.31,1.29-10.18,4.84-11.58l2.21-.88c2.37-1,4.6-1.84,6.87-2.55A140.32,140.32,0,0,0,519.7,780q9.72-5.94,19.45-11.85,9.52-5.8,19.05-11.61A96.24,96.24,0,0,1,577,747.36a69,69,0,0,0,20.61-11.59c10.65-8.47,17.09-19.8,19.17-33.66,1.13-7.56,1.57-15.18,2-22.55.19-3.23.39-6.57.63-9.83a14.9,14.9,0,0,0,0-2.12c-.43-7.35-5.05-12.12-12.34-12.74-.56,0-1.12-.07-1.73-.07s-1.22,0-1.91.06l-4.38.29c-5.64.37-11.47.76-17.21,1.21-4.79.37-9.54.89-14,1.39-7.25.81-13.42,4.31-18.34,10.4a60,60,0,0,0-7.85,12.32c-9.58,20.5-8.79,40.11,2.32,58.31l1.37,2.22c.86,1.4,1.76,2.84,2.6,4.26l.36.63c-1.7,1.08-3.68,2.34-5.72,3.56q-5.48,3.28-11,6.55c-6.94,4.14-14.11,8.42-21.14,12.69a4.47,4.47,0,0,1-2.42.78,5,5,0,0,1-1.16-.15l-.83-.2c-4.62-1.08-9-2.11-12.71-4.3a18.94,18.94,0,0,0-3.55-1.61,11.1,11.1,0,0,0-3.59-.61,9.76,9.76,0,0,0-7.48,3.51,25.49,25.49,0,0,0-3.7,5.38c-3.58,7.4-7.89,14.45-12.05,21.26a39.8,39.8,0,0,0-3,5.88A20.68,20.68,0,0,0,464,820a32.28,32.28,0,0,0,3.49,3.34c6.44,5.33,16.71,13.36,26.16,20.46,4,3,7.14,5.33,9.59,7.1-7.69,2.85-18.38,6.59-23,7.81-4.72-5.23-9.74-10.78-15.64-17.27q-15-16.53-30-33c-7.11-7.81-11.7-15.61-14-23.84a62.36,62.36,0,0,1-2-24.65C420,748,423,736.39,426.12,725.64a46.3,46.3,0,0,0-1.56-31.45c-.26-.62-.5-1.24-.74-1.87a45.14,45.14,0,0,0-1.81-4.23c-2.22-4.33-5.35-6.53-9.3-6.53a13.54,13.54,0,0,0-5.4,1.26c-1.18.51-2.23,1.08-3.25,1.63a20,20,0,0,1-3.67,1.68c-9.81,2.83-19.64,8-30,15.71a37.55,37.55,0,0,1-4.8,2.83c-1.42.74-2.88,1.51-4.33,2.42a24.91,24.91,0,0,0-10.07,11.54,54.69,54.69,0,0,0-3.29,10c-1.12,5.54-.43,11.24,2.13,17.43,6.45,15.58,15.05,36.08,24.45,56.52l.43.94q.51,1.1,1,2.16l-16.65,0q-10.61,0-21.22-.06c-2.2,0-3.05-.7-3.78-1.9s-1.38-2.14-2.06-3.16-1.28-1.92-1.86-2.87l-31.37-51.28-7.18-11.75c-.49-.8-1-1.6-1.45-2.4a14.92,14.92,0,0,0-12.79-7.28,15.22,15.22,0,0,0-2.43.2c-3.77.62-7.15,1.14-10.35,1.59-7.73,1.09-16.73,2.36-25.61,3.54a25.08,25.08,0,0,1-2.84.12H236c-3-4.57-10.27-21.06-18.11-41,9.7-4.35,37.43-15,51.78-20.58l5.35-2.07a227.38,227.38,0,0,1,27.33-8.4c2.37-.59,4.72-1.25,7-1.89,1.53-.43,3.11-.87,4.65-1.28A20.62,20.62,0,0,0,328,643.6c7.43-15.79,19-30.42,35.38-44.72,3.13-2.73,6.51-5.37,9.77-7.93,1.43-1.12,2.85-2.23,4.26-3.36l2.14-1.66c1.06-.8,2.16-1.64,3.24-2.54a63.58,63.58,0,0,0,18.71-25.22c1.48-3.66,3-7.7,4.62-12.34.85-2.4,1.65-4.84,2.43-7.19.89-2.72,1.82-5.52,2.79-8.22a67.38,67.38,0,0,0,1.21-42.2q-7.83-27.32-15.7-54.61l-7.24-25.13-.16-.54c-.42-1.46-.85-3-1.25-4.45a33.73,33.73,0,0,0-15.89-20.78c-10.08-6-20.27-12.22-30.12-18.24L335,360.1c-5.11-3.11-10.15-6.27-15-9.33A104.32,104.32,0,0,0,271,335.34c-3.43-.23-6.95-.34-10.76-.34-7.87,0-15.75.5-22.52,1-5.89.4-11.91.7-17.73,1l-5.66.28c-6.3.32-11.92.58-17.19.79l3.72-12.55,4.47-15.13,0-.07c.63-2.14,1.28-4.35,1.84-6.6s1.68-3.79,5.34-4.19,7.24-.71,11.27-1l1.29-.09c11.9-.81,24.2-1.64,36.3-2.36,3.75-.22,7.78-.43,11.83-.43l2.09,0h1.12c15.32,0,29.19-6.14,41.24-18.24a20.29,20.29,0,0,0,5.64-19.61,109.05,109.05,0,0,1-2-15.83l-.15-2c-.32-4.17-.68-7.83-1.08-11.19a23.79,23.79,0,0,0-9.69-16.65c-10.38-7.85-21.11-11.75-32.82-11.94H277a41.9,41.9,0,0,0-15.76,3.17c-5.38,2.19-11.47,4.77-17.35,7.28l-2.24.94c2.9-8.25,7.47-19.62,9.59-22.58,10-4.07,19.08-6.05,27.82-6.05a63.82,63.82,0,0,1,26.79,6.18c1.87.86,3.7,1.77,5.64,2.74,1.09.55,2.19,1.1,3.29,1.63.76.38,1.53.72,2.21,1l.82.37,2.59,1.16,2.33-1.62a10.1,10.1,0,0,0,4-6.3l.1-.37c2.27-8.49,5-18.54,7.71-28.7a37.47,37.47,0,0,1,1.24-4c.64-1.58,1.28-1.7,2.19-1.7h.09l.94,0c1.06,0,2.06,0,3,.11,9,.85,17.79,1.72,26.26,2.57,0,.1,0,.19-.05.28l-.61,3.24c-1.86,9.91-3.78,20.16-5.63,30.26-2.22,12.1-1.71,24.61,1.54,38.23a127.45,127.45,0,0,0,7.61,21.88,25.89,25.89,0,0,0,9.17,11c.73.5,1.45,1,2.17,1.52,1,.69,2,1.39,3,2.08l.5.36a9.05,9.05,0,0,0,5.53,2.18,7.38,7.38,0,0,0,3.08-.68c4.56-2.08,4.35-6.67,4.28-8.17,0-.2,0-.39,0-.58,0-1.36,0-2.69,0-4,0-.79,0-1.58,0-2.36l0-3.53c0-4.5-.08-9.15-.08-13.71a92.77,92.77,0,0,1,7.84-37.18,246.28,246.28,0,0,1,39.43-63.2,187.31,187.31,0,0,1,36.39-32.06,279.73,279.73,0,0,1,94.21-41.79A217.62,217.62,0,0,1,626.17,54h0m0-5a221.19,221.19,0,0,0-50.81,6,283,283,0,0,0-95.89,42.53,193.47,193.47,0,0,0-37.34,32.91,250,250,0,0,0-40.24,64.48,97.43,97.43,0,0,0-8.25,39.17c0,5.76.06,11.51.1,17.27,0,2.08.11,4.16.08,6.24,0,1.55.48,3.44-1.34,4.28a2.52,2.52,0,0,1-1,.22c-1.23,0-2.25-1-3.29-1.72-1.74-1.14-3.4-2.39-5.12-3.56a20.85,20.85,0,0,1-7.4-8.93,123.42,123.42,0,0,1-7.32-21c-2.85-12-3.71-24-1.48-36.17,2-11.17,4.14-22.32,6.23-33.48.32-1.71,1-3.39.13-5.37a26.64,26.64,0,0,0-3.09-.66q-13.84-1.4-27.69-2.72c-1.43-.14-2.88-.12-4.32-.14H338c-3.38,0-5.59,1.76-6.82,4.83a39.75,39.75,0,0,0-1.44,4.57q-3.87,14.34-7.71,28.71c-.37,1.37-.6,2.8-2.11,3.86-.91-.41-1.92-.83-2.91-1.31-3-1.47-6-3-9-4.43a68.75,68.75,0,0,0-28.86-6.63c-10,0-20,2.37-30.54,6.76-3.57,1.49-15.78,35.43-14.32,35.43h0c9-3.72,19.89-8.49,28.87-12.13A37,37,0,0,1,277,205.16h.53c11.25.18,21,4.23,29.88,10.93a18.82,18.82,0,0,1,7.75,13.25c.44,3.65.77,7.32,1.06,11,.48,6.22.84,12.46,2.22,18.57a15.33,15.33,0,0,1-4.31,15c-10.39,10.44-22.64,16.77-37.7,16.77h-1l-2.19,0c-4.05,0-8.09.2-12.13.44-12.55.74-25.09,1.6-37.63,2.45q-5.75.39-11.48,1c-4.91.54-8.38,2.91-9.64,7.95-.54,2.17-1.17,4.32-1.81,6.46q-4.2,14.26-8.43,28.52c-.49,1.65-1.35,3.29-.43,5.1a6.3,6.3,0,0,0,2.95.62c.9,0,1.81-.1,2.7-.14q8.64-.34,17.26-.8c7.83-.39,15.67-.73,23.48-1.27,7.4-.51,14.78-.95,22.18-.95,3.47,0,6.94.1,10.42.33,16.75,1.13,32.36,5.74,46.63,14.68,5,3.14,10,6.28,15.08,9.36,12.42,7.57,24.83,15.19,37.33,22.63a28.64,28.64,0,0,1,13.62,17.79c.46,1.7.95,3.39,1.44,5.08q11.46,39.86,22.94,79.73a62.3,62.3,0,0,1-1.11,39.13c-1.84,5.11-3.43,10.31-5.23,15.44-1.43,4.07-2.93,8.12-4.54,12.12a58.4,58.4,0,0,1-17.28,23.26c-1.72,1.43-3.55,2.74-5.3,4.13-4.75,3.79-9.62,7.44-14.2,11.44-15.08,13.16-28,28.06-36.62,46.35a15.69,15.69,0,0,1-10.69,8.88c-3.86,1-7.68,2.18-11.56,3.15a235,235,0,0,0-27.92,8.59c-20.43,7.89-60.49,23.23-61.6,25,.45,1.16,18.64,48.11,22.33,48.24.64,0,1.45,0,2.29,0a28.36,28.36,0,0,0,3.5-.17c8.55-1.13,17.1-2.33,25.65-3.54q5.24-.74,10.46-1.61A9.92,9.92,0,0,1,286,734.74c.48.83,1,1.65,1.48,2.47q19.27,31.51,38.56,63c1.25,2,2.66,4,3.91,6a8.73,8.73,0,0,0,8.05,4.28c13.91,0,27.83.1,41.75.11h0a14.42,14.42,0,0,0,2.91-.65,19.84,19.84,0,0,0-.73-3c-.92-2.22-1.94-4.39-2.94-6.57-8.55-18.59-16.54-37.43-24.37-56.34-2-4.75-2.86-9.54-1.85-14.52a50.74,50.74,0,0,1,3-9.07,20,20,0,0,1,8.12-9.23c3.1-1.94,6.57-3.32,9.46-5.47,8.65-6.45,18.06-11.93,28.42-14.91,2.68-.77,5-2.43,7.53-3.53a8.76,8.76,0,0,1,3.41-.85c2,0,3.52,1.21,4.85,3.81.94,1.84,1.58,3.84,2.39,5.75a41.08,41.08,0,0,1,1.37,28.14c-3.32,11.52-6.31,23.13-7.69,35.1a67.67,67.67,0,0,0,2.1,26.6c2.83,9.92,8.3,18.28,15.16,25.83q15,16.5,30,33,8.71,9.59,17.39,19.22a.55.55,0,0,0,.36.08c3.89,0,36-12,35.32-12.11-2.07-.36-29.77-21.3-43.34-32.5a29.5,29.5,0,0,1-3-2.84,15.6,15.6,0,0,1-3-16.18,33.28,33.28,0,0,1,2.6-5.12c4.34-7.09,8.66-14.19,12.29-21.69a21.21,21.21,0,0,1,3-4.31,4.71,4.71,0,0,1,3.68-1.76,6.23,6.23,0,0,1,2,.35,13.17,13.17,0,0,1,2.62,1.19c4.63,2.71,9.79,3.83,14.92,5a9.94,9.94,0,0,0,2.31.29,9.44,9.44,0,0,0,5-1.5c10.66-6.48,21.4-12.82,32.09-19.23,2.47-1.48,4.9-3,7.32-4.59a24.67,24.67,0,0,0,2.21-1.92c-.93-1.73-1.63-3.15-2.44-4.51-1.3-2.2-2.67-4.36-4-6.55-10.68-17.47-10.57-35.38-2.06-53.58a55,55,0,0,1,7.22-11.3,21.9,21.9,0,0,1,15-8.57c4.61-.52,9.22-1,13.84-1.38,7.17-.56,14.35-1,21.53-1.49.53,0,1.05-.05,1.58-.05s.87,0,1.3.05c4.86.42,7.49,3.15,7.78,8.06a9.89,9.89,0,0,1,0,1.44c-.82,10.67-1,21.4-2.6,32C610,713.8,604.38,724,594.53,731.86a64.63,64.63,0,0,1-19.14,10.78,101.67,101.67,0,0,0-19.8,9.6c-12.82,7.85-25.68,15.62-38.5,23.47a135.37,135.37,0,0,1-30.37,14.07c-3.19,1-6.29,2.33-9.41,3.56-6.08,2.39-10.71,9-7.76,17.81a26.66,26.66,0,0,0,2.38,5.14,9.23,9.23,0,0,0,7.91,4.46,8.89,8.89,0,0,0,1.7-.16,34.37,34.37,0,0,0,6.24-1.93c10.27-4,20.47-8.2,30.76-12.15q21.48-8.25,43.06-16.22a115.71,115.71,0,0,1,16.6-4.64c13.51-2.84,25.56-8.92,36.83-16.78,10-7,20.09-13.67,30.17-20.47,1-.7,2.19-1.21,3.32-1.83a29,29,0,0,1,5.76,6c4.17,5.66,8.24,11.39,12.54,17a74.9,74.9,0,0,0,5.5,6.43c1.49,1.54,2.37,2.25,3.44,2.25s2-.56,3.81-1.57c4.87-2.76,9.67-5.64,14.44-8.56,2.86-1.75,5.59-3.72,8.44-5.49a9.88,9.88,0,0,0,4.47-6.35c.35-1.41.68-2.84,1.17-4.21a176.36,176.36,0,0,1,7.4-17.28,28.93,28.93,0,0,1,2.92-4.37,12.75,12.75,0,0,1,7.41-5c3.1-.77,6.14-1.75,9.24-2.55a24.86,24.86,0,0,1,3.39-.4c1.43,4.55.61,8.78-.34,13-1.22,5.39-4.39,9.47-8.84,12.69-20.89,15.1-42.4,29.2-65.41,40.91-14.1,7.18-69.4,44.13-84.4,46.52a12.22,12.22,0,0,1-1.22.47c-18.24,5.9-36.2,12.58-54.19,19.21-1.58.58-96,28.8-96,28.8l26,19c.92-1,135.39-43.72,151.85-50.77,2.79-1.2,5.57-2.42,8.37-3.58,3.19-1.33,31-21.42,37.46-23.91-.11-.09,37.88-21.32,55.93-29.2a131.4,131.4,0,0,0,26.59-15.23c17.36-13,28.48-30,32.49-51.47.68-3.61,1.46-7.2,2.22-10.8a10.42,10.42,0,0,1,7.31-8.16c2.11-.71,4.31-1.2,6.4-2a19.93,19.93,0,0,1,7-1.31,21.65,21.65,0,0,1,9.25,2.19q5.87,2.73,11.77,5.39h0c.94,0,16.74-51.95,15.33-52.08-6.68-.61-13.38-1.15-20.06-1.85a93.18,93.18,0,0,1-36.73-11.73c-5.14-2.92-10.43-5.59-15.76-8.15a56.06,56.06,0,0,0-18.4-5.24,59.29,59.29,0,0,1-29.87-12c-6.55-5-12.88-10.61-17.18-17.6A48.53,48.53,0,0,0,670.08,588c-5.67-3.07-10-7.1-12.66-12.43-9-18-18.2-36-26.8-54.17a404.34,404.34,0,0,1-27-74.74,33.38,33.38,0,0,1-.81-4.31c-.84-7.68,1.32-14.27,7.48-19.12a37.29,37.29,0,0,1,6.44-4.13c3.43-1.71,7-3.23,10.54-4.6q37.85-14.51,75-30.76a168.76,168.76,0,0,0,21.34-10.91c10.57-6.58,19.83-14.59,26.85-25a18.11,18.11,0,0,1,10.27-7.42c4.91-1.45,9.76-3.09,14.68-4.45,7.1-2,14.3-5.5,21.66-6,3.07-.23,6.12-.37,9.16-.37a66.18,66.18,0,0,1,19.28,2.56c11.78,3.55,23.6,10,35.41,13.42a29.86,29.86,0,0,0,3.4.6c1.34-6.75-1.31-29.33-1.31-29.33s-8.28-2.16-10.5-3a113,113,0,0,0-27.86-6.88,83.17,83.17,0,0,1-20-5c-10.27-4-20.58-7.93-30.87-11.88a135,135,0,0,0-27.67-7.68,94.93,94.93,0,0,0-14.63-1.18,79.1,79.1,0,0,0-48.75,16.67c-1.91,1.45-3.84,2.88-5.84,4.2a32,32,0,0,1-11.92,4.82,51.7,51.7,0,0,1-9.16.85,45.48,45.48,0,0,1-9-.88,41.81,41.81,0,0,1-16.71-6.88c-4.6-3.33-6.56-7.69-5.79-13.3.14-.95.29-1.89.5-2.83a50.54,50.54,0,0,1,15.79-26.86,199.38,199.38,0,0,1,29.12-21.87A75.75,75.75,0,0,1,696,225c7.69-1.42,15.37-3,23-4.52,1.55-.31,3.08-.77,5-1.25-.7-1.7-1.18-3.2-1.9-4.58q-9.42-18.08-18.94-36.11a23.17,23.17,0,0,0-2-3.23,8.85,8.85,0,0,0-7.19-3.95,10.09,10.09,0,0,0-1.09.06,39.52,39.52,0,0,0-7.46,1.61c-12,3.89-24.11,7.49-36.38,10.48a32,32,0,0,1-7.57,1,27.36,27.36,0,0,1-11.63-2.59,34.56,34.56,0,0,1-10-7.38q-18.44-18.56-37-37Q566.54,121.21,550,105.17a45.27,45.27,0,0,0-6-4.81,8.86,8.86,0,0,0-5-1.76,9.32,9.32,0,0,0-5.55,2.08c-8,5.9-16.12,11.56-24.17,17.34-1,.72-1.89,1.62-3,2.63,1.18,1.38,2.16,2.6,3.23,3.73,15,15.79,29.88,31.64,45,47.31a232,232,0,0,1,26.81,33.78c.59.89,1,1.89,1.73,3.19l-3.34,2.92Q567,222.52,554.46,233.45c-1.07.92-2.88,2.33-4,3.13-2.31,1.57-3.92,2.4-5.36,2.4-1.68,0-3.13-1.11-5.21-3.5a114.89,114.89,0,0,1-7-9.12c-8.83-12.37-17.57-24.8-26.4-37.17-3.81-5.35-30.6-36.57-31.44-37.19l-18,22s22.76,33.44,28,41c8.41,12.13,8.53,31.75,14.61,45.19a17.61,17.61,0,0,1,1.78,8.35,7.65,7.65,0,0,1-3.16,6.16c-4.25,3.13-8.51,6.28-13.4,8.36a52.38,52.38,0,0,1-9,3.08,23,23,0,0,1-4.92.57,17.13,17.13,0,0,1-2.69-.21c-11.57-1.94-21-7.39-27.37-17.55A43.42,43.42,0,0,1,434.46,250c-2-19.75,7.54-53,14.54-74,6.53-19.58,66-80,107.92-88.67,20.91-4.33,41.4-9.62,62.74-10.64,2.86-.14,5.71-.21,8.57-.21a175.26,175.26,0,0,1,24,1.65,195.18,195.18,0,0,1,31.68,7.53,327.92,327.92,0,0,1,101.48,53.09,104.54,104.54,0,0,1,15.77,14.7c8.05,9.32,16.26,18.5,24.23,27.89a23.66,23.66,0,0,0,10.49,7.28c1.51.5,3,1.19,4.44,1.79l20.43,8.32a5.12,5.12,0,0,0,1.9.58,2.29,2.29,0,0,0,1.42-.53c.51-2.05-.5-3.9-1.43-5.71-3.89-7.53-7.67-15.12-11.82-22.51a158.84,158.84,0,0,0-29.68-38.08,276.82,276.82,0,0,0-46.8-35c-21.39-13-44-23.48-67.14-32.8a215.61,215.61,0,0,0-70.4-15.39c-3.55-.17-7.08-.25-10.61-.25Z" transform="translate(-11 -15.29)"/><path class="cls-1" d="M657,925.57c-9.36,0-18.88-.81-28.1-1.6l-.48,0c-10.58-.9-21-2.31-31.12-4.19-23.3-4.35-43.51-11.15-61.77-20.77-2.91-1.54-10-5.64-14.68-8.4l28.75-10.18.35.22a27.35,27.35,0,0,0,2.77,1.58,208.85,208.85,0,0,0,54.79,17.63,227,227,0,0,0,39.26,3.24c6.48,0,13.26-.24,20.17-.72,12.95-.9,38.41-4.92,52.09-7.09h0c-8.18,7.13-23,19.86-34.07,29.3-3.68.18-18.43.9-25.68,1C658.58,925.57,657.81,925.57,657,925.57Z" transform="translate(-11 -15.29)"/><path d="M549.35,883.15a25.69,25.69,0,0,0,2.33,1.3,210.81,210.81,0,0,0,55.44,17.83,229,229,0,0,0,39.69,3.28c6.54,0,13.38-.24,20.34-.73,10.66-.73,29.64-3.56,43.71-5.76-8.12,7-18.67,16.07-26.81,23-4.7.23-18,.87-24.74,1-.76,0-1.51,0-2.26,0-9.25,0-18.71-.81-27.86-1.58l-.52,0a311.35,311.35,0,0,1-30.87-4.16c-23-4.3-43-11-61.06-20.52-2-1.07-6.07-3.39-9.93-5.63l22.54-8m.58-5.51L515,890s14.75,8.73,19.41,11.18c19.68,10.37,40.66,16.94,62.47,21a315.27,315.27,0,0,0,31.36,4.22c9.59.82,19.18,1.65,28.81,1.65.77,0,1.55,0,2.33,0,8.42-.12,26.62-1,26.62-1s40.6-34.66,41-35.47h0c-1.28,0-42.68,7.11-60.15,8.32-6.67.46-13.33.71-20,.71a226.61,226.61,0,0,1-38.84-3.2,205,205,0,0,1-54.12-17.42c-1.27-.61-2.43-1.42-3.92-2.3Z" transform="translate(-11 -15.29)"/><path class="cls-1" d="M186,729.7c-7.21-2-14.87-4.19-23.75-6.76a72.82,72.82,0,0,1-7-2.42,6.1,6.1,0,0,1-4.21-5.9c-.13-2.14-.32-4.29-.5-6.37-.15-1.71-.3-3.42-.41-5.13-.49-7.2-.94-14.27-1.33-21a9.55,9.55,0,0,1,0-1.19c.4.08.83.2,1.3.34l.6.17,16.16,4.43C169.7,691,182.44,719.58,186,729.7Z" transform="translate(-11 -15.29)"/><path d="M151.45,684.18c4.58,1.27,9.15,2.53,13.74,3.78,3.11,6.14,12.25,26.63,16.75,38-5.81-1.63-12-3.41-19-5.42-2.2-.64-4.48-1.43-6.76-2.34a3.71,3.71,0,0,1-2.65-3.73c-.13-2.17-.31-4.34-.5-6.44-.14-1.67-.29-3.4-.41-5.08-.43-6.39-.84-12.7-1.19-18.77M148,678.29a5.35,5.35,0,0,0-1.49.21,35.09,35.09,0,0,0-.19,3.72q.62,10.54,1.33,21.07c.26,3.83.69,7.65.91,11.48a8.61,8.61,0,0,0,5.78,8.07,76.18,76.18,0,0,0,7.23,2.5q13.81,4,27.67,7.85h0c2.27,0-20-49.32-20.79-49.52L151.4,679a12.39,12.39,0,0,0-3.4-.7Z" transform="translate(-11 -15.29)"/><path class="cls-1" d="M315.69,890.34l-10.23-.81c-5.1-.41-10.37-.83-15.57-1.19a7.17,7.17,0,0,1-5.75-3.28l-.37-.52c-.32-.44-.64-.88-.93-1.34q-4.23-6.66-8.5-13.31c-10.34-16.14-21-32.82-30.54-49.8-7.34-13.09-14.6-26.53-21.61-39.53q-4.33-8-8.68-16c-3.88-7.14-46.49-100.17-50.11-109.38q-4.67-11.92-9.37-23.83C146.8,613,139.32,594,132.13,575.22A638.49,638.49,0,0,1,100.94,463.1c-2.64-14.22-4.68-29.17-6.08-44.43-.24-2.57-.75-12.15-.92-15.37L113.14,383q.58,5.51,1.15,11c.6,5.81,1.23,11.82,1.9,17.73a384.49,384.49,0,0,0,6.46,39c2,9.34,4.07,18.86,6,28.06,2.22,10.47,4.53,21.31,6.88,31.94a478.77,478.77,0,0,0,25.53,80.79q5.86,14.06,11.69,28.1c12.76,30.72,25.95,62.48,39.5,93.48a876.29,876.29,0,0,0,93.6,163.84c1.77,2.44,3.57,4.85,5.38,7.26q1.47,2,2.93,3.94l.15.19A16.07,16.07,0,0,1,315.69,890.34Z" transform="translate(-11 -15.29)"/><path d="M111.23,388.63q.28,2.79.58,5.59c.6,5.82,1.22,11.83,1.89,17.76a389,389,0,0,0,6.5,39.28c2,9.34,4.08,18.86,6,28.07,2.23,10.47,4.53,21.3,6.89,31.94a482,482,0,0,0,25.66,81.22q5.85,14,11.68,28.07c12.76,30.73,26,62.51,39.53,93.54a879,879,0,0,0,93.87,164.31c1.78,2.45,3.61,4.9,5.38,7.27l1.31,1.75-4.87-.39c-5.11-.41-10.4-.84-15.61-1.2a4.68,4.68,0,0,1-3.9-2.23l-.36-.51c-.32-.44-.62-.86-.86-1.24-2.83-4.45-5.71-9-8.51-13.32-10.32-16.1-21-32.76-30.46-49.67-7.33-13.08-14.58-26.51-21.6-39.5q-4.32-8-8.67-16c-3.63-6.67-46.6-100.49-50-109.11q-4.66-11.93-9.37-23.83c-7.23-18.36-14.71-37.34-21.9-56.06A636.32,636.32,0,0,1,103.4,462.65c-2.63-14.15-4.66-29-6.05-44.21-.22-2.29-.65-10.32-.86-14.2l14.74-15.61m3.49-11L91.38,402.36s.69,13.36,1,16.54c1.37,15,3.37,29.87,6.11,44.66A637.75,637.75,0,0,0,129.8,576.12c10.25,26.71,20.83,53.29,31.28,79.93,3.21,8.18,46,101.94,50.24,109.67,10.07,18.54,20,37.18,30.3,55.59,12.12,21.64,25.83,42.3,39.11,63.23.42.68.91,1.32,1.37,2a9.65,9.65,0,0,0,7.62,4.32c8.93.62,17.85,1.41,26.78,2.08h.15a10.67,10.67,0,0,0,2.17-.51c-.12-2.48-1.4-4.11-2.62-5.75-2.76-3.73-5.57-7.42-8.29-11.17A870.62,870.62,0,0,1,214.57,712.1c-17.6-40.28-34.25-81-51.17-121.54A474.26,474.26,0,0,1,138,510.19c-4.42-20-8.53-40-12.91-60a379.53,379.53,0,0,1-6.42-38.78c-1.12-9.85-2.07-19.71-3.14-29.57-.15-1.42-.81-4.19-.81-4.19Z" transform="translate(-11 -15.29)"/><path class="cls-1" d="M149.42,524.72c-3.1-11.66-7.95-30.87-10-40.25-3.18-14.72-3.2-21-.14-35.19,3-13.75,5.92-27.75,8.77-41.29,2.73-12.91,5.54-26.26,8.37-39.38,12.21-56.81,26.62-107.16,44-153.94,12.53-33.66,25.61-62.52,40-88.23,4.49-8,8.34-14.56,12.12-20.54,14.9-23.64,35.16-41,60.2-51.5a118.28,118.28,0,0,1,42.91-9.21l1.7,0c9,0,25.5,1.46,34.27,2.3L367.76,67.75h-.27c-2.94,0-10.22,0-14.32.31-28.63,1.91-53,13.88-72.56,35.57a141.5,141.5,0,0,0-19.41,28.05c-7.67,14.3-14.34,28.81-19.29,39.87-17.14,38.26-32,79.36-45.31,125.62-7.21,25-13.91,52.59-21.09,86.82-6.71,32-12.58,64.19-19,99.93-1.82,10.09-3.58,20.37-5.28,30.31Z" transform="translate(-11 -15.29)"/><path d="M357.4,47.67c7.16,0,19.15.94,28.12,1.74L366.84,65.25c-3.28,0-9.94,0-13.83.31-29.3,2-54.29,14.21-74.26,36.4A143.88,143.88,0,0,0,259,130.5c-7.71,14.37-14.4,28.94-19.37,40-17.19,38.38-32,79.58-45.43,126-7.23,25.07-13.95,52.72-21.14,87-7.26,34.63-13.78,70.88-19,100-1.76,9.79-3.46,19.74-5.12,29.39-2.67-10.43-5.58-22.26-7-28.92-3.09-14.29-3.12-20.35-.15-34.13s5.92-27.77,8.78-41.31c2.72-12.9,5.54-26.25,8.36-39.36,12.19-56.69,26.57-106.94,43.94-153.6,12.49-33.54,25.52-62.29,39.83-87.88,4.47-8,8.3-14.49,12-20.43C269.33,84,289.2,67,313.76,56.7a115.71,115.71,0,0,1,42-9l1.64,0m0-5-1.77,0a120.15,120.15,0,0,0-43.81,9.41c-26,10.95-46.33,28.65-61.35,52.46-4.26,6.76-8.28,13.68-12.18,20.66-15.88,28.39-28.82,58.12-40.16,88.57-18.72,50.29-32.87,101.88-44.14,154.3-5.78,26.87-11.35,53.79-17.14,80.67-3.18,14.75-3,21.51.15,36.24,2.94,13.61,12.43,50.34,12.87,50.34h0a27.76,27.76,0,0,0,1.05-4.67c2.68-15.43,5.25-30.88,8-46.3,6-33.35,12-66.69,19-99.86,6.1-29.1,12.8-58.06,21-86.64,12.33-42.75,27-84.66,45.19-125.29,6-13.43,12.26-26.74,19.22-39.71a139.26,139.26,0,0,1,19.06-27.55c19-21.08,42.52-32.86,70.87-34.76,4-.27,11.3-.3,14.15-.3h1.18l29.11-24.68s-27.51-2.9-40.38-2.9Z" transform="translate(-11 -15.29)"/><path class="cls-1" d="M904,761.64c3.09-10.27,6.29-20.89,9.54-31.31,3.62-11.64,9.07-23.57,16.65-36.48a253,253,0,0,0,20.61-44.28,231.82,231.82,0,0,0,11.77-48.42c2.86-22.84,3.34-43.68,1.47-63.73a480.39,480.39,0,0,0-12.82-74,211.11,211.11,0,0,0-22.41-55.11,166.84,166.84,0,0,0-16.3-23c-2.42-2.86-4.18-5.11-5.69-7.3-1.31-2.87-2.7-24-3.16-34,5.65,4.95,16.65,15.77,23.57,23.37,20.75,22.79,34.64,50.11,41.28,81.2,5.27,24.73,9.55,47.34,13.09,69.12a363.23,363.23,0,0,1,4.71,50.72,251.13,251.13,0,0,1-10.14,74.54A271.67,271.67,0,0,1,928.87,736a215.51,215.51,0,0,1-25.39,27.25Z" transform="translate(-11 -15.29)"/><path d="M906.48,350c5.84,5.5,13.7,13.38,18.87,19.05,20.45,22.46,34.14,49.39,40.68,80,5.27,24.68,9.54,47.25,13.07,69a359.89,359.89,0,0,1,4.68,50.37,248.88,248.88,0,0,1-10,73.8,269.05,269.05,0,0,1-46.82,92.2A219.19,219.19,0,0,1,908.57,755c2.4-7.94,4.85-16,7.32-23.95a171.84,171.84,0,0,1,16.43-36,256.16,256.16,0,0,0,20.8-44.72A233.53,233.53,0,0,0,965,601.46c2.88-23,3.36-44,1.48-64.27a483,483,0,0,0-12.88-74.4A213.26,213.26,0,0,0,930.93,407a168.85,168.85,0,0,0-16.54-23.37c-2.26-2.67-3.92-4.8-5.35-6.83-1-3.12-2-16.81-2.56-26.84M901.06,339l-.08,0c-.08.94,1.55,37.14,3.7,40.26,1.82,2.63,3.83,5.13,5.9,7.57a164.75,164.75,0,0,1,16,22.68A207.29,207.29,0,0,1,948.77,464a475.42,475.42,0,0,1,12.75,73.63,290.77,290.77,0,0,1-1.46,63.18,231.3,231.3,0,0,1-11.65,47.9A250.6,250.6,0,0,1,928,692.59a177.37,177.37,0,0,0-16.89,37c-3.71,11.9-7.29,23.84-10.88,35.77a21.73,21.73,0,0,0-.5,3.21,3.54,3.54,0,0,0,.45,0c1.71,0,2.46-1.27,3.39-2.09a215.24,215.24,0,0,0,27.26-29,272.8,272.8,0,0,0,47.7-93.91,252.62,252.62,0,0,0,10.24-75.28A363,363,0,0,0,984,517.28c-3.76-23.19-8.21-46.26-13.11-69.24-6.66-31.2-20.36-58.74-41.88-82.36-8.19-9-26.11-26.64-28-26.64Z" transform="translate(-11 -15.29)"/><path class="cls-1" d="M237.57,828.84a63,63,0,0,1-11.13-1.74c-28.19-6.47-55.68-16.74-84.06-31.38-1.58-.81-3.14-1.65-4.71-2.48-2.35-1.25-4.78-2.55-7.22-3.76a148.17,148.17,0,0,1-47.89-37.65c-21-25-36.68-50.11-47.83-76.84C28,658.88,23.16,641.26,19.92,621.14c-4.2-26.09-4.14-52.07-3.63-71.78l0-.56q8.22,24.94,16.41,49.89l8.42,25.63q1.5,4.56,3,9.13c2.37,7.34,4.82,14.93,7.47,22.33,11.86,33,30.75,63.36,56.17,90.22a130.74,130.74,0,0,0,24.62,20,231,231,0,0,0,48.4,23.22c6.39,2.26,12.94,4.34,19.27,6.36,3.32,1.06,6.63,2.11,9.93,3.19,2.7.89,5.41,1.78,8,2.82a21.49,21.49,0,0,1,11.23,10.23c2.35,4.53,4.61,9.22,6.8,13.75C236.5,826.64,237,827.74,237.57,828.84Z" transform="translate(-11 -15.29)"/><path d="M18.56,563.58l11.82,36,8.4,25.55q1.5,4.56,3,9.13c2.38,7.36,4.83,15,7.5,22.39,12,33.34,31.05,64,56.7,91.09A132.84,132.84,0,0,0,131,768.08,232.78,232.78,0,0,0,180,791.56c6.42,2.26,13,4.36,19.33,6.38,3.26,1,6.63,2.11,9.92,3.19l.06,0c2.7.89,5.26,1.72,7.73,2.74A19,19,0,0,1,227,813c2.21,4.26,4.35,8.67,6.42,13-2.24-.33-4.41-.79-6.37-1.24-28-6.43-55.28-16.63-83.47-31.17-1.56-.8-3.15-1.65-4.68-2.47-2.37-1.26-4.82-2.56-7.29-3.79a145.85,145.85,0,0,1-47.09-37C63.61,725.44,48.09,700.52,37,674c-6.65-15.93-11.44-33.36-14.65-53.29s-3.92-40-3.83-57.16M16,542.18c-.52.7-1.21,1.25-1.38,1.93a26.18,26.18,0,0,0-.8,5.19c-.63,24.17-.19,48.28,3.66,72.24,3,18.7,7.67,36.93,15,54.42,11.87,28.42,28.45,54,48.22,77.48a150.3,150.3,0,0,0,48.7,38.28c4,2,7.92,4.17,11.89,6.22,27,13.91,55,24.8,84.65,31.6a61.46,61.46,0,0,0,12.79,1.83h0a9.53,9.53,0,0,0,2.16-.55,8.69,8.69,0,0,0-.36-1.67c-3-6.18-5.95-12.4-9.11-18.5a23.94,23.94,0,0,0-12.51-11.39c-2.65-1.09-5.39-2-8.12-2.88-9.71-3.19-19.51-6.13-29.15-9.54a229.34,229.34,0,0,1-47.87-23,128.76,128.76,0,0,1-24.17-19.6C85,718.28,66.07,688.69,54,654.93c-3.73-10.37-7-20.91-10.42-31.39q-12.51-38-25-76c-.59-1.79-.89-3.75-2.55-5.31Z" transform="translate(-11 -15.29)"/><path class="cls-1" d="M802,291.65q-10-3-20-6.06-10.8-3.29-21.6-6.56a9.28,9.28,0,0,1-6-5.53c-2.35-5.19-4.27-9.49-6-13.54l-5.86-13.53c-6.51-15-13.24-30.58-19.77-45.91A135.92,135.92,0,0,0,699.59,164a260.64,260.64,0,0,0-36.16-33.59c-11.73-9.09-23.78-18.15-35.43-26.9q-7.74-5.82-15.47-11.64l-2.28-1.73c-2.34-1.76-4.74-3.57-7.1-5.39l1.54-.13c6-.5,12.28-1,18.4-1,1.48,0,2.94,0,4.32.09A45.41,45.41,0,0,1,655,94.07c13.46,11.13,31.09,25.93,48.1,41.72a327.8,327.8,0,0,1,34.13,37.13,425.12,425.12,0,0,1,34.12,50.56,251.94,251.94,0,0,1,16,33.9c3,7.48,6.24,15,9.4,22.21,1.39,3.2,2.79,6.4,4.16,9.61Z" transform="translate(-11 -15.29)"/><path d="M623.09,86.07h0c1.45,0,2.87,0,4.21.09A43,43,0,0,1,653.42,96c13.44,11.11,31,25.88,48,41.63a326.42,326.42,0,0,1,33.87,36.85,422.45,422.45,0,0,1,33.91,50.26,249.38,249.38,0,0,1,15.85,33.57c3,7.52,6.26,15,9.43,22.3l3.08,7.09-14.84-4.51q-10.79-3.29-21.57-6.54a6.88,6.88,0,0,1-4.41-4.18c-2.34-5.14-4.25-9.43-6-13.49q-2.93-6.78-5.86-13.54c-6.51-15-13.24-30.57-19.76-45.89a138.15,138.15,0,0,0-23.65-37.22A262.64,262.64,0,0,0,665,128.41c-11.74-9.11-23.8-18.17-35.47-26.94Q621.77,95.67,614,89.84l-2.28-1.72-1.9-1.44c4.4-.34,8.87-.61,13.23-.61m0-5c-7.8,0-15.57.81-23.34,1.41a6,6,0,0,0-1.54.74A12.9,12.9,0,0,0,600,85.41c3.65,2.85,7.37,5.62,11.07,8.42,17,12.83,34.06,25.49,50.86,38.53a259.33,259.33,0,0,1,35.82,33.27,132.35,132.35,0,0,1,22.8,35.87c8.45,19.86,17.07,39.64,25.64,59.45,2,4.55,4,9.07,6,13.58a11.75,11.75,0,0,0,7.52,6.89c14.07,4.25,28.12,8.56,42.19,12.81a28.2,28.2,0,0,0,4.15.5l-2.82-6.52c-4.53-10.58-9.3-21.06-13.53-31.76a257.62,257.62,0,0,0-16.17-34.22,425.38,425.38,0,0,0-34.32-50.86A329.17,329.17,0,0,0,704.82,134c-15.6-14.48-31.81-28.26-48.21-41.82a47.68,47.68,0,0,0-29.09-11c-1.48-.07-2.95-.1-4.43-.1Z" transform="translate(-11 -15.29)"/><path class="cls-1" d="M332.29,921.46c-1.26,0-2.51,0-3.76,0-39.27-.56-74.51-7.34-107.73-20.72-8.08-3.26-16.27-7-25-11.55-25.9-13.32-45-34.06-56.8-61.65-2.27-5.32-5.49-18.83-7.18-26.28l22.63,11.43c3.18,5.13,24.36,38.84,37,47.53a186,186,0,0,0,25.86,14.45,267.58,267.58,0,0,0,67,21.84,251.06,251.06,0,0,0,44,4.06c4.81,0,9.65-.16,14.39-.46,7.62-.5,15.28-1.43,22.69-2.32l3.2-.38c2.43-.29,8.74-.46,17.32-.46h2.47c3.06,2.71,15.28,13.57,19.65,17.91-1.45.31-2.76.59-4.07.84a287.67,287.67,0,0,1-45.32,5.12l-7,.23C345.27,921.24,338.71,921.46,332.29,921.46Z" transform="translate(-11 -15.29)"/><path d="M135.42,805.87l17.23,8.7c4.63,7.44,24.66,39,37.39,47.68a187.61,187.61,0,0,0,26.2,14.65,269.87,269.87,0,0,0,67.61,22,253.11,253.11,0,0,0,44.46,4.1c4.86,0,9.76-.16,14.55-.47,7.71-.5,15.43-1.43,22.89-2.33l3.14-.38c2.33-.28,8.53-.44,17-.44h1.53c4.41,3.91,11,9.77,15.41,13.91a284,284,0,0,1-44.27,5l-7,.23c-6.32.21-12.86.43-19.25.43l-3.73,0c-38.95-.56-73.9-7.28-106.83-20.54-8-3.23-16.13-7-24.83-11.45-25.36-13.05-44.08-33.37-55.64-60.41-1.67-3.9-4-13-5.84-20.66m-7.22-9.25s5.13,24.07,8.46,31.88c11.89,27.81,31,49,58,62.89,8.25,4.24,16.65,8.17,25.25,11.63,34.85,14,71.2,20.38,108.63,20.91,1.27,0,2.53,0,3.8,0,8.8,0,17.62-.4,26.42-.66a291.32,291.32,0,0,0,45.71-5.17c2.5-.47,5-1,8.25-1.74-1.05-1.28-1.5-1.91-2-2.47-4-4.18-21.31-19.49-21.31-19.49H385.9c-5,0-14.15.06-17.61.48-8.57,1-17.12,2.12-25.76,2.68q-7.12.46-14.22.46a246.47,246.47,0,0,1-43.58-4,263.36,263.36,0,0,1-66.35-21.64,184.17,184.17,0,0,1-25.52-14.26c-13.15-9-36.69-47.38-36.69-47.38l-28-14.12Z" transform="translate(-11 -15.29)"/><path class="cls-1" d="M897.46,621.71a468.37,468.37,0,0,0-12-72.89c-8.36-33.28-20.34-67.4-36.62-104.3-13.33-30.25-28.07-60.43-42.31-89.62l-1.79-3.66q-3.1-6.37-6.18-12.77c5.51.41,11,.86,16.52,1.31l6.11.49a4.7,4.7,0,0,1,4.2,2.57l.65,1.17c.32.57.64,1.13.93,1.71,21.37,42.38,37.51,77.78,50.81,111.43C892,493.08,902.63,526.4,910.3,559c.88,3.76,1.7,7.62,2.49,11.36.55,2.61,1.1,5.21,1.67,7.81l.17.77c.67,3,1.36,6.13,2.27,9.18a27.13,27.13,0,0,1,.86,12.83C916.86,603.88,903.54,616.91,897.46,621.71Z" transform="translate(-11 -15.29)"/><path d="M802.71,341.29l12.2,1,6.1.49c1.47.12,1.87.64,2.2,1.26.22.41.45.82.68,1.22.31.57.61,1.1.87,1.61,21.33,42.31,37.45,77.65,50.72,111.22,14.16,35.82,24.75,69,32.39,101.51.87,3.74,1.69,7.59,2.47,11.31.54,2.57,1.1,5.22,1.68,7.84l.18.78c.67,3,1.37,6.21,2.31,9.33a25,25,0,0,1,.86,11.32c-1.47,2.79-9.83,11.2-15.85,16.54a471,471,0,0,0-11.61-68.49c-8.4-33.41-20.42-67.66-36.76-104.7C837.79,413.21,823,383,808.78,353.78L807,350.15q-2.16-4.44-4.3-8.86m-5.43-5.42a2.24,2.24,0,0,0-2,1A19.62,19.62,0,0,0,796,339q3.21,6.71,6.48,13.38c15.07,30.88,30.19,61.74,44.06,93.18,14.85,33.69,27.49,68.16,36.48,103.91a469.33,469.33,0,0,1,12.21,76.21.19.19,0,0,0,.22.2c2.43,0,23.94-20.21,24.73-24.43a29.48,29.48,0,0,0-.92-14c-1-3.21-1.67-6.49-2.4-9.77-1.42-6.39-2.67-12.83-4.17-19.2-8.2-34.92-19.43-68.87-32.6-102.21-15.06-38.08-32.48-75.08-50.91-111.63-.5-1-1.07-2-1.6-3a7.2,7.2,0,0,0-6.21-3.87c-7.65-.62-15.3-1.26-22.95-1.82-.38,0-.78-.09-1.18-.09Z" transform="translate(-11 -15.29)"/><path class="cls-1" d="M781.77,808.74c.09-.18.22-.41.41-.72s.38-.63.54-.95c7.17-14.08,13.79-28.32,19.66-42.33,12.7-30.27,23.39-62.82,32.68-99.52,7.31-28.86,13.52-58.76,18.48-88.87,2.1-12.74,4.1-25.72,6-38.27q1.26-8.1,2.52-16.2c.36-2.35.73-4.71,1.09-7.07l1.29-8.27c.13.41.26.84.39,1.32l1.75,6.52c1.67,6.2,3.4,12.61,5,18.93l.44,1.69c1.2,4.58,2.44,9.32,3.4,14a84.78,84.78,0,0,1,.18,32.88c-1.82,9.65-4,19.88-7.09,33.17l-2.73,11.79c-4.33,18.78-8.81,38.19-13.62,57.17a673.09,673.09,0,0,1-31.59,94.57,50.26,50.26,0,0,1-5.89,10.8,27.6,27.6,0,0,1-10,8.49c-4.52,2.25-9.16,4.47-13.64,6.62l-7.48,3.6A5.42,5.42,0,0,1,781.77,808.74Z" transform="translate(-11 -15.29)"/><path d="M865.15,518.53c1.37,5.09,2.76,10.28,4.1,15.41l.44,1.68c1.19,4.55,2.42,9.26,3.37,13.88a82.15,82.15,0,0,1,.17,31.91c-1.82,9.62-4,19.81-7.07,33.07l-2.73,11.81c-4.33,18.76-8.8,38.15-13.6,57.1a671.89,671.89,0,0,1-31.48,94.21,47.23,47.23,0,0,1-5.59,10.28,25.09,25.09,0,0,1-9.06,7.74c-4.53,2.25-9.17,4.48-13.66,6.63l-2.76,1.33c6.3-12.62,12.15-25.34,17.41-37.87,12.75-30.39,23.47-63.06,32.79-99.88C844.8,636.91,851,606.94,856,576.76c2.09-12.73,4.09-25.67,6-38.19q1.26-8.16,2.53-16.3c.19-1.25.39-2.49.58-3.74m-1.86-18a21.57,21.57,0,0,0-.79,2.48c-1,6.16-1.91,12.32-2.87,18.48-2.84,18.15-5.57,36.32-8.56,54.45q-7.37,44.7-18.43,88.66c-8.56,33.8-19.06,67-32.56,99.16q-9,21.45-19.59,42.16c-.63,1.23-1.71,2.37-1.3,4.06a3.31,3.31,0,0,0,2.56,1.25,7.3,7.3,0,0,0,3-.91c7-3.41,14.12-6.75,21.13-10.23a30.15,30.15,0,0,0,10.86-9.24A53,53,0,0,0,823,779.53a672.5,672.5,0,0,0,31.71-94.92c5.81-22.91,11-46,16.36-69,2.56-11.05,5-22.13,7.12-33.27a87.24,87.24,0,0,0-.19-33.85c-1.09-5.31-2.5-10.56-3.88-15.82-2.22-8.5-4.52-17-6.8-25.46-.65-2.44-1.47-4.79-4-6.67Z" transform="translate(-11 -15.29)"/><path class="cls-1" d="M754.05,918.17c5.08-7.25,14.16-19.64,20.55-28.24,5.21-3.17,13.34-8.08,14.19-8.51,26-13.07,45.81-32.06,58.76-56.42,3-5.6,5.81-11.69,8.43-18.1a770.86,770.86,0,0,0,26.57-76c1-3.25,2.16-6.68,3.94-11.13,1.61-4,9.38-32.39,10.73-37.37,7.65-7,16.11-14.34,20.78-17.89-5,40.91-27.88,112.9-36.68,134.69l-.06.15c-1.75,5.3-3.86,10.64-5.89,15.8-1,2.5-2,5-2.92,7.5-9.23,24.29-25.48,45.08-48.29,61.78A197,197,0,0,1,778.33,909C772.78,911.08,762,915.17,754.05,918.17Z" transform="translate(-11 -15.29)"/><path d="M914.65,670.37c-6.23,40.22-26.91,106.19-35.65,127.84l-.06.15-.05.15c-1.73,5.24-3.82,10.54-5.84,15.66-1,2.47-2,5-2.94,7.54-9.05,23.84-25,44.24-47.43,60.65a194,194,0,0,1-45.24,24.25c-3.89,1.49-10.33,3.95-16.58,6.32,4.42-6.15,10-13.83,15.45-21.12,5.37-3.26,12.68-7.67,13.6-8.16,26.52-13.31,46.65-32.65,59.85-57.48,3-5.68,5.88-11.84,8.53-18.32A775,775,0,0,0,885,731.55c.92-3.17,2.11-6.53,3.86-10.9,1.61-4,8.73-30,10.63-36.94,5.12-4.67,10.77-9.63,15.21-13.34m6.11-10.48C918,659.89,895,681,895,681s-9.13,33.56-10.83,37.79c-1.49,3.73-2.9,7.52-4,11.36A768,768,0,0,1,853.67,806c-2.48,6.06-5.24,12-8.33,17.87-12.85,24.19-32.2,42.57-57.67,55.36-1.26.63-14.79,8.85-14.79,8.85s-26,35.05-24.89,35.05h0c7.06-2.6,24.17-9.11,31.2-11.8a198.16,198.16,0,0,0,46.4-24.88c22.74-16.64,39.46-37.39,49.16-62.91,3-7.8,6.23-15.51,8.85-23.4C892.88,777.19,917.33,699.67,921,660c0-.08-.12-.11-.24-.11Z" transform="translate(-11 -15.29)"/><path class="cls-1" d="M87.8,349.14c-.12-.63-.2-1.3-.29-2l-.06-.53A194.41,194.41,0,0,1,87,302.67a364.18,364.18,0,0,1,6.73-43.27c9.11-40.42,30-75,62.11-102.68A221,221,0,0,1,185,135.56a110.27,110.27,0,0,1,44.9-15.3c.6-.07,1.2-.17,1.82-.28a17.36,17.36,0,0,1,2.81-.34,1.51,1.51,0,0,1-.11.22c-1.88,3.54-3.79,7.06-5.7,10.59-1.74,3.22-3.49,6.44-5.22,9.67-1.54,2.88-3.92,4.78-7.73,6.15A131.31,131.31,0,0,0,181,165a159.3,159.3,0,0,0-15.95,13.57,211.65,211.65,0,0,0-46.55,69.22c-7.63,18.45-8.86,73.86-9,83-2.7,2.15-6.44,5.38-10.37,8.78C95,343.1,90.83,346.74,87.8,349.14Z" transform="translate(-11 -15.29)"/><path d="M230,122.77l-3.5,6.47q-2.62,4.84-5.23,9.7c-1.24,2.33-3.15,3.82-6.38,5A133.49,133.49,0,0,0,179.52,163a162.1,162.1,0,0,0-16.2,13.79,214.13,214.13,0,0,0-47.1,70c-7.52,18.18-9,70.74-9.18,82.77-2.63,2.14-6,5.05-9.53,8.1-2.68,2.32-5.41,4.68-7.81,6.69a193.16,193.16,0,0,1-.19-41.43,363.44,363.44,0,0,1,6.69-43,185.3,185.3,0,0,1,22.28-55.7,192.68,192.68,0,0,1,39-45.64,221,221,0,0,1,28.8-20.92A107.59,107.59,0,0,1,230,122.77m4.56-5.63a39.69,39.69,0,0,0-5,.64,112.23,112.23,0,0,0-45.91,15.65,224,224,0,0,0-29.46,21.4c-32.26,27.85-53.51,62.34-62.91,104a372.41,372.41,0,0,0-6.78,43.56A196,196,0,0,0,85,346.92c.25,2,.4,4.06,1.56,5.76a4.83,4.83,0,0,0,1.17-.3c5.78-4.29,18.6-16,24.3-20.38,0,0,.77-63.81,8.84-83.3a208.45,208.45,0,0,1,46-68.4A152.75,152.75,0,0,1,182.55,167a127.59,127.59,0,0,1,34.07-18.33c3.94-1.43,7.08-3.58,9.09-7.33,3.62-6.76,7.31-13.49,10.92-20.26a24.82,24.82,0,0,0,1.19-3.35,9.45,9.45,0,0,0-3.23-.55Z" transform="translate(-11 -15.29)"/><path class="cls-1" d="M605.72,979.9c-3.34,0-6.76-.11-10.15-.32-6.5-.41-12.29-1-17.58-1.85l3.22-2.54c4.65-3.69,9.47-7.49,14.25-11.16,5.51-4.22,12.19-6.59,21-7.46,39.72-3.9,74.77-20.92,104.19-50.58a223.4,223.4,0,0,0,24.16-29.09c2.66-3.79,5.5-7.35,8.66-11.28a24.21,24.21,0,0,1,12.22-8c5.1-1.57,10.22-3.33,15.17-5l6.25-2.14.25-.08c-19.06,33.63-37.85,58.54-59,78.23a192.47,192.47,0,0,1-87.83,47.23A151.84,151.84,0,0,1,605.72,979.9Z" transform="translate(-11 -15.29)"/><path d="M781.91,854.91c-17.81,30.52-35.49,53.52-55.22,71.91A190.11,190.11,0,0,1,640,973.44a149,149,0,0,1-34.26,4c-3.3,0-6.66-.11-10-.32-4.14-.26-8-.6-11.59-1,4.22-3.33,8.55-6.74,12.84-10,5.13-3.93,11.4-6.14,19.74-7,40.32-4,75.89-21.23,105.72-51.31a224.73,224.73,0,0,0,24.43-29.41c2.62-3.73,5.43-7.26,8.57-11.15a21.67,21.67,0,0,1,11-7.15c5.14-1.58,10.27-3.34,15.23-5l.24-.08m9.67-8.59c-2.28.79-3.76,1.3-5.25,1.8-7.11,2.4-14.19,4.93-21.36,7.14a26.77,26.77,0,0,0-13.43,8.79c-3,3.73-6,7.49-8.76,11.41a221.36,221.36,0,0,1-23.89,28.76c-28.38,28.63-62.29,45.89-102.66,49.86-8.09.8-15.73,2.94-22.29,8s-13.1,10.25-19.63,15.4c-.62.49-1.28,1-.7,2.07a181.53,181.53,0,0,0,21.81,2.55q5.16.33,10.31.33a153,153,0,0,0,35.41-4.1,194.07,194.07,0,0,0,89-47.83c25.22-23.5,44.25-51.64,61-81.51a11.73,11.73,0,0,0,.51-2.64Z" transform="translate(-11 -15.29)"/><path class="cls-1" d="M891,466.91q-2.28-5.69-4.54-11.37c-3.87-9.72-7.88-19.77-11.92-29.62a31.21,31.21,0,0,1-2.3-12.56c.17-10.27.24-20.72.31-30.82l0-5.65a484.94,484.94,0,0,0-2.61-50.53,444.41,444.41,0,0,0-8-52.88c-1.43-6.52-3.11-13.09-4.74-19.43-.89-3.47-1.78-6.93-2.63-10.4-.45-1.83-.86-3.77-1.28-6,7.53,5.11,14.74,10.35,20.87,16.87a45,45,0,0,1,11.93,23.58l.24,1.39c.5,2.92,1,5.95,1.37,8.91,1.38,11.46,2.5,21.1,3.52,30.92.38,3.59.6,7.28.81,10.86.09,1.45.18,2.9.28,4.36,2.16,32.15,2.65,58.26,1.55,82.16-.22,4.65-.39,9.38-.55,13.95-.21,5.95-.43,12.1-.76,18.14-.25,4.79-.74,9.68-1.21,14.41Z" transform="translate(-11 -15.29)"/><path d="M857,243.3a102.26,102.26,0,0,1,15.28,12.92,42.53,42.53,0,0,1,11.29,22.29l.23,1.39c.52,3,1,5.89,1.36,8.78,1.19,9.89,2.43,20.47,3.52,30.89.36,3.53.58,7.2.8,10.74.09,1.46.17,2.92.27,4.38,2.16,32.06,2.65,58.08,1.55,81.88-.22,4.67-.39,9.4-.55,14-.21,5.94-.43,12.08-.75,18.09-.14,2.57-.34,5.18-.58,7.78l-.76-1.92c-3.86-9.69-7.86-19.71-11.89-29.53a28.62,28.62,0,0,1-2.11-11.57c.17-10.32.24-20.81.31-30.95l0-5.55a490,490,0,0,0-2.62-50.78A447.5,447.5,0,0,0,864.35,273c-1.44-6.57-3.13-13.16-4.76-19.53-.85-3.32-1.73-6.75-2.56-10.12m-6.2-9.56a9.42,9.42,0,0,0-.35,2.54c.46,2.67,1,5.34,1.63,8,2.44,9.93,5.17,19.79,7.36,29.77a443.57,443.57,0,0,1,8,52.58,487.88,487.88,0,0,1,2.6,50.27c-.09,12.15-.15,24.3-.35,36.45a33.43,33.43,0,0,0,2.49,13.54c5.63,13.75,11.08,27.58,16.61,41.37a20.54,20.54,0,0,0,1.32,3.08,6.29,6.29,0,0,0,1.53,1.33c1.53-1.23,1.54-2.73,1.67-4.15.61-6.52,1.36-13,1.71-19.58.57-10.7.81-21.41,1.3-32.11,1.27-27.51.3-55-1.55-82.44-.34-5.11-.56-10.22-1.09-15.31-1.08-10.33-2.29-20.65-3.52-31-.42-3.49-1-6.95-1.63-10.42A47.32,47.32,0,0,0,876,252.79c-7-7.38-15.22-13.15-23.59-18.77a5.93,5.93,0,0,0-1.53-.28Z" transform="translate(-11 -15.29)"/><path class="cls-1" d="M508.45,961.11a12.5,12.5,0,0,1-4.2-.75c-21.6-7.71-39.75-16.14-55.49-25.78A195.32,195.32,0,0,1,410.31,904c-3.44-3.55-7-7.1-10.39-10.54s-7-7.06-10.48-10.64a166.14,166.14,0,0,1-24.7-32.14c-.68-1.18-1.3-2.38-1.93-3.65.59,0,1.15-.05,1.7-.05H366l4.75,0,4.78,0c2.84,0,5.16,0,7.29-.11h.53c3.86,0,6.63,1.54,9,5A211,211,0,0,0,427,891.05c18.84,16.67,40.39,30.12,65.87,41.11a355.74,355.74,0,0,0,48.37,16.44l1.68.45c-7.07,3.07-22.07,8.74-30.44,11.4A13.44,13.44,0,0,1,508.45,961.11Z" transform="translate(-11 -15.29)"/><path d="M383.34,849.44c3,0,5,1.13,6.92,3.91a213.45,213.45,0,0,0,35.1,39.57c19,16.85,40.81,30.44,66.54,41.53a343,343,0,0,0,43.33,15.07c-7.51,3-17.38,6.61-23.49,8.54a10.7,10.7,0,0,1-3.29.55,9.88,9.88,0,0,1-3.36-.61c-21.44-7.65-39.44-16-55-25.55a193.06,193.06,0,0,1-38-30.15c-3.44-3.56-7-7.12-10.41-10.56s-7-7.06-10.45-10.62a162.77,162.77,0,0,1-24.3-31.6l3.8,0,4.79,0c2.87,0,5.21,0,7.37-.11h.44m0-5h-.62c-2.39.08-4.79.11-7.19.11-3.17,0-6.35,0-9.52,0H364.5c-1.56,0-3.11.15-5.13.25a13.28,13.28,0,0,0,.55,2.11c.85,1.71,1.7,3.44,2.66,5.09a169.35,169.35,0,0,0,25.06,32.63c6.89,7.12,14,14.06,20.87,21.18a196.49,196.49,0,0,0,38.95,30.93c17.65,10.82,36.5,19.06,56,26a14.78,14.78,0,0,0,5,.9,15.9,15.9,0,0,0,4.8-.78c10.66-3.38,36-13.05,35.14-13.92a5.13,5.13,0,0,0-1.88-1.37c-1.5-.56-3.06-.94-4.6-1.36a355.48,355.48,0,0,1-48-16.32c-23.8-10.26-45.75-23.47-65.2-40.68a207.39,207.39,0,0,1-34.29-38.65c-2.75-4-6.22-6.09-11.05-6.09Z" transform="translate(-11 -15.29)"/><path class="cls-1" d="M143.8,761.87c-6.8-4.73-13.14-9.18-19.33-13.56a8.53,8.53,0,0,1-3.69-6.66l-.1-1.22c-.18-2.25-.37-4.57-.48-6.84q-.54-10.77-1-21.56c-.7-14.76-1.43-30-2.31-45-.94-16-1.16-32.22-.67-48.2.57-18.35,1.76-32.4,3.83-45.53l.11-.64c.26-1.7.52-3.34.87-4.93l2,5.49c2,5.52,4.06,11,6.13,16.54a140.68,140.68,0,0,1,8,34.3c.82,7.34,1,14.88,1.12,22.18.08,3.82.16,7.77.34,11.66.83,18.5,1.72,37.3,2.59,55.49l.25,5.36c.16,3.46.36,6.92.55,10.37q.18,3,.33,5.93l0,.6Q143.12,748.74,143.8,761.87Z" transform="translate(-11 -15.29)"/><path d="M121.92,577.41c1.6,4.36,3.25,8.8,4.89,13.17a138.76,138.76,0,0,1,7.91,33.7c.8,7.23.95,14.72,1.1,22,.08,3.83.16,7.8.34,11.72.83,18.61,1.73,37.52,2.6,55.8l.24,5.06c.17,3.47.36,7,.56,10.37l.33,5.95,0,.83c.37,6.86.74,13.91,1.11,20.93-5.24-3.66-10.23-7.17-15.12-10.63a6.07,6.07,0,0,1-2.65-4.82l-.1-1.19c-.18-2.24-.37-4.55-.48-6.79q-.54-10.79-1-21.55c-.7-14.78-1.42-30-2.3-45.08-.94-15.93-1.16-32.07-.67-48a369.82,369.82,0,0,1,3.24-41.45m-1.43-15.58-.27,0c-1.55,3.46-2.08,7.26-2.68,11a364.59,364.59,0,0,0-3.85,45.84q-.76,24.22.67,48.43c1.3,22.18,2.23,44.39,3.34,66.59.13,2.71.37,5.42.59,8.13a11,11,0,0,0,4.74,8.5q10.36,7.35,20.81,14.59a10.56,10.56,0,0,0,2.36.87c.06-1.31.18-2.24.14-3.16q-.71-13.89-1.46-27.78c-.29-5.43-.62-10.85-.88-16.28q-1.45-30.44-2.85-60.85c-.5-11.33-.21-22.7-1.47-34a144.15,144.15,0,0,0-8.19-34.9c-2.92-7.78-5.77-15.58-8.66-23.37a18.71,18.71,0,0,0-.83-2.24c-.3-.58-.49-1.39-1.51-1.39Z" transform="translate(-11 -15.29)"/><path class="cls-1" d="M414.85,149.45a16.63,16.63,0,0,1-2.25-.16c-12.41-1.63-25.05-3-37.27-4.41l-8.5-.95c-16.29-1.84-32.3-2.94-47.59-3.26-5.49-.12-11.38-.17-18.53-.17q-7.12,0-14.25.05-6.66,0-13.33,0c-1.35,0-2.7,0-4.05.07l-3.22.06q4.58-7.36,9.13-14.66l3.59-5.76c1.35-2.15,3.24-3.12,6.14-3.12H285c4.38.07,8.77.1,13.16.13s8.82.07,13.23.14l5.15.09c13.87.24,28.21.49,42.3.9,5.72.17,11.54.51,17.17.84,3.53.21,7.05.41,10.58.58a85.61,85.61,0,0,1,19.23,3.37c7.09,2,14.27,4.18,21.22,6.28l6.49,1.95c-.22.32-.43.61-.64.89q-1.93,2.47-3.9,4.93c-2.14,2.71-4.36,5.5-6.48,8.32A8.69,8.69,0,0,1,414.85,149.45Z" transform="translate(-11 -15.29)"/><path d="M284.72,119.68h.18c4.41.07,8.88.1,13.19.13s8.81.07,13.2.14l5.12.09c13.88.24,28.22.49,42.31.9,5.68.17,11.49.51,17.1.84,3.47.2,7.06.41,10.6.58a82.47,82.47,0,0,1,18.67,3.28c7.07,2,14.25,4.17,21.2,6.27l3,.9L427,135.74c-2.16,2.72-4.39,5.53-6.52,8.37a6.27,6.27,0,0,1-5.61,2.84,13.46,13.46,0,0,1-1.92-.14c-12.44-1.63-25.08-3.05-37.32-4.42l-8.49-.95c-16.38-1.85-32.47-2.95-47.83-3.27-5.51-.12-11.41-.17-18.58-.17-4.76,0-9.59,0-14.26.05q-6.66,0-13.32,0c-.91,0-1.82,0-2.72,0q3.33-5.34,6.65-10.65l3.65-5.86c.74-1.19,1.67-1.94,4-1.94m0-5c-3.53,0-6.33,1.21-8.26,4.3q-6.72,10.78-13.44,21.57a1.92,1.92,0,0,0-.13,2.46c.72.06,1.63.21,2.53.21h0c2.56,0,5.11-.13,7.67-.13,9.19,0,18.39-.09,27.58-.09,6.16,0,12.32,0,18.48.17,15.82.33,31.62,1.46,47.36,3.24,15.25,1.72,30.51,3.36,45.72,5.36a19.54,19.54,0,0,0,2.58.18,11.18,11.18,0,0,0,9.6-4.84c3.37-4.47,6.92-8.8,10.36-13.22.77-1,1.41-2.08,2.4-3.55a19.31,19.31,0,0,0-2.28-1c-9.48-2.84-18.95-5.75-28.48-8.46a87.24,87.24,0,0,0-19.79-3.46c-9.27-.45-18.52-1.15-27.79-1.43-15.83-.46-31.66-.71-47.49-1-8.8-.15-17.59-.12-26.39-.27Z" transform="translate(-11 -15.29)"/><path class="cls-1" d="M45.33,476.05c1.06-16.35,1.93-29.59,2.75-41.65.31-4.6.64-6.89,1-9.3s.67-4.75,1-9.3c2-6.94,42.69-69.27,100.55-96.48,1.73-.82,5.66-2.47,8.87-3.81-1.78,6.84-5.66,20.39-8.45,29.92-3.25,1.52-12.41,5.85-14.58,7.19a266.17,266.17,0,0,0-35.28,25.53,170.05,170.05,0,0,0-25.21,27C66.4,418,59.1,432.68,53.62,449.91c-2.08,6.56-4.12,13.25-6.09,19.72-.75,2.47-1.51,4.94-2.26,7.41Z" transform="translate(-11 -15.29)"/><path d="M155.74,319.8c-1.75,6.36-4.29,15.27-6.8,23.85-4,1.88-11.71,5.56-13.8,6.84a268,268,0,0,0-35.61,25.77A173.71,173.71,0,0,0,74,403.67c-9.72,13.11-17.15,28-22.71,45.48q-1.05,3.32-2.09,6.65c.51-7.65,1-14.62,1.42-21.23.31-4.51.63-6.75,1-9.12s.67-4.7,1-9.09c1.32-3.15,10.85-19.29,28.35-39.16,15.3-17.38,40-41.13,70.82-55.62.88-.42,2.37-1.07,4.05-1.78m7.15-8.42h0c-2.8,1.18-10.59,4.38-13.33,5.68C88,346,47.86,411.53,47.58,415.47c-.67,9.25-1.36,9.51-2,18.76q-1.43,20.83-2.76,41.66c-.19,3-.31,6.07-.39,9.11,0,.72-.19,1.62,1.05,2.21.35-.24,1-.46,1.25-.91a38.64,38.64,0,0,0,1.67-4.47c3.21-10.39,6.31-20.81,9.6-31.17,5-15.8,12-30.63,22-44A167,167,0,0,1,102.81,380a263.71,263.71,0,0,1,34.95-25.29c2.45-1.51,15.35-7.54,15.35-7.54s10.52-35.83,9.78-35.83Z" transform="translate(-11 -15.29)"/><path class="cls-1" d="M349,839.14c-38.32,0-55.62-2-59.09-3.94a19.83,19.83,0,0,1-4.15-3.73c-3.61-5.51-7.16-11.2-10.59-16.71l-1.55-2.48,3.68.23c5.83.37,11.85.75,17.76,1.24,4.35.37,8.77.79,13.05,1.2,7.31.71,14.87,1.44,22.35,1.88,8.36.49,16.88.56,24.84.56h5a425,425,0,0,0,45.22-2.84c2.27-.24,4.6-.44,6.86-.62,1.52-.13,3-.25,4.56-.4q.68-.06,1.32-.06a12.15,12.15,0,0,1,3.22.42c2,1.26,11.74,10.91,21,20.45C432.15,836.66,392.39,839.14,349,839.14Z" transform="translate(-11 -15.29)"/><path d="M278.27,815.08c5.45.35,11.05.71,16.54,1.16,4.33.36,8.74.79,13,1.2,7.33.71,14.92,1.44,22.45,1.88,8.43.5,17,.57,25.06.57h5A424.41,424.41,0,0,0,405.77,817c2.24-.24,4.56-.43,6.8-.61,1.53-.13,3.06-.25,4.59-.4.37,0,.74,0,1.09,0a10.12,10.12,0,0,1,2.15.23c2.21,1.71,9.46,8.83,17,16.49-14.51,2-50.53,4-88.4,4-40,0-55-2.22-57.78-3.58a18.93,18.93,0,0,1-3.37-2.95c-3.23-5-6.43-10.05-9.54-15m-6.39-5.44a2.12,2.12,0,0,0-1.79.83,3.49,3.49,0,0,0,.23,1.3c4.4,7.05,8.76,14.12,13.31,21.07,1.29,2,4.91,4.48,4.91,4.48,5.26,3.08,31.11,4.32,60.42,4.32,45.5,0,99.36-3,97.54-6.73,0,0-21.88-22.72-24.14-23.37a14.58,14.58,0,0,0-4.11-.58c-.51,0-1,0-1.55.07-3.82.36-7.65.62-11.46,1a427.76,427.76,0,0,1-45,2.83h-4.95c-8.26,0-16.53-.07-24.77-.56-11.79-.69-23.55-2.09-35.33-3.07-7.33-.61-14.67-1-22-1.51-.43,0-.89-.11-1.34-.11Z" transform="translate(-11 -15.29)"/><path class="cls-1" d="M857.35,708.39c3.17-13.16,9.36-38.39,10.74-43.95,1.12-1.59,7.93-7.61,14.51-13.43,15.1-13.36,37.93-33.55,48.17-48.06a420.34,420.34,0,0,0,24.65-40.35c1.38,16.39.14,30-3.84,42.7a74.55,74.55,0,0,1-23,34.72l-1,.82c-7.69,6.58-15.64,13.38-23.43,20.12-2.21,1.92-4.38,3.94-6.47,5.89l-2.08,1.93c-3.86,3.57-13.61,13.82-23,23.73C867.43,697.9,861.57,704.06,857.35,708.39Z" transform="translate(-11 -15.29)"/><path d="M953.41,571.35a99.56,99.56,0,0,1-4.21,33.2,72,72,0,0,1-22.29,33.57l-1.34,1.14c-7.57,6.48-15.4,13.17-23.06,19.81-2.26,2-4.45,4-6.57,6l-2.05,1.9c-3.92,3.63-13.69,13.91-23.15,23.85-2.83,3-5.9,6.21-8.79,9.23,3.12-12.83,7.11-29.12,8.43-34.43,1.68-1.92,7.88-7.4,13.88-12.71,15.19-13.44,38.14-33.75,48.55-48.49a383.78,383.78,0,0,0,20.6-33m3.44-14.8c-.69.43-1.05.53-1.2.77-.77,1.21-1.53,2.43-2.21,3.69a421.38,421.38,0,0,1-24.71,40.5c-15.8,22.36-62.13,58.6-63,62.06-1.51,6-12.61,51.3-12.73,52.43h0c1.24,0,36.19-37.91,44.28-45.38,2.81-2.61,5.59-5.26,8.49-7.77q12.15-10.51,24.38-20.93A76.6,76.6,0,0,0,954,606.05c4.94-15.7,5.28-31.74,3.52-47.94a6.7,6.7,0,0,0-.64-1.56Z" transform="translate(-11 -15.29)"/><path class="cls-1" d="M124.48,258a115.62,115.62,0,0,1,6.41-17.22,62,62,0,0,1,4.86-8.33,33.06,33.06,0,0,1,17.7-12.86q12.75-3.8,25.51-7.54l14.26-4.2c.26-.08.61-.18.83-.22.12.17.18.45-.14,1.27l-2.43,6.26c-1.75,4.53-3.57,9.21-5.4,13.78a10.2,10.2,0,0,1-5,5.23c-.81.43-1.68.81-2.42,1.13l-7.95,3.42c-14.83,6.37-30.16,13-45.25,19.39-.33.14-.66.3-1,.46l-.24.12Z" transform="translate(-11 -15.29)"/><path d="M190.29,211.35c-.39,1-.77,2-1.15,3-1.75,4.5-3.56,9.16-5.38,13.71a7.8,7.8,0,0,1-3.82,3.95c-.72.38-1.53.74-2.22,1l-7.95,3.41c-13.58,5.84-27.6,11.87-41.46,17.79a87.16,87.16,0,0,1,4.82-12.31,58.4,58.4,0,0,1,4.66-8A30.55,30.55,0,0,1,154.16,222c8.49-2.52,17.12-5.06,25.47-7.52l10.66-3.13m3.91-6.22a7.27,7.27,0,0,0-2,.44c-13.15,3.88-26.32,7.73-39.46,11.64a35.37,35.37,0,0,0-19,13.81,64.5,64.5,0,0,0-5.07,8.66c-3.15,6.3-5.12,13.06-7.23,19.75a9.69,9.69,0,0,0-.17,2.24,4.57,4.57,0,0,0,1.12.14c1.61,0,2.85-.84,4.11-1.38q26.62-11.35,53.21-22.82c.88-.37,1.76-.77,2.6-1.22a12.69,12.69,0,0,0,6.11-6.5c2.67-6.66,5.23-13.37,7.84-20.06.56-1.43.67-2.83-.47-4a2,2,0,0,0-1.57-.69Z" transform="translate(-11 -15.29)"/><path class="cls-1" d="M465.28,96.19a10,10,0,0,1-3.45-.68c-8.9-3.24-18-6.48-26.72-9.62l-15-5.38c4.84-3.37,14.24-9.58,23.06-15.3,4,1.24,10.37,3.26,12,3.9,11.6,4.48,22.95,9,32.53,12.73l.13.06-6.29,4.41c-3.84,2.68-7.81,5.45-11.67,8.25A7.59,7.59,0,0,1,465.28,96.19Z" transform="translate(-11 -15.29)"/><path d="M443.55,68c4.19,1.31,9.37,3,10.74,3.49,9.95,3.84,19.72,7.68,28.33,11.08l-2.48,1.73c-3.85,2.69-7.83,5.47-11.71,8.29a5.15,5.15,0,0,1-3.15,1.15,7.56,7.56,0,0,1-2.6-.53c-8.88-3.23-17.92-6.47-26.66-9.6l-10.29-3.69-.16-.06c4.83-3.26,11.5-7.66,18-11.86m-.75-5.47S414.15,81,415,81.33c3,1.1,6,2.17,9,3.25C436.35,89,448.68,93.38,461,97.86a12.64,12.64,0,0,0,4.31.83,10.09,10.09,0,0,0,6.08-2.11c6.08-4.41,12.28-8.64,18.41-13a27.33,27.33,0,0,0,2.37-2.18,33.65,33.65,0,0,0-3.51-1.91q-16.25-6.42-32.54-12.74c-2.37-.92-13.29-4.3-13.29-4.3Z" transform="translate(-11 -15.29)"/><path class="cls-2" d="M-21,466" transform="translate(-11 -15.29)"/><path class="cls-1" d="M628,892.93c12.16-13.16,30.19-46.68,40-72.09l21.66-10.05c-13.7,37.69-31.53,76.8-41.28,83.66Z" transform="translate(-11 -15.29)"/><path d="M685.19,815.61c-6,16-12.5,31.68-18.47,44.39-10.59,22.53-16.6,29.66-19.16,31.88L633,890.8c12-15.17,27.83-44.85,36.94-68.11l15.26-7.08M694,806l-28,13c-11.54,30.2-33.42,68.6-44,76l27,2c11.77-6.84,32.55-55.82,45-91Z" transform="translate(-11 -15.29)"/><path class="cls-2" d="M497,908" transform="translate(-11 -15.29)"/><path class="cls-1" d="M643.63,853.29l-20.48-2.81,25.77-16.11c1.24-.22,3.32-.58,5.16-.83C651.68,838.33,647.07,847,643.63,853.29Z" transform="translate(-11 -15.29)"/><path d="M649.52,837c-2,3.89-4.65,8.8-7.26,13.63l-11.94-1.64,19.2-12m7.62-6.2A82.55,82.55,0,0,0,648,832l-32,20c7,1,29,4,29,4s12-22,13-25c.06-.18-.28-.25-.86-.25Z" transform="translate(-11 -15.29)"/><path class="cls-2" d="M452,208" transform="translate(-11 -15.29)"/><path class="cls-2" d="M899,340" transform="translate(-11 -15.29)"/><path class="cls-2" d="M590,818" transform="translate(-11 -15.29)"/></svg>