<svg id="Layer_1" data-name="Layer 1" xmlns="http://www.w3.org/2000/svg" viewBox="0 0 250 250"><defs><style>.cls-1{fill:#fff;}</style></defs><title>flogo-HexRBG-Wht-250-BRC-Site</title><path class="cls-1" d="M236.2,0H13.8A13.8,13.8,0,0,0,0,13.8V236.2A13.8,13.8,0,0,0,13.8,250H133.54V153.32H101.07V115.48h32.47V87.65c0-32.29,19.72-49.87,48.53-49.87a266.55,266.55,0,0,1,29.11,1.49V73H191.26c-15.63,0-18.65,7.44-18.65,18.37v24.1h37.47l-4.88,37.84H172.61V250H236.2A13.8,13.8,0,0,0,250,236.2V13.8A13.8,13.8,0,0,0,236.2,0Z"/></svg>